<?xml version="1.0" encoding="UTF-8"?>
<svg width="300px" height="200px" viewBox="0 0 300 200" version="1.1" xmlns="http://www.w3.org/2000/svg" xmlns:xlink="http://www.w3.org/1999/xlink">
    <!-- Generator: Sketch 63 (92445) - https://sketch.com -->
    <title>logo_1</title>
    <desc>Created with Sketch.</desc>
    <g id="logo_1" stroke="none" stroke-width="1" fill="none" fill-rule="evenodd">
        <g id="Group-2" transform="translate(98.000000, 50.000000)" fill="#C91C20">
            <g id="Group">
                <polygon id="Fill-203" points="0.748201439 48 22.6009732 48 40.6498805 72.5561295 56.1151079 72.5561295 56.1151079 99 0.748201439 99"></polygon>
                <path d="M35.9136691,30 C35.9136691,26.2720933 32.6538261,23.25 28.6312224,23.25 L0,23.25 L0,36.75 L28.6312224,36.75 C32.6538261,36.75 35.9136691,33.7279067 35.9136691,30" id="Fill-205"></path>
                <path d="M37.5228711,48.2972757 C44.5373269,46.1894407 49.9208976,39.2048988 49.9208976,31.6327685 L49.9208976,28.3982604 C49.9208976,19.3211276 42.1858822,11.9624138 33.1788865,11.9624138 L0.748201439,11.9624138 L0.748201439,0 L104,0 L104,37.5987314 L56.532445,37.5987314 L56.532445,61.5 L47.7482177,61.5 L38.3479394,49.1121389" id="Fill-206"></path>
            </g>
            <polygon id="Fill-204" points="105 61.6942752 105 48 70 48 70 100 105 100 105 73.4734069 79.3801669 73.4734069 79.3801669 61.6942752"></polygon>
        </g>
    </g>
</svg>