<?xml version="1.0" encoding="UTF-8"?>
<svg width="300px" height="250px" viewBox="0 0 300 250" version="1.1" xmlns="http://www.w3.org/2000/svg" xmlns:xlink="http://www.w3.org/1999/xlink">
    <!-- Generator: Sketch 63 (92445) - https://sketch.com -->
    <title>logo_2</title>
    <desc>Created with Sketch.</desc>
    <g id="Page-1" stroke="none" stroke-width="1" fill="none" fill-rule="evenodd">
        <g id="logo_2">
            <path d="M112.91747,151.009745 C118.143668,146.294129 124.163413,147.508338 125.491935,151.962635 C127.221688,149.910359 129.315734,148.601125 131.881068,148.156356 C132.756134,148.00326 133.635022,147.962346 134.50372,148.108843 C137.633325,148.63676 139.411481,151.111369 138.918539,154.358056 C138.071495,159.959252 136.735331,165.461464 135.702319,171.025705 C135.59405,171.606413 135.36987,171.913925 134.710068,171.890169 C133.249076,171.837377 131.781715,171.840017 130.316902,171.887529 C129.497881,171.913925 129.466037,171.589256 129.617613,170.872609 C130.649351,165.92735 131.646698,160.972852 132.630033,156.015715 C132.838928,154.96912 133.167556,153.805064 132.134544,153.013189 C131.026381,152.160603 129.803581,152.424562 128.69287,153.034305 C126.794982,154.075621 125.824384,155.878456 125.225721,157.926773 C124.126475,161.701377 123.535454,165.597402 122.720254,169.439316 C122.206933,171.865093 122.246419,171.88357 119.840304,171.869052 C118.673549,171.863773 117.049517,172.278187 116.461044,171.659205 C115.820348,170.988751 116.690319,169.428757 116.913225,168.260742 C117.690213,164.187865 118.513056,160.122906 119.29896,156.051349 C119.51295,154.941404 119.762605,153.754912 118.663359,152.968316 C117.570481,152.189639 116.41901,152.466795 115.332501,153.059381 C113.148019,154.251153 112.171052,156.337744 111.662826,158.680374 C110.78139,162.730815 109.964916,166.795773 109.173917,170.86601 C109.031257,171.591896 108.81472,171.917884 108.056838,171.888849 C106.636606,171.836057 105.210006,171.837377 103.789774,171.888849 C103.019155,171.916565 102.904517,171.681642 103.059915,170.925401 C104.529823,163.731217 105.962792,156.530434 107.40213,149.33097 C107.49384,148.870363 107.609752,148.531176 108.184213,148.541735 C109.649026,148.57341 111.113839,148.577369 112.577379,148.541735 C113.225718,148.527217 113.230813,148.865084 113.145471,149.352087 C113.051214,149.895841 112.793916,150.415839 112.91747,151.009745" id="Fill-1" fill="#E97E27"></path>
            <path d="M47.6369528,140.00662 C46.8608718,143.740487 46.1119084,147.347093 45.342284,151.045537 C45.942746,151.021921 46.2384574,150.62833 46.5935693,150.392176 C48.6635491,149.014607 50.8807388,148.16445 53.4013879,148.254976 C56.9408853,148.382238 59.2562151,150.913028 58.9772908,154.511762 C58.6647923,158.597237 57.4832381,162.529212 56.7510619,166.54384 C56.4811768,168.022431 56.1092777,169.481342 55.8561798,170.962556 C55.7322134,171.685451 55.4739502,172.002948 54.7081998,171.974085 C53.2657997,171.918982 51.8221083,171.922918 50.3822908,171.971461 C49.5997532,171.9977 49.4964479,171.766794 49.6539885,171.007163 C50.6715456,166.173865 51.6206629,161.326135 52.6123937,156.486277 C52.8577438,155.28976 52.9300575,154.135227 51.8724696,153.29819 C50.7735596,152.427042 49.5377701,152.575294 48.3794595,153.126322 C45.9517852,154.282167 44.5003459,156.322281 43.8843881,158.89899 C42.9572232,162.782422 42.143694,166.694717 41.3585738,170.610948 C41.1545459,171.621165 40.8472126,172.089538 39.7353895,171.985893 C38.4311602,171.865191 37.1062699,171.93735 35.7942927,171.966213 C35.1395954,171.981957 34.8864975,171.849448 35.0466207,171.089817 C37.1514659,160.998143 39.2330675,150.899908 41.3056299,140.800362 C41.4037699,140.333301 41.5083665,139.994812 42.0817108,140 C43.89601,140.015804 45.7154744,140.00662 47.6369528,140.00662" id="Fill-3" fill="#E97E27"></path>
            <path d="M231.152801,140.023456 C230.070247,145.478253 229.010064,150.812356 227.942424,156.20943 C228.429636,156.247475 228.606126,155.86703 228.837303,155.636139 C230.878123,153.588294 232.922672,151.541762 234.929935,149.459808 C235.405961,148.969165 235.886958,148.767136 236.548174,148.777631 C238.671025,148.815675 240.793876,148.793373 243,148.793373 C242.900569,149.344363 242.482959,149.563447 242.184666,149.850748 C239.892783,152.058642 237.610842,154.278343 235.2767,156.431138 C234.615484,157.03985 234.523511,157.565914 234.808132,158.423883 C236.165364,162.518261 237.430623,166.64937 238.789099,170.745059 C239.109764,171.719786 239.010333,172.055627 237.970036,171.992657 C236.708506,171.915256 235.434547,171.925751 234.17426,171.992657 C233.406155,172.033325 233.112834,171.70142 232.912729,170.972015 C232.117282,168.038651 231.253475,165.126278 230.455542,162.194226 C230.26538,161.496306 230.100076,161.306084 229.529591,161.863632 C228.575054,162.800315 227.579501,163.696329 226.586434,164.593655 C226.216054,164.928184 226.095494,165.359792 226.004763,165.833381 C225.679127,167.561127 225.307504,169.281001 225.024126,171.015307 C224.904808,171.770949 224.59533,172.014959 223.88937,171.988721 C222.54208,171.940182 221.193548,171.937558 219.847501,171.988721 C219.08934,172.017583 218.880535,171.86934 219.060754,170.989069 C220.303641,164.939991 221.479412,158.876482 222.681284,152.816909 C223.448145,148.946863 224.260993,145.086001 224.963224,141.201524 C225.140957,140.204496 225.526252,139.965733 226.408702,140.003778 C227.952367,140.073308 229.501004,140.023456 231.152801,140.023456" id="Fill-5" fill="#E97E27"></path>
            <path d="M24.5425899,140.064056 C28.3676221,140.064056 32.1952716,140.090245 36.0203039,140.044414 C36.9363226,140.033938 37.1378467,140.308924 36.9193108,141.154831 C36.6392708,142.233821 36.3971801,143.327216 36.2375312,144.428467 C36.1184487,145.245566 35.7389553,145.455079 34.9524878,145.438056 C32.6323434,145.388297 30.3082731,145.462936 27.9894373,145.401392 C27.1061336,145.377821 26.7515035,145.589953 26.5604481,146.524903 C24.9207747,154.553168 23.1999682,162.564409 21.5445916,170.590055 C21.3443761,171.568217 21.0826564,172.094618 19.9219299,171.985933 C18.5164956,171.856297 17.0861978,171.92177 15.6689861,171.96891 C14.8825186,171.995099 14.7176352,171.725352 14.8772842,170.98551 C16.2931874,164.354433 17.6842272,157.720738 19.0778841,151.088352 C19.3945649,149.575932 19.7518122,148.071369 20.0331608,146.555021 C20.3210523,144.999389 20.123454,145.375202 19.143314,145.401392 C16.7381107,145.464245 14.3289816,145.398773 11.9211611,145.435437 C11.1503968,145.445913 10.8284817,145.352942 11.0888927,144.446799 C11.4932495,143.048302 11.8374108,141.491361 12.1750291,140.311543 C12.3255179,139.782523 14.9623431,140.091554 16.4161956,140.073222 C19.1236851,140.040485 21.8337918,140.064056 24.5425899,140.064056" id="Fill-7" fill="#E97E27"></path>
            <path d="M169.660741,171.891629 C168.907821,171.721566 167.606875,172.396588 167.118095,171.609062 C166.753978,171.016455 167.330393,169.750134 167.522943,168.793852 C169.345996,159.61433 171.191265,150.442658 172.984695,141.256596 C173.166136,140.330403 173.432743,139.940564 174.372041,140.007281 C175.664347,140.098854 176.965293,140.049143 178.261302,140.021671 C178.861169,140.008589 179.11173,140.07269 178.953741,140.864141 C176.94431,150.920145 174.973142,160.985306 173.00074,171.049159 C172.884717,171.650924 172.647732,171.942649 172.03182,171.902095 C171.303586,171.855 170.572884,171.891629 169.660741,171.891629" id="Fill-9" fill="#E97E27"></path>
            <path d="M94.9625979,152.746829 C95.9543861,151.673248 96.6430903,150.8319 97.4332736,150.095389 C99.3302546,148.326435 101.518142,147.520917 104.147125,148.293259 C104.833123,148.493643 105.278278,148.675448 104.80065,149.526086 C104.160656,150.667346 103.654614,151.881595 103.086331,153.062667 C102.896904,153.459454 102.744009,153.768656 102.125663,153.720882 C98.8025637,153.463435 96.4428384,154.789155 94.965304,157.773684 C93.6136035,160.503421 93.1684489,163.499893 92.4932752,166.423378 C92.1306569,167.991948 91.753155,169.560518 91.4676607,171.145013 C91.3418267,171.817825 91.0333305,171.996977 90.3973954,171.985033 C88.9293323,171.955838 87.4572101,171.917354 85.9945593,171.99565 C84.9865344,172.047405 84.8972329,171.63602 85.0704237,170.833156 C86.1691032,165.770471 87.2474868,160.702478 88.3285766,155.633157 C88.7669659,153.588177 89.2094144,151.545852 89.6166835,149.495564 C89.7533419,148.810807 89.983361,148.447196 90.818195,148.502932 C92.1455405,148.58919 93.4864165,148.563976 94.8205273,148.512222 C95.5998861,148.480372 95.8596724,148.717914 95.674304,149.47035 C95.4415788,150.428478 95.2548574,151.394568 94.9625979,152.746829" id="Fill-11" fill="#E97E27"></path>
            <path d="M109.460776,180.857245 C109.354796,180.251311 109.863234,179.946143 109.645907,179.362216 C108.156813,179.362216 106.627474,179.368084 105.096794,179.359282 C104.686287,179.357814 104.466277,179.582289 104.290537,179.965216 C103.630506,181.419165 102.949011,182.864312 102.181659,184.513392 C103.928325,184.513392 105.493885,184.500188 107.058104,184.522195 C107.657766,184.530998 107.738257,184.016027 107.946194,183.61256 C108.15413,183.21056 108.244012,182.76748 108.893311,182.892188 C109.845794,183.07118 110.249593,183.322064 109.612369,184.404823 C109.04222,185.376079 108.363408,185.990816 107.271406,185.986415 C105.241678,185.979079 103.21195,186.024561 101.184905,185.980546 C99.9896058,185.957072 99.7414235,185.534531 100.24852,184.360808 C100.959529,182.707326 101.751029,181.093457 102.531797,179.476654 C102.978525,178.555281 103.697582,178.049113 104.670188,178.038843 C106.695892,178.01977 108.724279,177.977223 110.751324,178.015369 C111.24903,178.025639 112.116997,177.900931 111.986869,178.856048 C111.884913,179.591092 111.765517,180.541807 110.810351,180.716399 C110.382404,180.794158 109.945067,180.808829 109.460776,180.857245" id="Fill-13" fill="#E97E27"></path>
            <path d="M225,178.239099 C224.029594,180.4195 223.119523,182.489941 222.184313,184.540127 C221.772016,185.442961 221.123403,185.979742 220.204533,185.982635 C218.140534,185.992763 216.077792,185.995657 214.01505,186 C212.985565,186.001444 212.790729,185.38364 213.199255,184.431613 C214.020078,182.518878 214.879868,180.63074 215.708233,178.722346 C216.180867,177.642997 216.975293,178.059689 217.860223,178.179778 C216.884788,180.406479 215.99483,182.345257 215.028195,184.548808 C216.725149,184.548808 218.242352,184.525658 219.75704,184.563276 C220.284982,184.576298 220.472275,184.22616 220.663339,183.786318 C221.294355,182.34815 222.007076,180.949047 222.538788,179.467474 C223.010164,178.149394 223.467713,178.195693 225,178.239099" id="Fill-15" fill="#E97E27"></path>
            <path d="M165.61043,185.995542 C163.699792,185.995542 163.699792,185.995542 164.523755,184.40327 C165.786899,181.963095 167.05535,179.524232 168.321147,177.085368 C168.780231,176.199461 169.235334,175.879696 171.772236,176.039579 C172.214071,176.069721 171.894305,176.474669 171.796119,176.666004 C170.287512,179.608104 168.760328,182.541031 167.261009,185.487063 C166.847037,186.304823 166.125241,185.865801 165.61043,185.995542" id="Fill-17" fill="#DD2626"></path>
            <path d="M172.607848,185.995542 C170.70119,185.995542 170.698536,185.995542 171.525153,184.40327 C172.786971,181.963095 174.055423,179.524232 175.321221,177.085368 C175.780305,176.199461 176.235409,175.879696 178.772313,176.039579 C179.214148,176.069721 178.894381,176.474669 178.794869,176.666004 C177.287587,179.608104 175.757749,182.541031 174.261082,185.487063 C173.84711,186.304823 173.12664,185.865801 172.607848,185.995542" id="Fill-19" fill="#DD2626"></path>
            <path d="M253.082906,178.019246 C252.123692,180.241376 251.254482,182.253188 250.313763,184.433255 L256,184.433255 C255.901366,185.570429 255.543819,186.03168 254.614195,185.998319 C252.639054,185.930147 250.656515,185.954805 248.681374,185.988166 C247.951484,186.00122 247.849151,185.760441 248.179574,185.023599 C249.1018,182.971174 250.026492,180.915848 250.867345,178.818458 C251.338321,177.646473 252.126158,178.104824 253.082906,178.019246" id="Fill-21" fill="#E97E27"></path>
            <path d="M141,185.976776 C142.111978,183.330944 143.124287,180.961084 144.107775,178.569322 C144.278295,177.885961 145,177.992554 145.763735,178.027598 C146.302912,178.053881 145.8574,178.649631 145.750525,178.909542 C145.018013,180.701174 144.251876,182.472363 143.412489,184.452356 L149,184.452356 C148.90033,185.664299 148.445212,186.024962 147.571,185.998679 C145.447914,185.931511 143.322426,185.976776 141,185.976776" id="Fill-23" fill="#E97E27"></path>
            <path d="M259,185.820679 C260.257527,183.398472 261.491685,180.98486 262.766739,178.591302 C263.206362,177.763369 264.136727,177.979663 264.678588,178.201686 C265.413241,178.49533 264.684431,179.046809 264.497481,179.4221 C263.647446,181.143858 262.633829,182.798292 261.88165,184.560158 C261.300354,185.918083 260.450318,186.257564 259,185.820679" id="Fill-25" fill="#E97E27"></path>
            <path d="M156.953266,120.976253 C154.700966,121.558532 152.414738,121.854757 150.649175,121.821701 C137.3011,121.819159 126.767747,113.303651 124.455421,101.097411 C122.539791,90.9990713 128.341487,80.3489652 138.401151,75.4974903 C153.382992,68.2736747 171.521446,76.3327678 175.421866,91.947499 C178.570649,104.552943 170.32222,117.516907 156.953266,120.976253 M175.959739,111.371013 C175.244056,111.483831 174.310952,111.477421 174.014584,110.791538 C173.722099,110.115911 174.633203,109.826174 175.091343,109.427464 C175.187112,109.344133 175.306177,109.289006 175.404535,109.210802 C179.908286,105.699337 183.4194,101.458401 185.220901,95.9905669 C185.821401,94.1700923 186.089297,92.2957726 185.739868,90.0945368 C185.257138,90.9637493 184.920651,91.5868132 184.566045,92.2009028 C183.398694,94.2188092 182.113571,96.154666 180.256421,97.627712 C179.624861,98.1302655 178.874235,99.0930658 178.110668,98.6058966 C177.299217,98.0892407 177.960543,97.0405448 178.206438,96.2905606 C179.782751,91.4611748 179.991114,86.5407653 179.20684,81.5703568 C178.828939,79.158869 178.185731,76.8102004 176.267754,74.9922899 C176.478705,77.7127455 176.445057,80.3883304 175.742316,83.0228904 C175.616781,83.4895473 175.619369,84.1446618 174.965807,84.1677382 C174.362719,84.1895326 174.212594,83.5664688 173.977053,83.1344266 C173.834693,82.8767397 173.754454,82.5895662 173.644448,82.316495 C172.294617,78.9883598 170.665243,75.8050933 168.602317,72.8513092 C166.460447,69.7821428 164.089507,66.9270746 160.697457,65.1117281 C159.711291,64.5835341 158.301927,64.1143131 157.134576,63.998931 C157.30929,64.2540538 157.533184,64.4527676 157.555185,64.4719979 C157.713075,64.6117386 158.101329,64.8912199 158.264396,65.0258325 C160.144842,66.5655437 160.948528,68.3539677 161.511497,70.6654576 C161.624091,71.1321145 161.669387,71.6769749 161.27078,71.9590202 C160.804874,72.2897825 160.531802,71.7154356 160.235434,71.4782611 C155.087181,67.3488606 149.180537,64.9258346 142.651391,64.0232894 C140.59882,63.739962 138.486715,63.6630406 136.109304,64.4502035 C136.639919,64.5912262 136.826281,64.6501993 137.017819,64.6912241 C140.00479,65.3258262 142.757514,66.5001605 145.277285,68.1988428 C145.815665,68.5616557 146.709944,68.9603652 146.471815,69.6590685 C146.198743,70.4462315 145.26952,69.9936769 144.649607,69.9411139 C139.018624,69.4500985 133.435525,69.6911191 127.927489,71.0167323 C125.42066,71.6205658 122.63817,72.6897741 120.378529,74.1846145 C120.779725,74.1346156 121.069622,74.0653862 121.144684,74.051284 C121.434581,73.9961569 121.721889,73.9230815 122.010492,73.8576983 C125.481486,73.0666893 128.980953,72.8038743 132.521833,73.2384805 C133.07186,73.3077098 133.742246,73.3884774 133.761659,74.0730784 C133.78366,74.7474232 133.08739,74.7025523 132.616308,74.8140885 C127.764422,75.947398 123.260671,77.8473581 119.224119,80.7690916 C116.684935,82.6087966 113.850678,85.3189961 112.091885,87.9663764 C112.687209,87.5394623 113.600901,87.0215244 114.015039,86.7689656 C116.362684,85.3318163 118.628796,83.7549264 121.179627,82.6690517 C122.398746,82.1498319 123.673515,81.8344539 124.994874,81.7203537 C125.406424,81.684457 125.905978,81.6562525 126.116929,82.1088071 C126.307174,82.5126448 125.978452,82.8446891 125.710556,83.0946838 C125.245945,83.525444 124.752862,83.9279996 124.236484,84.2933766 C120.444532,86.9753716 117.286729,90.2227393 115.058149,94.3021408 C113.929623,96.367482 113.112994,98.5392313 112.934397,100.917386 C113.268296,100.582778 113.518073,100.207145 113.774321,99.8353579 C115.524054,97.2725912 117.5158,94.9200765 120.166283,93.2226763 C120.853493,92.7829419 121.677887,91.7611685 122.473809,92.5034606 C123.207609,93.1880616 122.432395,94.1508619 122.01308,94.9046922 C120.17146,98.2135971 118.857866,101.704549 118.363488,105.460881 C117.907936,108.932603 118.166773,112.318429 119.944978,115.727332 C120.073102,114.796582 120.168871,114.106853 120.265935,113.417124 C120.590775,111.114608 121.039856,108.849271 122.38451,106.873672 C122.705467,106.401887 122.973363,105.668569 123.683868,105.871129 C124.372373,106.065996 124.274015,106.804442 124.270132,107.386481 C124.255896,109.033883 124.354254,110.6659 124.747685,112.273558 C126.307174,118.638809 130.308783,123.156663 135.391033,126.98607 C135.506216,127.071965 136.32155,127.73349 136.500147,127.787335 C136.294372,127.012992 135.737874,126.025834 135.525628,125.560459 C134.709,123.761779 133.632241,122.07207 133.1521,120.131086 C132.961855,119.368281 132.947619,118.515735 133.694362,118.088821 C134.419103,117.673445 134.804769,118.467018 135.242203,118.877266 C139.311109,122.702826 143.7838,125.950194 148.968291,128.143738 C152.107975,129.469351 155.344723,130.309077 159.065494,129.516786 C158.457229,129.251407 158.084505,129.079616 157.706604,128.920645 C155.313662,127.912973 152.998372,126.768126 151.006627,125.077136 C150.57437,124.706631 149.786213,124.277152 150.010107,123.751522 C150.278002,123.11692 151.130868,123.360505 151.741722,123.483579 C155.555674,124.251512 159.409747,124.497661 163.288408,124.302793 C167.071301,124.113053 170.837369,123.742548 174.449429,122.514369 C175.426536,122.182325 176.433409,121.83746 177.282392,120.850301 C175.495128,120.96953 173.907167,121.072091 172.317912,121.178499 C170.095803,121.328496 167.900871,121.068245 165.721469,120.679792 C165.171442,120.581076 164.551529,120.431079 164.537293,119.746478 C164.523057,119.073415 165.026494,118.706757 165.642524,118.523427 C166.006189,118.415737 166.386679,118.356764 166.759403,118.275996 C171.991778,117.150379 177.017085,115.524772 181.307296,112.203047 C183.064795,110.841537 185.156192,108.637737 186.091885,106.553166 C185.359378,107.055719 184.338269,107.799293 183.785654,108.15185 C181.370711,109.688997 178.823762,110.922305 175.959739,111.371013" id="Fill-27" fill="#E97E27"></path>
            <path d="M151.079507,167.824111 C149.785487,167.815735 148.588999,167.003218 148.230465,165.89194 C147.845831,164.685728 148.268928,163.367831 149.411842,162.667 C151.646842,161.30024 154.259609,161.396569 156.703411,160.836742 C156.997382,160.76973 157.048208,160.980538 157.072935,161.245793 C157.362784,164.456772 154.280214,167.843657 151.079507,167.824111 M163.900874,156.171215 C164.711248,151.968431 162.929217,149.183908 158.819176,148.211535 C156.985588,147.777347 155.11895,147.734448 153.249668,147.952842 C149.553408,148.38313 146.67281,150.002885 145.013723,153.413991 C144.700413,154.061373 144.701735,154.417563 145.579531,154.459162 C147.054862,154.53066 148.524906,154.672356 149.998915,154.785453 C150.439135,154.817952 150.819866,154.855651 151.044603,154.305766 C151.84969,152.337621 154.488365,151.969731 156.216195,152.449418 C157.436384,152.790008 158.052427,153.680484 158.029953,154.924549 C158.006158,156.227113 157.477365,156.991492 156.057557,157.05389 C155.236606,157.090289 154.422266,157.250185 153.603959,157.346382 C151.149039,157.634974 148.655782,157.692173 146.326451,158.635946 C142.983159,159.987909 141.34919,163.603109 142.416029,167.269008 C143.33084,170.42272 146.436175,172.24527 149.932816,171.740884 C152.120696,171.424992 153.915947,170.400621 155.619981,168.801665 C155.675504,169.287852 155.720452,169.540045 155.734993,169.794838 C155.795805,170.986905 156.320631,171.51729 157.632037,171.362594 C158.742502,171.229998 159.889982,171.287196 161.01631,171.348295 C161.900716,171.397693 162.28409,171.267697 161.974747,170.257625 C161.580796,168.97976 161.578152,167.653797 161.851802,166.329134 C162.548487,162.944027 163.245171,159.561521 163.900874,156.171215" id="Fill-29" fill="#E97E27"></path>
            <path d="M203.235206,166.823518 C201.719653,166.84992 200.503366,166.102264 200.171152,164.945376 C199.844429,163.80769 200.543177,162.682005 201.981854,162.111961 C204.064368,161.285099 206.352799,161.243096 208.547881,160.844665 C208.86774,160.787061 209.017373,160.837465 209.062675,161.17229 C209.420972,163.848493 206.425557,166.764714 203.235206,166.823518 M215.859849,156.666902 C216.775909,152.105339 214.966293,149.073823 210.666636,148.185409 C208.120996,147.660674 205.556822,147.687949 203.0456,148.397122 C200.263002,149.184225 198.227019,150.864937 197.01046,153.469132 C196.744379,154.03673 196.680837,154.417293 197.51747,154.462753 C199.034529,154.545879 200.552911,154.683557 202.068646,154.799155 C202.465782,154.829028 202.747749,154.809546 203.021772,154.380925 C204.219799,152.511879 206.148555,151.850765 208.285145,152.475512 C209.518914,152.835293 210.053723,153.673052 210.020629,154.980994 C209.991506,156.236982 209.472581,156.960442 208.126291,157.050062 C207.261859,157.105913 206.401398,157.255281 205.539613,157.359189 C202.959554,157.670913 200.322573,157.695591 197.909311,158.833384 C194.820918,160.286797 193.37402,163.833958 194.439668,167.331761 C195.395441,170.468485 198.396464,172.231025 201.866107,171.743956 C204.054325,171.43483 205.877179,170.449002 207.546473,168.841025 C207.677528,169.481359 207.815201,169.937255 207.858886,170.400945 C207.927723,171.173761 208.351335,171.368588 209.086036,171.345209 C210.432326,171.29845 211.782588,171.304944 213.131526,171.340013 C213.890055,171.362094 214.243506,171.293255 213.994634,170.359381 C213.698106,169.257956 213.642507,168.107175 213.7868,166.936911 C214.210411,163.459889 215.172804,160.090671 215.859849,156.666902" id="Fill-31" fill="#E97E27"></path>
            <path d="M78.9898651,157.34288 C78.8468255,157.925451 78.4310749,157.812211 78.0607762,157.81494 C76.6985581,157.825855 75.3416873,157.819033 73.9834796,157.819033 C72.6239352,157.819033 71.2643907,157.827219 69.9048462,157.812211 C69.5479157,157.809483 69.1000815,157.958195 69.0920605,157.278756 C69.0626505,154.215825 72.7375647,151.237482 75.7280278,151.923742 C77.877632,152.417632 79.5259293,155.179045 78.9898651,157.34288 M83.9508563,155.453372 C83.4133579,151.44539 80.7714165,148.712852 76.7902842,148.003118 C75.0333281,147.69042 73.2906879,147.804601 71.5740767,148.213314 C64.7961306,149.831298 60.6158765,157.421682 62.5771601,164.512528 C64.0816351,169.960737 69.4514135,172.889198 75.314441,171.467137 C78.8752054,170.605596 81.3154222,168.441363 82.9357261,165.095106 C81.4989265,164.860259 80.1766543,164.739591 78.9129474,164.407431 C77.8457593,164.12717 77.2470927,164.360721 76.6236987,165.293624 C75.4003367,167.121804 73.5145371,167.699192 71.4374246,167.202249 C69.4253845,166.720876 68.4922456,165.165172 68.1291413,163.218919 C67.9404313,162.213355 68.073179,161.669702 69.3577092,161.693057 C73.7657168,161.76961 78.172423,161.687867 82.5791291,161.74885 C83.5408999,161.760527 83.8623578,161.410202 83.9430476,160.553851 C84.0966186,158.852826 84.1786099,157.151802 83.9508563,155.453372" id="Fill-33" fill="#E97E27"></path>
            <path d="M258.99835,157.339201 C258.848372,157.930753 258.44129,157.803509 258.078398,157.806216 C256.713869,157.819753 255.352019,157.811631 253.98883,157.811631 C252.624301,157.811631 251.262451,157.826521 249.897923,157.803509 C249.56449,157.79674 248.988683,157.995729 249.107862,157.285054 C249.672956,153.873812 252.677865,150.914694 256.247868,152.084263 C258.055633,152.678523 259.476403,155.491444 258.99835,157.339201 M265.023795,156.250683 C264.655735,152.023615 262.191562,148.950682 258.535763,148.144475 C255.916274,147.566759 253.326804,147.771881 250.828697,148.749455 C245.878163,150.687727 242.827966,155.902755 243.109884,161.866868 C243.352647,166.944282 246.375435,170.659844 251.020558,171.585489 C256.195582,172.617589 261.416287,170.226232 263.552861,165.892708 C263.91309,165.164396 263.680768,165.039765 263.004687,164.959274 C261.986649,164.841134 260.949034,164.724293 259.968847,164.43868 C258.855531,164.112822 258.231657,164.402329 257.552965,165.363027 C256.28825,167.153299 254.121657,167.78684 252.195217,167.190948 C250.452806,166.654775 249.205058,164.896959 249.051047,162.91195 C248.983178,162.04213 249.190701,161.692903 250.144785,161.720166 C252.374026,161.782482 254.608488,161.73964 256.837729,161.73964 C259.155722,161.73964 261.47241,161.720166 263.789098,161.750026 C264.476926,161.760412 264.756234,161.553992 264.863258,160.841258 C265.090359,159.310634 265.156923,157.780009 265.023795,156.250683" id="Fill-35" fill="#E97E27"></path>
            <path d="M156.10685,183.797217 C155.738586,183.838645 155.267028,183.890431 155.121819,183.464496 C154.988585,183.072222 155.323915,182.813296 155.657748,182.648877 C156.684695,182.14397 157.846374,182.059819 159.091885,181.824196 C158.564938,183.148606 157.467631,183.639272 156.10685,183.797217 M161.663631,177.973478 C159.932025,177.792372 158.180869,177.705274 156.461831,178.133847 C155.280429,178.429701 154.269395,178.981316 153.490172,180.137081 C154.893611,180.260123 156.164386,180.771645 157.411422,179.84814 C157.739589,179.603438 158.281414,179.613116 158.732469,179.571641 C159.087169,179.541226 159.527053,179.526019 159.561964,180.038924 C159.598272,180.511736 159.235194,180.614041 158.844186,180.685931 C157.495209,180.934779 156.147629,181.209896 154.797255,181.45598 C153.497155,181.695151 152.315753,182.137549 151.533737,183.268429 C150.684692,184.498848 151.077096,185.497008 152.557339,185.73618 C153.846269,185.947701 155.111458,185.769359 156.337547,185.293782 C156.709004,185.14862 157.127941,184.61636 157.495209,185.462446 C157.665577,185.853692 160.496194,185.66429 160.577188,185.329726 C161.018468,183.442623 162.285054,181.928792 162.931614,180.141228 C163.363119,178.939841 162.917649,178.104815 161.663631,177.973478" id="Fill-37" fill="#DD2626"></path>
            <path d="M208.935832,180.645572 C208.396898,181.832359 207.871437,183.031907 207.356999,184.234291 C207.203893,184.591603 207.031189,184.828393 206.641686,184.824139 C204.853403,184.80996 203.066345,184.81705 201.091885,184.81705 C201.809648,183.193548 202.447795,181.768553 203.068795,180.327961 C203.239049,179.935201 203.501167,179.833112 203.8478,179.83453 C205.411935,179.840201 206.973621,179.855798 208.540205,179.824604 C209.191826,179.811843 209.184477,180.09826 208.935832,180.645572 M210.202079,177.824196 C207.767141,177.824196 205.459329,177.886165 202.980386,177.886165 C202.31909,177.886165 201.824035,178.37307 201.525779,179.029653 C200.736136,180.770706 199.972162,182.526513 199.25586,184.310355 C198.901376,185.197111 199.103065,185.827136 200.043059,185.824196 C201.168851,185.821234 202.292198,185.824196 203.41799,185.824196 L203.41799,185.818283 C204.541337,185.818283 205.667129,185.815332 206.792921,185.821234 C207.676687,185.824196 208.361207,185.369741 208.77192,184.441671 C209.509002,182.778819 210.224081,181.09826 210.90738,179.401471 C211.24964,178.556028 211.170187,177.824196 210.202079,177.824196" id="Fill-39" fill="#E97E27"></path>
            <path d="M123.935832,180.645572 C123.398123,181.832359 122.871437,183.031907 122.358224,184.234291 C122.203893,184.591603 122.031189,184.828393 121.641686,184.824139 C119.853403,184.80996 118.066345,184.81705 116.091885,184.81705 C116.808423,183.193548 117.447795,181.768553 118.068795,180.327961 C118.239049,179.935201 118.501167,179.833112 118.8478,179.83453 C120.41316,179.840201 121.974845,179.855798 123.540205,179.824604 C124.191826,179.811843 124.184477,180.09826 123.935832,180.645572 M125.203226,177.824196 C122.766992,177.824196 120.459109,177.886165 117.981314,177.886165 C117.318775,177.886165 116.823705,178.37307 116.525441,179.029653 C115.736996,180.770706 114.972999,182.526513 114.256675,184.310355 C113.900958,185.197111 114.102653,185.827136 115.042675,185.824196 C116.168501,185.821234 117.291883,185.824196 118.417709,185.824196 L118.417709,185.818283 C119.542313,185.818283 120.666916,185.815332 121.792742,185.821234 C122.676534,185.824196 123.361076,185.369741 123.773023,184.441671 C124.510127,182.778819 125.224006,181.09826 125.907325,179.401471 C126.249596,178.556028 126.17014,177.824196 125.203226,177.824196" id="Fill-41" fill="#E97E27"></path>
            <path d="M137.936127,180.645572 C137.398481,181.832359 136.873082,183.031907 136.356256,184.234291 C136.204393,184.591603 136.031709,184.828393 135.643477,184.824139 C133.856631,184.80996 132.067336,184.81705 130.091885,184.81705 C130.809563,183.193548 131.450084,181.768553 132.069785,180.327961 C132.240019,179.935201 132.500882,179.833112 132.848698,179.83453 C134.413872,179.840201 135.975373,179.855798 137.538097,179.824604 C138.189641,179.811843 138.185967,180.09826 137.936127,180.645572 M139.202939,177.824196 C136.766879,177.824196 134.459161,177.886165 131.981542,177.886165 C131.319051,177.886165 130.824016,178.37307 130.525773,179.029653 C129.737384,180.770706 128.973442,182.526513 128.257169,184.310355 C127.900255,185.197111 128.103158,185.827136 129.044335,185.824196 C130.168859,185.821234 131.29216,185.824196 132.417906,185.824196 L132.417906,185.818283 C133.54243,185.818283 134.666953,185.815332 135.792699,185.821234 C136.676428,185.824196 137.360921,185.369741 137.772839,184.441671 C138.509891,182.778819 139.223719,181.09826 139.908211,179.401471 C140.249235,178.556028 140.169785,177.824196 139.202939,177.824196" id="Fill-43" fill="#E97E27"></path>
            <path d="M236.036254,181.753905 C235.569497,181.85207 235.063391,181.826237 234.496227,181.801696 C233.402604,181.751322 232.261492,181.748739 231.091885,181.748739 C231.726892,180.471307 231.68483,179.824196 232.718751,179.824196 C233.555929,179.824196 234.873432,179.847445 235.716037,179.847445 C236.178724,179.847445 237.091885,179.824196 237.091885,180.175522 C237.091885,180.777426 236.850365,181.582117 236.036254,181.753905 M237.868688,177.859816 C235.718475,177.796562 233.561827,177.840137 231.40904,177.824675 C230.99341,177.821864 230.682008,177.941343 230.48127,178.372875 C229.402946,180.706239 228.18565,183.271534 227.091885,185.614738 C228.807166,186.06876 229.467286,185.62036 229.870048,184.313114 C230.186597,183.286996 230.138986,182.960887 231.490108,182.974944 C232.836082,182.990406 232.676521,183.444428 233.03682,183.961704 C234.304301,185.770764 234.016062,186.098278 236.861138,185.635822 C236.206165,184.826173 235.369757,183.739613 234.737947,182.963699 C234.727652,182.845625 234.727652,182.845625 234.717358,182.728957 C237.697546,183.139404 238.070713,181.529945 238.827341,179.581726 C239.3279,178.284319 239.176059,177.897768 237.868688,177.859816" id="Fill-45" fill="#E97E27"></path>
            <polygon id="Fill-51" fill="#DD2626" points="130.973415 87 130 91.3862083 137.791385 91.3862083 133.1504 113 138.879877 113 143.350277 91.3862083 151.025231 91.3862083 152 87"></polygon>
            <path d="M155.461457,112.91151 C158.625336,113 160.638203,113 160.638203,113 L161.327407,109.127888 L158.949585,109.072917 C158.949585,109.072917 157.413967,109.093028 157.857527,106.837871 C158.365657,104.263614 159.801614,97.4404909 159.801614,97.4404909 L163.10586,97.4404909 L164,93.6769802 L160.970874,93.6769802 L162.27629,87 L156.100129,90.4618399 L155.594806,93.6769802 L152.711662,93.6769802 L152,97.4404909 L154.791905,97.4404909 L153.069599,105.100248 C153.069599,105.100248 152.143175,109.43224 152.812727,110.886964 C153.764417,112.962459 155.461457,112.91151 155.461457,112.91151" id="Fill-53" fill="#DD2626"></path>
            <path d="M184.038231,170.896877 C187.73029,171 190.081598,171 190.081598,171 L190.881788,166.531754 L188.108417,166.467617 C188.108417,166.467617 186.31631,166.491511 186.835568,163.888283 C187.428055,160.917837 189.102996,153.045274 189.102996,153.045274 L192.961484,153.045274 L194,148.702788 L190.46505,148.702788 L191.992202,141 L184.782501,144.992874 L184.194009,148.702788 L180.832145,148.702788 L180,153.045274 L183.25535,153.045274 L181.247551,161.883672 C181.247551,161.883672 180.16776,166.885139 180.947979,168.561518 C182.059724,170.955984 184.038231,170.896877 184.038231,170.896877" id="Fill-55" fill="#E97E27"></path>
            <polygon id="Fill-57" fill="#E97E27" points="196.86235 178 199 178 193.333375 182.322837 191.509576 186 189.764859 186 191.274805 182.437206 189 178 191.471271 178 192.979983 180.969236"></polygon>
            <polygon id="Fill-59" fill="#E97E27" points="277.724418 178 269.536424 178.095971 266 186 268.113651 186 269.332621 183.241182 272.629353 183.241182 273.157445 181.695613 269.985046 181.695613 270.797693 179.60573 277.225806 179.60573 278 178.095971"></polygon>
            <path d="M278,186 C278.087646,185.818084 281.641068,178.197672 281.736227,178 L290,178 L289.244992,179.408057 L282.808013,179.408057 L282.093072,181.181379 L285.707846,181.181379 L285.230801,182.499194 L281.498331,182.499194 L280.623122,184.501701 L286.982471,184.501701 L286.383973,186 L278,186 Z" id="Fill-61" fill="#E97E27"></path>
            <g id="Group" transform="translate(164.000000, 84.000000)" fill="#191919">
                <path d="M2.9688893,5.47759695 C1.6067387,5.46193189 0.474064871,4.29600389 0.523343538,2.9532845 C0.571151199,1.64860884 1.71118005,0.528184106 2.99978041,0.522949477 C4.34722096,0.518486688 5.48798532,1.67546322 5.47695278,3.03608553 C5.46592024,4.43698942 4.38105408,5.493262 2.9688893,5.47759695 M2.99978041,2.38220775e-05 C1.43977963,0.00825332233 0.0592414691,1.36290799 0.00187227519,2.94433304 C-0.0577034262,4.56753159 1.3125377,5.98111671 2.96226978,5.99976559 C4.67231306,6.01990639 5.986656,4.73984724 5.99989505,3.04205317 C6.01386959,1.39647597 4.63038942,-0.00666578193 2.99978041,2.38220775e-05" id="Fill-141"></path>
                <path d="M2.4065097,1.36865119 L3.65581717,1.36865119 C3.81024931,1.36865119 3.94598338,1.40094181 4.06163435,1.46619576 C4.17797784,1.53144971 4.26731302,1.62293979 4.32963989,1.74268416 C4.39404432,1.86041036 4.42520776,1.99899092 4.42520776,2.15438951 C4.42451524,2.31046081 4.39127424,2.44769593 4.32756233,2.56878574 C4.26454294,2.68583922 4.17451524,2.77800202 4.05886427,2.84258325 C3.9432133,2.9078372 3.80817175,2.94080054 3.65581717,2.94080054 L2.4065097,2.94080054 L2.4065097,1.36865119 Z M5,5 L4.04916898,3.24890683 C4.12257618,3.22737975 4.19252078,3.20114363 4.25831025,3.1654894 C4.43975069,3.07063572 4.57963989,2.93609149 4.6765928,2.76185671 C4.77839335,2.58694921 4.82756233,2.38446014 4.82756233,2.15438951 C4.82756233,1.92700975 4.77839335,1.72250252 4.6765928,1.54961319 C4.57963989,1.37403296 4.43975069,1.23948873 4.25969529,1.14463505 C4.07963989,1.04709048 3.86911357,1 3.63296399,1 L2.4065097,1 L2.25207756,1 L2,1 L2,5 L2.4065097,5 L2.4065097,3.30945173 L3.63296399,3.30945173 L3.63573407,3.30945173 L4.51315789,5 L5,5 Z" id="Fill-142"></path>
            </g>
        </g>
    </g>
</svg>