<?xml version="1.0" encoding="UTF-8"?>
<svg width="300px" height="250px" viewBox="0 0 300 250" version="1.1" xmlns="http://www.w3.org/2000/svg" xmlns:xlink="http://www.w3.org/1999/xlink">
    <!-- Generator: Sketch 63 (92445) - https://sketch.com -->
    <title>logo_8</title>
    <desc>Created with Sketch.</desc>
    <defs>
        <polygon id="path-1" points="0 0.571320095 42.3428968 0.571320095 42.3428968 50.9240453 0 50.9240453"></polygon>
    </defs>
    <g id="Page-1" stroke="none" stroke-width="1" fill="none" fill-rule="evenodd">
        <g id="logo_8">
            <g id="Group-83" transform="translate(25.000000, 80.000000)">
                <mask id="mask-2" fill="white">
                    <use xlink:href="#path-1"></use>
                </mask>
                <g id="Clip-82"></g>
                <path d="M30.5559,0.6291 C34.1199,0.9841 37.5939,1.7191 40.8869,3.1761 C41.3039,3.3591 41.7019,3.5901 42.1119,3.7931 C42.3349,3.9001 42.3969,4.0201 42.2959,4.2831 C41.7959,5.5861 41.4379,6.9301 41.1769,8.3011 C41.0199,9.1291 40.9079,9.9611 40.8209,10.7971 C40.7919,11.0741 40.7159,11.1901 40.4089,11.1951 C39.9789,11.2031 39.6789,11.1001 39.3889,10.7361 C38.4429,9.5531 37.3619,8.4941 36.1429,7.5881 C34.0199,6.0101 31.6379,5.1781 28.9949,4.9691 C25.8959,4.7251 23.0449,5.4141 20.4109,7.0251 C17.5879,8.7541 15.5749,11.2131 14.1399,14.1621 C12.9519,16.6061 12.2769,19.1971 11.9309,21.8871 C11.6439,24.1131 11.5739,26.3481 11.7219,28.5841 C11.9589,32.1491 12.7299,35.5701 14.5569,38.6901 C16.9169,42.7191 20.3979,45.2331 24.9619,46.1881 C28.4259,46.9101 31.7949,46.4491 35.0569,45.1311 C37.1819,44.2701 39.1339,43.1291 40.7609,41.4881 C40.9889,41.2601 41.1639,41.2601 41.3919,41.4381 C41.4519,41.4841 41.5199,41.5221 41.5839,41.5631 C41.9739,41.8071 41.9769,41.8091 41.8249,42.2211 C41.2059,43.8911 40.7159,45.5921 40.4939,47.3631 C40.4519,47.6991 40.3149,47.8971 40.0029,48.0471 C37.8799,49.0681 35.6589,49.7831 33.3479,50.2361 C30.5409,50.7871 27.7039,51.0021 24.8509,50.8991 C20.0009,50.7271 15.3509,49.7311 11.1189,47.2521 C5.4029,43.9041 1.9099,38.9491 0.5649,32.4751 C0.4059,31.7051 0.2849,30.9341 0.2099,30.1521 C0.1819,29.8611 -0.0001,28.9711 -0.0001,28.6521 L-0.0001,25.8991 C-0.0001,25.3751 0.0859,24.3871 0.1159,23.8521 C0.2639,21.1781 0.8559,18.5981 1.7669,16.0861 C2.9659,12.7771 4.8199,9.8891 7.3789,7.4651 C9.5869,5.3751 12.1359,3.8131 14.9519,2.6881 C17.5049,1.6681 20.1539,1.0021 22.8869,0.6911 C23.5499,0.6171 24.2179,0.5841 24.8869,0.5901 L25.2399,0.5901 L25.4999,0.5901 L25.8429,0.5901 C26.0349,0.5631 29.5939,0.5671 29.7449,0.5901 L29.9879,0.5901 C30.0689,0.5901 30.3139,0.6391 30.5559,0.6291" id="Fill-81" fill="#050101" mask="url(#mask-2)"></path>
            </g>
            <path d="M274.4807,130.0041 L263.0177,130.0041 C263.6267,121.8751 263.5907,113.7951 263.5897,105.7131 C263.5887,97.6491 263.6297,89.5821 263.0237,81.5431 C263.1357,81.4001 263.2787,81.4451 263.4047,81.4451 C267.0957,81.4431 270.7887,81.4451 274.4807,81.4471 L274.4807,83.1701 C274.4807,83.7751 274.4247,84.3441 274.4207,84.7681 C274.3927,88.0161 274.3627,91.2641 274.2867,94.5081 C274.1227,101.5411 274.2087,108.5741 274.2357,115.6081 C274.2467,118.4691 274.2707,121.3361 274.3747,124.1991 C274.4047,125.0201 274.4137,125.8401 274.4207,126.6601 C274.4267,127.1721 274.4297,127.6371 274.4807,128.1681 L274.4807,130.0041 Z" id="Fill-84" fill="#050101"></path>
            <path d="M50.4993,170.4093 C50.1883,169.8183 50.1843,168.9723 49.8883,168.3373 C49.8483,168.2513 49.7773,168.1753 49.8783,168.0443 C50.4713,168.1303 51.0823,168.2703 51.7103,168.2513 C51.9593,168.2433 52.2083,168.2493 52.4563,168.2333 C53.4563,168.1673 53.8123,167.7883 53.8123,166.7863 C53.8123,163.3253 53.8123,159.8613 53.8123,156.3983 C53.8123,155.7693 53.8953,155.8163 53.2283,155.8163 L31.4053,155.8163 C30.4593,155.8163 30.4503,155.7963 30.4343,154.8633 C30.4123,153.6283 30.5663,153.7793 31.4983,153.7793 L60.3263,153.7793 C60.4783,153.7793 60.6333,153.7723 60.7853,153.7813 C61.1783,153.8023 61.2853,153.9073 61.2993,154.3053 C61.3103,154.6303 61.3103,154.9563 61.2993,155.2803 C61.2853,155.7003 61.1773,155.8043 60.7333,155.8143 C60.3323,155.8253 59.9303,155.8163 59.5273,155.8163 C58.6083,155.8163 57.6893,155.8133 56.7713,155.8173 C56.1603,155.8203 56.2373,155.7393 56.2363,156.3783 C56.2323,157.9843 56.2353,159.5913 56.2353,161.1983 C56.2353,163.3413 56.2013,165.4833 56.2473,167.6263 C56.2763,169.0503 55.6913,169.7703 54.2123,170.1633 C54.0473,170.2083 53.4693,170.3373 53.0263,170.4093 L50.4993,170.4093 Z" id="Fill-86" fill="#060101"></path>
            <path d="M199.1575,97.3595 C198.9205,97.5485 198.8755,97.7405 198.7955,97.9065 C193.7095,108.4145 188.6485,118.9335 183.7395,129.5275 C183.5625,129.9085 183.3585,130.0255 182.9665,130.0055 C182.3925,129.9745 181.8165,129.9745 181.2445,130.0055 C180.9045,130.0235 180.7455,129.8965 180.6055,129.5955 C179.2885,126.7795 177.9595,123.9685 176.6285,121.1585 C173.0525,113.6075 169.4325,106.0765 165.7095,98.5975 C165.6265,98.4295 165.5385,98.2675 165.4535,98.1035 C165.2855,98.1835 165.3035,98.3125 165.2925,98.4125 C165.0825,100.0435 164.8655,101.6715 164.6775,103.3045 C164.4835,104.9745 164.3065,106.6485 164.1455,108.3225 C163.9645,110.2055 163.7985,112.0915 163.6435,113.9785 C163.4985,115.7505 163.3715,117.5235 163.2465,119.2965 C163.1015,121.3385 162.9675,123.3805 162.8305,125.4215 C162.7365,126.8145 162.6455,128.2075 162.5525,129.5995 C162.5385,129.8085 162.5505,130.0055 162.2215,130.0025 C160.1375,129.9905 158.0535,129.9965 155.9465,129.9965 C155.8615,129.5475 156.0185,129.1465 156.0915,128.7485 C156.8145,124.7465 157.4915,120.7345 158.1495,116.7205 C158.8205,112.6305 159.4525,108.5335 160.0535,104.4335 C160.6145,100.5955 161.1485,96.7545 161.6605,92.9105 C162.1525,89.2165 162.6045,85.5175 163.0605,81.8205 C163.0945,81.5275 163.1885,81.4355 163.4795,81.4375 C165.1645,81.4475 166.8485,81.4555 168.5325,81.4333795 C168.8975,81.4275 168.9635,81.6465 169.0745,81.8885 C171.5445,87.2405 174.0465,92.5785 176.6005,97.8885 C179.2625,103.4235 181.9745,108.9375 184.7855,114.4005 C184.8725,114.5685 184.9635,114.7365 185.0625,114.9255 C185.3065,114.7895 185.3565,114.5335 185.4665,114.3265 C188.9815,107.6815 192.3235,100.9495 195.5655,94.1685 C197.5145,90.0895 199.4215,85.9905 201.2845,81.8715 C201.4345,81.5395 201.5965,81.4295 201.9555,81.4333795 C203.6595,81.4535 205.3625,81.4415 207.0665,81.4435 C207.4905,81.4435 207.5035,81.4455 207.5515,81.8535 C207.7345,83.4085 207.9105,84.9665 208.0865,86.5235 C208.3015,88.4215 208.5125,90.3225 208.7275,92.2205 C208.9355,94.0645 209.1425,95.9045 209.3535,97.7465 C209.5605,99.5505 209.7685,101.3555 209.9805,103.1585 C210.1885,104.9235 210.4005,106.6875 210.6135,108.4515 C210.8215,110.1795 211.0265,111.9045 211.2445,113.6305 C211.4875,115.5645 211.7345,117.4985 211.9955,119.4295 C212.2715,121.4745 212.5555,123.5175 212.8545,125.5585 C213.0675,127.0115 213.3085,128.4635 213.5355,129.8945 C213.4135,130.0435 213.2705,129.9945 213.1465,129.9945 C209.5865,129.9985 206.0255,129.9985 202.4655,129.9965 C202.0005,129.9965 201.9935,129.9925 201.9655,129.5455 C201.8215,127.3325 201.6925,125.1175 201.5375,122.9045 C201.4205,121.2265 201.2785,119.5485 201.1365,117.8735 C200.9695,115.9105 200.8005,113.9495 200.6205,111.9885 C200.4605,110.2365 200.2875,108.4865 200.1155,106.7365 C199.9425,104.9665 199.7655,103.1975 199.5865,101.4295 C199.4505,100.1015 199.3065,98.7735 199.1575,97.3595" id="Fill-88" fill="#050101"></path>
            <path d="M108.762,81.4728 L120.272,81.4728 C120.21,82.6268 120.157,83.7518 120.09,84.8748 C119.802,89.8228 119.738,94.7738 119.741,99.7288 C119.749,105.5798 119.737,111.4338 119.775,117.2868 C119.794,120.3088 119.896,123.3278 120.078,126.3438 C120.142,127.3948 120.193,128.4458 120.252,129.4938 C120.281,129.9928 120.283,129.9958 119.784,129.9958 C116.377,129.9978 112.97,129.9958 109.563,129.9958 C109.391,129.9958 109.217,129.9848 109.046,129.9998 C108.792,130.0238 108.714,129.9178 108.731,129.6698 C108.784,128.8688 108.819,128.0688 108.868,127.2658 C109.071,124.0588 109.159,120.8478 109.217,117.6348 C109.279,114.1568 109.27,110.6738 109.273,107.1938 C109.273,107.0608 109.266,106.9258 109.274,106.7908 C109.286,106.5778 109.209,106.4668 108.98,106.4868 C108.866,106.4938 108.75,106.4868 108.635,106.4868 L88.537,106.4868 L88.365,106.4868 C87.934,106.4938 87.927,106.4938 87.927,106.9238 C87.926,112.2018 87.893,117.4828 88.1,122.7578 C88.19,125.0318 88.33,127.3028 88.449,129.5748 C88.47,129.9868 88.472,129.9938 88.071,129.9958 C84.491,129.9978 80.911,129.9978 77.332,129.9958 C76.914,129.9938 76.905,129.9868 76.925,129.5368 C76.959,128.8128 77.005,128.0858 77.051,127.3618 C77.253,124.1178 77.343,120.8678 77.402,117.6178 C77.509,111.7068 77.476,105.7968 77.468,99.8888 C77.461,95.0118 77.38,90.1348 77.134,85.2658 C77.076,84.1188 76.998,82.9748 76.916,81.8298 C76.895,81.5408 76.964,81.4358 77.281,81.4358 C80.937,81.4478 84.592,81.4438 88.248,81.4458 C88.303,81.4458 88.359,81.4628 88.462,81.4808 C88.434,82.2758 88.412,83.0688 88.376,83.8618 C88.13,89.2868 87.943,94.7128 87.926,100.1468 C87.924,100.7658 87.926,100.7658 88.521,100.7658 L108.618,100.7658 L108.79,100.7658 C109.265,100.7578 109.274,100.7578 109.271,100.3048 C109.261,98.3728 109.258,96.4418 109.228,94.5098 C109.199,92.6178 109.168,90.7248 109.094,88.8318 C109.009,86.6718 108.912,84.5158 108.765,82.3598 C108.745,82.0768 108.762,81.7908 108.762,81.4728" id="Fill-90" fill="#050101"></path>
            <path d="M224.5256,129.9982 C225.1146,121.8712 225.0956,113.8012 225.0956,105.7302 C225.0956,97.6582 225.1156,89.5882 224.5326,81.5352 C224.6576,81.3872 224.8206,81.4452 224.9626,81.4452 C233.7506,81.4412 242.5366,81.4412 251.3236,81.4432 C251.8056,81.4432 251.8116,81.4472 251.8126,81.8912 C251.8156,83.6312 251.8156,85.3732 251.8126,87.1112 C251.8116,87.5512 251.8046,87.5642 251.3746,87.5412 C249.5986,87.4372 247.8246,87.3282 246.0476,87.2192 C245.3046,87.1742 244.5586,87.1442 243.8146,87.1022 C241.8096,86.9802 239.8016,86.9142 237.7956,86.8222 C237.2036,86.7972 236.6116,86.7562 236.0186,86.7362 C235.5466,86.7212 235.5446,86.7322 235.5416,87.1842 C235.5386,87.7952 235.5406,88.4062 235.5406,89.0192 L235.5406,101.3012 C235.5406,101.3962 235.5396,101.4922 235.5416,101.5882 C235.5466,102.0182 235.5466,102.0212 235.9806,102.0182 C238.4656,101.9902 240.9526,101.8912 243.4366,101.7772 C245.4986,101.6862 247.5596,101.5862 249.6176,101.4902 C249.7096,101.5922 249.6876,101.7112 249.6876,101.8222 C249.6886,103.5842 249.6876,105.3442 249.6896,107.1032 C249.6896,107.5352 249.7126,107.5492 249.2486,107.5162 C247.7616,107.4022 246.2746,107.2952 244.7876,107.1932 C244.0046,107.1412 243.2216,107.0842 242.4376,107.0642 C240.3346,107.0162 238.2316,106.8872 236.1256,106.9322 C235.4636,106.9432 235.5426,106.8522 235.5426,107.5042 C235.5396,112.0572 235.5406,116.6092 235.5406,121.1642 C235.5406,122.2152 235.5466,123.2682 235.5356,124.3182 C235.5326,124.6032 235.5966,124.7302 235.9146,124.7132 C237.9006,124.6032 239.8926,124.6722 241.8796,124.5332 C242.7366,124.4752 243.5976,124.4652 244.4576,124.4102 C246.3076,124.2932 248.1566,124.1582 249.9986,123.9492 C250.4926,123.8932 250.9886,123.8612 251.4816,123.8052 C251.7316,123.7752 251.8246,123.8592 251.8176,124.1152 C251.8036,124.6312 251.8136,125.1482 251.8136,125.6642 C251.8136,126.8712 251.8156,128.0742 251.8126,129.2792 C251.8106,130.1312 251.8836,129.9942 251.0676,129.9962 C246.7416,130.0002 242.4146,129.9982 238.0886,129.9982 L225.1676,129.9982 L224.5256,129.9982 Z" id="Fill-92" fill="#050101"></path>
            <path d="M133.0598,129.9689 C133.7688,113.7909 133.7698,97.6559 133.0608,81.4829 L144.5138,81.4829 C144.6138,81.5589 144.5608,81.6819 144.5528,81.7869 C144.1258,87.7619 144.0058,93.7459 144.0018,99.7329 C143.9988,104.4399 143.9828,109.1449 144.0078,113.8519 C144.0298,117.7719 144.1058,121.6919 144.3168,125.6079 C144.3878,126.9259 144.4478,128.2439 144.5488,129.5589 C144.5808,129.9849 144.5748,129.9959 144.1838,129.9959 C140.5268,129.9979 136.8708,129.9959 133.2138,129.9939 C133.1598,129.9939 133.1048,129.9769 133.0598,129.9689" id="Fill-94" fill="#050101"></path>
            <path d="M183.675,152.4923 C184.242,153.1403 184.76,153.7503 185.3,154.3423 C186.038,155.1513 186.651,156.0493 187.174,157.0083 C187.421,157.4613 187.405,157.3693 187.757,157.1453 C189.467,156.0573 191.133,154.9053 192.696,153.6103 C192.859,153.4773 193.029,153.3593 193.215,153.2583 C193.636,153.0253 194.03,153.0023 194.445,153.2993 C194.957,153.6633 195.498,153.9893 196.02,154.3423 C196.176,154.4483 196.32,154.5813 196.449,154.7193 C196.584,154.8603 196.564,155.0323 196.489,155.2013 C196.415,155.3713 196.271,155.4013 196.111,155.3933 C195.977,155.3883 195.837,155.3933 195.71,155.3603 C195.166,155.2103 194.698,155.4033 194.247,155.6693 C192.436,156.7373 190.686,157.8973 188.924,159.1003 C189.312,159.7703 189.794,160.3583 190.295,160.9273 C192.672,163.6313 195.613,165.4773 199.011,166.6223 C199.066,166.6413 199.127,166.6453 199.175,166.6733 C199.316,166.7553 199.548,166.7013 199.593,166.9193 C199.639,167.1393 199.482,167.2703 199.324,167.3883 C198.863,167.7273 198.404,168.0753 198.021,168.5063 C197.844,168.7053 197.677,168.6663 197.46,168.5843 C194.724,167.5503 192.308,166.0183 190.233,163.9543 C189.828,163.5533 189.442,163.1333 188.982,162.6533 C188.956,163.1283 188.938,163.5183 188.912,163.9093 C188.834,165.1253 188.509,166.2723 187.97,167.3663 C187.48,168.3603 186.686,169.0203 185.693,169.4463 C184.594,169.9153 183.429,170.1203 182.238,170.1613 C181.636,170.1823 181.607,170.1243 181.429,169.5203 C181.273,168.9893 181.057,168.4793 180.73,168.0223 C180.634,167.8893 180.466,167.7783 180.584,167.5733 C180.712,167.3523 180.922,167.4143 181.097,167.4513 C182.076,167.6593 183.04,167.5143 183.991,167.3053 C185.018,167.0783 185.695,166.4443 186.072,165.4503 C186.483,164.3663 186.575,163.2603 186.489,162.1233 C186.478,161.9733 186.48,161.8153 186.35,161.6593 C185.83,162.0343 185.295,162.3893 184.792,162.7883 C181.743,165.2033 178.265,166.7783 174.615,168.0243 C173.751,168.3193 172.885,168.6063 172.003,168.8503 C171.57,168.9713 171.296,168.8953 171.036,168.5133 C170.816,168.1843 170.495,167.9223 170.216,167.6343 C170.096,167.5103 169.96,167.4013 169.848,167.2723 C169.605,166.9953 169.626,166.9303 169.984,166.8483 C171.968,166.3883 173.946,165.9013 175.877,165.2413 C179.461,164.0203 182.704,162.2103 185.503,159.6383 C185.705,159.4513 185.765,159.3133 185.641,159.0593 C185.322,158.4073 185.01,157.7543 184.616,157.1023 C184.063,157.5163 183.512,157.9133 182.977,158.3303 C180.399,160.3363 177.474,161.6623 174.409,162.7183 C173.617,162.9913 172.821,163.2503 172.013,163.4713 C171.672,163.5653 171.425,163.5073 171.227,163.2043 C170.943,162.7683 170.535,162.4403 170.179,162.0673 C170.086,161.9713 169.981,161.8853 169.902,161.7783 C169.789,161.6283 169.779,161.5113 170.016,161.4583 C170.667,161.3153 171.315,161.1553 171.962,161.0013 C174.565,160.3813 177.084,159.5343 179.453,158.2703 C180.55,157.6843 182.32,156.4193 183.379,155.4143 C182.941,154.8993 182.492,154.3893 182.063,153.8623 C181.882,153.6413 181.748,153.7633 181.582,153.8623 C180.258,154.6603 178.889,155.3743 177.471,155.9913 C175.741,156.7443 173.969,157.3803 172.162,157.9273 C171.832,158.0263 171.563,158.0053 171.309,157.7943 C170.912,157.4633 170.517,157.1313 170.134,156.7843 C169.83,156.5083 169.867,156.3883 170.279,156.2823 C172.942,155.6003 175.54,154.7433 178.017,153.5363 C179.308,152.9083 180.52,152.1523 181.723,151.3303 C181.599,151.1803 181.44,151.2443 181.308,151.2423 C179.126,151.2383 176.945,151.2403 174.761,151.2403 C174.103,151.2403 174.047,151.1833 174.037,150.5253 C174.033,150.2583 174.024,149.9883 174.044,149.7223 C174.071,149.3693 174.154,149.3013 174.507,149.2833 C174.621,149.2773 174.737,149.2833 174.851,149.2833 L193.458,149.2833 C193.535,149.2833 193.613,149.2813 193.689,149.2833 C194.174,149.2913 194.262,149.3633 194.284,149.8323 C194.299,150.1383 194.303,150.4453 194.279,150.7503 C194.244,151.1383 194.129,151.2363 193.725,151.2383 C192.558,151.2443 191.39,151.2403 190.222,151.2403 C188.767,151.2403 187.312,151.2483 185.858,151.2343 C185.535,151.2303 185.271,151.2973 185.016,151.5023 C184.601,151.8383 184.158,152.1383 183.675,152.4923" id="Fill-96" fill="#050101"></path>
            <path d="M110.0491,144.7033 C109.5061,143.9673 108.9241,143.4223 108.3021,142.9163 C107.9341,142.6173 107.9271,142.5603 108.3241,142.3123 C108.7291,142.0603 109.1571,141.8493 109.5741,141.6193 C109.7631,141.5153 109.9051,141.5433 110.0741,141.6933 C110.9761,142.4983 111.8381,143.3403 112.5121,144.3493 C112.6761,144.5963 112.8351,144.7153 113.1501,144.7113 C114.8151,144.6933 116.4801,144.6993 118.1451,144.7073 C118.4071,144.7093 118.6151,144.6463 118.8181,144.4733 C119.7751,143.6443 120.7081,142.8013 121.2871,141.6423 C121.4761,141.2643 121.5771,141.2383 121.9691,141.3793 C122.5251,141.5783 123.0761,141.7853 123.6301,141.9923 C123.7191,142.0253 123.8101,142.0583 123.8921,142.1053 C124.0591,142.2013 124.2531,142.3083 124.2151,142.5293 C124.1791,142.7343 123.9771,142.7443 123.8011,142.7503 C123.5361,142.7623 123.3321,142.8673 123.1781,143.0923 C122.8091,143.6273 122.3781,144.1153 121.9501,144.6113 C122.0641,144.7733 122.2301,144.6993 122.3651,144.6993 C124.3371,144.7053 126.3081,144.7033 128.2781,144.7033 C128.7081,144.7033 129.1401,144.6523 129.1681,145.2053 C129.1861,145.5493 129.1861,145.8943 129.1671,146.2383 C129.1381,146.7833 128.6381,146.7423 128.2061,146.7423 L117.2401,146.7423 C117.1071,146.7423 116.9721,146.7503 116.8391,146.7403 C116.6301,146.7243 116.5281,146.7773 116.5321,147.0213 C116.5471,147.7463 116.5411,148.4743 116.5351,149.2013 C116.5341,149.4063 116.5791,149.5333 116.8211,149.5063 C116.9541,149.4903 117.0901,149.5023 117.2241,149.5023 L126.1811,149.5023 C126.3331,149.5023 126.4861,149.5063 126.6401,149.5043 C126.8761,149.5043 126.9971,149.6333 127.0011,149.8573 C127.0101,150.2773 127.0111,150.6993 127.0011,151.1193 C126.9951,151.3773 126.8371,151.4883 126.5861,151.4823 C126.4331,151.4803 126.2781,151.4843 126.1261,151.4843 L117.1701,151.4843 C117.0361,151.4843 116.9021,151.4903 116.7681,151.4823 C116.5911,151.4743 116.5361,151.5623 116.5371,151.7243 C116.5401,152.6623 116.5421,153.5993 116.5351,154.5363 C116.5341,154.7493 116.6391,154.7953 116.8201,154.7843 C116.9541,154.7763 117.0881,154.7833 117.2221,154.7833 C121.3411,154.7833 125.4491,154.7393 129.5671,154.7833 C130.1771,154.7893 130.2101,154.8213 130.2181,155.4403 C130.2221,155.7273 130.2301,156.0153 130.2131,156.3013 C130.1921,156.6493 130.1011,156.7313 129.7601,156.7523 C129.6461,156.7603 129.5301,156.7543 129.4151,156.7543 L101.3401,156.7543 C101.2261,156.7543 101.1111,156.7473 100.9961,156.7553 C100.7121,156.7743 100.5521,156.6403 100.5431,156.3623 C100.5281,155.9623 100.5281,155.5593 100.5441,155.1603 C100.5531,154.9173 100.6891,154.7743 100.9511,154.7833 C101.1051,154.7883 101.2581,154.7833 101.4101,154.7833 L113.2951,154.7833 C113.4101,154.7833 113.5251,154.7853 113.6401,154.7823 C114.0691,154.7743 114.0741,154.7743 114.0771,154.3363 C114.0821,153.5523 114.0811,152.7693 114.0781,151.9843 C114.0761,151.4883 114.0711,151.4843 113.5811,151.4843 L104.5101,151.4843 C103.5741,151.4843 103.5741,151.4843 103.5731,150.5743 C103.5711,149.5023 103.5711,149.5023 104.6281,149.5023 L113.4121,149.5023 C113.5461,149.5023 113.6801,149.4983 113.8141,149.5043 C113.9731,149.5103 114.0751,149.4553 114.0751,149.2853 C114.0761,148.5003 114.0751,147.7173 114.0741,146.9323 C114.0731,146.7813 113.9761,146.7423 113.8471,146.7423 L113.3881,146.7423 L102.4211,146.7423 C102.2871,146.7423 102.1531,146.7463 102.0201,146.7403 C101.5871,146.7173 101.4731,146.6153 101.4481,146.1953 C101.4321,145.9103 101.4371,145.6213 101.4451,145.3343 C101.4621,144.7893 101.5461,144.7053 102.0901,144.7033 C103.7741,144.7013 105.4581,144.7033 107.1421,144.7033 L110.0491,144.7033 Z" id="Fill-98" fill="#050101"></path>
            <path d="M253.3313,142.1955 L264.7013,142.1955 L265.1023,142.1955 C265.3383,142.1955 265.4673,142.3245 265.4733,142.5435 C265.4843,142.9255 265.4813,143.3085 265.4673,143.6915 C265.4593,143.9085 265.3493,144.0475 265.1043,144.0355 C264.9513,144.0295 264.7983,144.0375 264.6443,144.0375 L255.2273,144.0375 C255.0933,144.0375 254.9583,144.0435 254.8243,144.0375 C254.6473,144.0295 254.5913,144.1235 254.5913,144.2835 C254.5933,144.7995 254.5943,145.3165 254.5913,145.8325 C254.5913,146.0065 254.6753,146.0685 254.8403,146.0605 C254.9733,146.0545 255.1073,146.0585 255.2413,146.0585 C259.2233,146.0585 263.2053,146.0585 267.1863,146.0605 C268.0403,146.0605 268.04155,146.0605 268.04155,146.9275 C268.04155,148.5915 268.0423,150.2565 268.0403,151.9205 C268.0403,152.5915 267.9713,152.6665 267.2853,152.6815 C266.9033,152.6895 266.5193,152.6975 266.1383,152.6685 C265.6513,152.6335 265.5873,152.5525 265.5843,152.0645 C265.5773,150.9555 265.5823,149.8455 265.5823,148.7365 C265.5823,148.6015 265.5843,148.4685 265.5813,148.3345 C265.5733,147.9045 265.5723,147.8985 265.1383,147.8985 C261.7693,147.8965 258.3993,147.8965 255.0303,147.8965 C254.5833,147.8965 254.5903,147.8535 254.5903,148.3265 C254.5923,150.2975 254.5913,152.2675 254.5913,154.2365 C254.5913,154.3705 254.5923,154.5055 254.5893,154.6375 C254.5833,154.8915 254.4533,155.0335 254.1993,155.0355 C253.6253,155.0415 253.0513,155.0575 252.4773,155.0305 C252.1433,155.0145 252.0923,154.9185 252.0913,154.4675 C252.0873,153.0525 252.0903,151.6365 252.0903,150.2225 C252.0903,149.5705 252.0733,148.9205 252.0973,148.2715 C252.1073,147.9655 252.0063,147.8885 251.7113,147.8905 C249.7583,147.9025 247.8063,147.8965 245.8523,147.8965 C244.3213,147.8965 242.7903,147.8985 241.2593,147.8965 C240.8183,147.8965 240.8223,147.8595 240.8233,148.3325 C240.8263,149.5565 240.8263,150.7815 240.8233,152.0065 C240.8223,152.5625 240.7553,152.6465 240.2163,152.6755 C239.7973,152.6975 239.3733,152.6975 238.9543,152.6725 C238.4363,152.6385 238.3643,152.5525 238.3613,152.0375 C238.3553,150.6975 238.3593,149.3595 238.3593,148.0195 C238.3593,147.5415 238.3503,147.0625 238.3633,146.5865 C238.3763,146.1585 238.4543,146.0885 238.8723,146.0625 C239.0243,146.0525 239.1793,146.0605 239.3313,146.0605 C243.3703,146.0585 247.4093,146.0585 251.4483,146.0585 C251.5833,146.0585 251.7173,146.0525 251.8513,146.0605 C252.0203,146.0705 252.0913,145.9945 252.0903,145.8265 C252.0873,145.3105 252.0863,144.7935 252.0903,144.2775 C252.0913,144.1115 252.0253,144.0295 251.8523,144.0375 C251.7203,144.0435 251.5853,144.0375 251.4513,144.0375 L242.0333,144.0375 C241.8803,144.0375 241.7273,144.0295 241.5743,144.0375 C241.3333,144.0495 241.2103,143.9125 241.1993,143.6975 C241.1813,143.3165 241.1793,142.9335 241.1893,142.5505 C241.1953,142.3325 241.3263,142.2015 241.5583,142.1975 C241.7113,142.1935 241.8643,142.1955 242.0183,142.1955 L253.3313,142.1955 Z" id="Fill-100" fill="#050101"></path>
            <path d="M112.762,162.0343 L112.138,162.0343 L102.721,162.0343 C102.587,162.0343 102.453,162.0263 102.32,162.0353 C102.038,162.0523 101.871,161.9133 101.858,161.6433 C101.838,161.2433 101.841,160.8413 101.857,160.4403 C101.866,160.1963 102.018,160.0613 102.266,160.0503 C102.456,160.0413 102.648,160.0363 102.839,160.0363 C106.227,160.0353 109.614,160.0363 113.001,160.0363 C113.135,160.0363 113.27,160.0283 113.404,160.0373 C113.633,160.0553 113.747,159.9633 113.799,159.7293 C113.907,159.2433 113.99,158.7563 114.014,158.2583 C114.042,157.6773 114.215,157.5523 114.812,157.6433 C115.434,157.7393 116.058,157.8213 116.681,157.9103 C116.738,157.9193 116.799,157.9133 116.851,157.9343 C117.003,158.0003 117.226,157.9723 117.289,158.1613 C117.36,158.3753 117.197,158.5283 117.042,158.6293 C116.547,158.9523 116.679,159.5133 116.462,159.9643 C116.7,160.0803 116.913,160.0333 117.114,160.0333 C120.731,160.0373 124.348,160.0353 127.965,160.0363 C128.879,160.0363 128.878,160.0473 128.892,160.9653 C128.912,162.2923 128.765,162.0283 127.838,162.0303 C124.546,162.0393 121.255,162.0343 117.963,162.0343 L117.361,162.0343 C117.389,162.2723 117.56,162.3783 117.68,162.5083 C119.387,164.3583 121.499,165.5953 123.824,166.4873 C125.608,167.1743 127.46,167.6083 129.349,167.8953 C129.706,167.9503 130.069,167.9813 130.424,168.0493 C130.788,168.1193 130.866,168.2703 130.667,168.5613 C130.29,169.1103 129.825,169.5963 129.464,170.1613 C129.374,170.3023 129.204,170.3113 129.045,170.2743 C126.387,169.6713 123.759,168.9733 121.273,167.8233 C119.012,166.7783 117.114,165.2723 115.542,163.3463 C115.425,163.2043 115.339,163.0263 115.13,162.9243 C115.008,163.0963 114.888,163.2613 114.774,163.4303 C113.828,164.8383 112.594,165.9173 111.119,166.7553 C108.172,168.4293 105.012,169.4963 101.697,170.1393 C101.316,170.2133 100.967,170.1173 100.743,169.7723 C100.471,169.3543 100.138,168.9873 99.812,168.6103 C99.491,168.2413 99.564,168.0673 100.063,167.9963 C102.294,167.6773 104.475,167.1433 106.597,166.3893 C108.204,165.8193 109.738,165.0973 111.041,163.9673 C111.474,163.5933 111.871,163.1753 112.265,162.7593 C112.445,162.5693 112.624,162.3663 112.762,162.0343" id="Fill-102" fill="#050101"></path>
            <path d="M47.9436,146.2033 C48.5466,146.8653 49.1516,147.3493 49.7916,147.7953 C51.7676,149.1723 53.9736,149.9593 56.3396,150.3423 C57.1316,150.4733 57.9266,150.5603 58.7306,150.5863 C59.0306,150.5963 59.0626,150.6823 58.8816,150.9263 C58.5156,151.4203 58.2396,151.9653 57.9706,152.5123 C57.7536,152.9573 57.6336,153.0413 57.1286,152.9333 C56.4766,152.7953 55.8236,152.6583 55.1786,152.4923 C53.6086,152.0883 52.0556,151.6193 50.6236,150.8443 C48.8456,149.8813 47.2466,148.6803 45.8926,147.1683 C45.8166,147.0823 45.7406,146.9983 45.6366,146.8813 C45.4856,147.0803 45.3476,147.2523 45.2216,147.4303 C44.6276,148.2673 43.8966,148.9693 43.0316,149.5143 C41.5766,150.4263 40.0876,151.2833 38.4736,151.8923 C37.2596,152.3513 35.9926,152.6293 34.7376,152.9433 C34.3346,153.0433 33.9826,152.9183 33.7426,152.5473 C33.5126,152.1953 33.2336,151.8793 32.9496,151.5683 C32.8396,151.4473 32.6726,151.3283 32.7626,151.1333 C32.8436,150.9573 33.0256,150.9323 33.2006,150.9103 C34.1676,150.7953 35.1176,150.5903 36.0506,150.3223 C37.4426,149.9223 38.8176,149.4743 40.1106,148.8103 C41.2586,148.2193 42.3056,147.4943 43.1506,146.5043 C43.2096,146.4353 43.2976,146.3793 43.2756,146.2033 L42.8006,146.2033 L34.8186,146.2033 C34.6656,146.2033 34.5116,146.1993 34.3596,146.2013 C34.1056,146.2053 33.9626,146.0843 33.9426,145.8303 C33.9106,145.4123 33.9066,144.9903 33.9456,144.5703 C33.9646,144.3463 34.0956,144.2283 34.3246,144.2263 C34.4776,144.2243 34.6306,144.2233 34.7836,144.2233 C37.8656,144.2233 40.9476,144.2243 44.0296,144.2233 C44.5666,144.2233 44.5736,144.2233 44.7536,143.7053 C44.9746,143.0723 45.1026,142.4183 45.1106,141.7423 C45.1176,141.1013 45.2916,140.9743 45.9186,141.0863 C46.5006,141.1913 47.0856,141.2773 47.6696,141.3693 C47.7626,141.3853 47.8616,141.3853 47.9516,141.4123 C48.2596,141.5083 48.2976,141.6913 48.0526,141.9023 C47.9676,141.9743 47.8606,142.0233 47.7616,142.0803 C47.6266,142.1603 47.5006,142.2583 47.4606,142.4123 C47.3056,142.9983 47.1656,143.5883 47.0196,144.1763 C47.2656,144.2543 47.4776,144.2213 47.6856,144.2213 C50.8056,144.2243 53.9256,144.2233 57.0466,144.2233 C57.1986,144.2233 57.3516,144.2283 57.5056,144.2233 C57.7836,144.2133 57.9486,144.3423 57.9576,144.6193 C57.9686,145.0213 57.9706,145.4243 57.9546,145.8243 C57.9456,146.0683 57.7976,146.2033 57.5426,146.2013 C57.3886,146.1993 57.2356,146.2033 57.0836,146.2033 L47.9436,146.2033 Z" id="Fill-104" fill="#050101"></path>
            <path d="M184.092,146.5998 L172.613,146.5998 L172.326,146.5998 C171.731,146.6038 171.793,146.5588 171.792,147.1138 C171.791,148.2798 171.792,149.4458 171.792,150.6118 C171.792,150.7268 171.792,150.8398 171.791,150.9548 C171.788,151.2128 171.644,151.3478 171.399,151.3518 C170.863,151.3618 170.327,151.3598 169.792,151.3538 C169.517,151.3498 169.374,151.2018 169.376,150.9178 C169.38,150.4398 169.377,149.9608 169.377,149.4848 C169.377,148.1468 169.388,146.8088 169.372,145.4688 C169.364,144.7878 169.376,144.5748 170.241,144.5768 C174.221,144.5898 178.2,144.5818 182.18,144.5818 C182.821,144.5818 182.822,144.5818 182.822,143.9568 C182.822,143.3088 182.82,142.6568 182.823,142.0058 C182.826,141.5338 182.921,141.4198 183.368,141.3948 C184.059,141.3558 184.743,141.4518 185.427,141.5218 C185.598,141.5388 185.848,141.5628 185.886,141.7928 C185.924,142.0218 185.792,142.2018 185.562,142.2698 C185.305,142.3418 185.255,142.5548 185.248,142.7598 C185.231,143.2948 185.243,143.8298 185.236,144.3658 C185.234,144.5528 185.334,144.5878 185.488,144.5838 C185.622,144.5788 185.756,144.5818 185.89,144.5818 L197.828,144.5818 C197.962,144.5818 198.096,144.5788 198.23,144.5838 C198.715,144.6038 198.788,144.6718 198.789,145.1638 C198.793,147.0388 198.791,148.9128 198.791,150.7868 C198.791,150.8438 198.789,150.9008 198.79,150.9568 C198.793,151.2208 198.647,151.3498 198.402,151.3518 C197.865,151.3618 197.329,151.3708 196.795,151.3498 C196.465,151.3338 196.38,151.2068 196.378,150.8008 C196.372,149.6718 196.376,148.5428 196.376,147.4158 C196.376,146.5998 196.376,146.5998 195.571,146.5998 L184.092,146.5998 Z" id="Fill-106" fill="#060101"></path>
            <path d="M246.3196,151.3556 C245.2516,151.3556 244.1816,151.3576 243.1136,151.3536 C242.5766,151.3536 242.5446,151.3286 242.5466,150.8186 C242.5516,149.3966 242.3936,149.6466 243.7186,149.6366 C245.5896,149.6236 247.4606,149.6326 249.3306,149.6326 C249.4446,149.6326 249.5596,149.6286 249.6736,149.6346 C250.0826,149.6486 250.1146,149.6796 250.1276,150.1076 C250.1336,150.3356 250.1316,150.5646 250.1286,150.7946 C250.1206,151.3206 250.0946,151.3516 249.5836,151.3536 C248.4956,151.3576 247.4076,151.3556 246.3196,151.3556" id="Fill-108" fill="#070504"></path>
            <path d="M260.3606,154.4679 C259.2906,154.4679 258.2186,154.4699 257.1476,154.4679 C256.5646,154.4659 256.5626,154.4619 256.5576,153.9059 C256.5546,153.6379 256.5596,153.3709 256.5586,153.1039 C256.5576,152.8669 256.6776,152.7519 256.9096,152.7479 C257.0236,152.7459 257.1386,152.7479 257.2536,152.7479 L263.4506,152.7479 C263.5276,152.7479 263.6036,152.7439 263.6796,152.7479 C264.0436,152.7679 264.1216,152.8339 264.1376,153.1819 C264.1516,153.4679 264.1506,153.7549 264.1376,154.0419 C264.1216,154.4189 264.0826,154.4599 263.6896,154.4659 C262.9436,154.4739 262.1976,154.4679 261.4516,154.4679 L260.3606,154.4679 Z" id="Fill-110" fill="#060202"></path>
            <path d="M246.3625,154.4679 C245.2715,154.4679 244.1805,154.4709 243.0915,154.4669 C242.5655,154.4639 242.5525,154.4469 242.5445,153.9129 C242.5415,153.7019 242.5405,153.4909 242.5455,153.2829 C242.5555,152.8009 242.5965,152.7559 243.0675,152.7479 C243.5655,152.7419 244.0625,152.7479 244.5595,152.7479 C246.1855,152.7479 247.8125,152.7459 249.4385,152.7479 C250.1215,152.7479 250.1325,152.7519 250.1275,153.4039 C250.1205,154.6319 250.2675,154.4559 249.0595,154.4669 C248.1605,154.4739 247.2605,154.4679 246.3625,154.4679" id="Fill-112" fill="#060202"></path>
            <path d="M260.3752,151.3556 C259.2832,151.3556 258.1922,151.3576 257.1032,151.3536 C256.5782,151.3516 256.5642,151.3346 256.5582,150.7986 C256.5552,150.5876 256.5542,150.3766 256.5582,150.1686 C256.5652,149.6466 256.5752,149.6406 257.1212,149.6326 L257.2362,149.6326 L263.4382,149.6326 C263.5532,149.6326 263.6682,149.6366 263.7832,149.6326 C264.0252,149.6266 264.1332,149.7596 264.1372,149.9846 C264.1442,150.2936 264.1502,150.5976 264.1392,150.9026 C264.1242,151.2916 264.0632,151.3516 263.6482,151.3536 C262.5572,151.3596 261.4662,151.3556 260.3752,151.3556" id="Fill-114" fill="#070404"></path>
            <path d="M255.0354,161.4289 C255.3784,161.4489 255.7224,161.4339 256.0674,161.4339 C258.0164,161.4339 259.9664,161.4329 261.9154,161.4349 C262.3154,161.4359 262.3184,161.4429 262.3224,161.8349 C262.3274,162.2159 262.3214,162.5989 262.3244,162.9809 C262.3274,163.4519 262.3434,163.4229 261.8984,163.4229 C260.7904,163.4209 259.6814,163.4209 258.5734,163.4209 C257.4274,163.4209 256.2804,163.4229 255.1344,163.4209 C254.7314,163.4189 254.7274,163.4129 254.7234,163.0219 C254.7204,162.6019 254.7344,162.1809 254.7184,161.7609 C254.7094,161.5199 254.7754,161.4149 255.0354,161.4289 M255.1174,157.8059 C257.3944,157.8159 259.6714,157.8179 261.9484,157.8039 C262.2664,157.8019 262.3434,157.9149 262.3284,158.2019 C262.3094,158.5649 262.3224,158.9289 262.3244,159.2919 C262.3264,159.7589 262.3534,159.7359 261.9014,159.7349 C259.6434,159.7319 257.3854,159.7409 255.1274,159.7339 C254.7304,159.7319 254.7274,159.7259 254.7234,159.3289 C254.7204,158.9479 254.7414,158.5639 254.7174,158.1829 C254.6964,157.8659 254.8324,157.8039 255.1174,157.8059 M252.3744,158.3389 C252.3694,158.7939 252.3734,159.2469 252.3734,159.7179 L244.3504,159.7179 C244.3504,159.1469 244.3484,158.5829 244.3514,158.0209 C244.3524,157.8889 244.4264,157.8129 244.5664,157.8129 C244.6614,157.8139 244.7574,157.8109 244.8524,157.8109 C247.1824,157.8109 249.5134,157.8109 251.8434,157.8119 C252.3094,157.8119 252.3814,157.6959 252.3744,158.3389 M252.3714,163.0069 C252.3664,163.4109 252.3634,163.4189 251.9654,163.4209 C250.7604,163.4249 249.5554,163.4209 248.3484,163.4209 C247.1444,163.4209 245.9394,163.4129 244.7344,163.4269 C244.4494,163.4309 244.3204,163.3699 244.3414,163.0539 C244.3684,162.6539 244.3454,162.2509 244.3484,161.8499 C244.3524,161.4439 244.3554,161.4369 244.7454,161.4359 C245.5874,161.4309 246.4294,161.4339 247.2704,161.4339 C248.8194,161.4339 250.3694,161.4329 251.9184,161.4349 C252.3634,161.4359 252.3664,161.4409 252.3714,161.8609 C252.3764,162.2429 252.3764,162.6259 252.3714,163.0069 M268.9724,165.4989 C268.4284,165.2469 267.9604,164.8919 267.5314,164.4399 C267.3574,164.6089 267.3534,164.7919 267.2984,164.9499 C267.1144,165.4739 266.9184,165.9879 266.6824,166.4909 C266.4254,167.0479 265.9914,167.3509 265.4014,167.4129 C264.8894,167.4679 264.3784,167.5379 263.8584,167.5359 C261.4294,167.5299 258.9984,167.5309 256.5684,167.5359 C256.2584,167.5379 255.9574,167.4909 255.6604,167.4229 C255.1104,167.2979 254.7774,166.9309 254.7314,166.3969 C254.7064,166.0929 254.7284,165.7839 254.7214,165.4799 C254.7174,165.3109 254.7844,165.2349 254.9554,165.2429 C255.0894,165.2489 255.2224,165.2429 255.3564,165.2429 L263.9684,165.2429 C264.1394,165.2429 264.3144,165.2549 264.4834,165.2289 C264.6904,165.1969 264.8284,165.0739 264.8284,164.8409 C264.8284,164.7079 264.8304,164.5739 264.8304,164.4399 L264.8304,156.9249 C264.8304,156.0199 264.8304,156.0189 263.8994,156.0189 C256.8584,156.0179 249.8164,156.0189 242.7744,156.0189 C242.6224,156.0189 242.4684,156.0109 242.3164,156.0269 C241.9244,156.0659 241.8574,156.1259 241.8574,156.5269 C241.8524,159.2609 241.8524,161.9949 241.8574,164.7299 C241.8574,165.1439 241.9404,165.2159 242.3654,165.2419 C242.4994,165.2489 242.6334,165.2429 242.7664,165.2429 L250.6884,165.2429 C251.1294,165.2429 251.5694,165.2569 252.0094,165.2389 C252.2744,165.2279 252.3894,165.2999 252.3784,165.5869 C252.3584,166.1219 252.3894,166.6589 252.3694,167.1939 C252.3274,168.2039 252.7614,168.7699 253.7384,169.1239 C254.5014,169.4009 255.3074,169.4579 256.1084,169.4619 C259.2274,169.4779 262.3474,169.4729 265.4654,169.4639 C265.8654,169.4639 266.2694,169.4229 266.6634,169.3549 C267.2924,169.2429 267.8044,168.9169 268.1414,168.3659 C268.5934,167.6319 268.8804,166.8209 269.1824,166.0179 C269.2714,165.7829 269.1994,165.6049 268.9724,165.4989" id="Fill-116" fill="#050101"></path>
            <path d="M44.7629,164.10271 C42.1219,164.0927 39.4819,164.0927 36.8419,164.1017 C36.5799,164.10271 36.4729,164.0517 36.4779,163.7587 C36.4949,162.7277 36.4929,161.6947 36.4789,160.6637 C36.4749,160.3857 36.5549,160.3037 36.8329,160.305664 C38.1529,160.3197 39.4729,160.3127 40.7929,160.3127 C42.0939,160.3127 43.3949,160.3107 44.6969,160.3137 C45.0989,160.3147 45.1059,160.3197 45.1069,160.7097 C45.1109,161.7237 45.0979,162.7377 45.1149826,163.7487 C45.1179,164.0277 45.0399,164.1037 44.7629,164.10271 M47.5459,158.7477 C47.5429,158.4887 47.4029,158.3657 47.1529,158.3567 C46.9999,158.3507 46.8469,158.3507 46.6939,158.3507 L40.8429,158.3507 C38.7959,158.3507 36.7499,158.3467 34.7039,158.3527 C34.1529,158.3537 34.0719,158.4357 34.0709,158.9857 C34.0679,161.9857 34.0679,164.9867 34.0709,167.9867 C34.0719,168.4477 34.1749,168.5477 34.6479,168.5627 C35.0689,168.5747 35.4899,168.5757 35.9089,168.5617 C36.3759,168.5477 36.4779,168.4407 36.4829,167.9797 C36.4899,167.4067 36.4919,166.8327 36.4819,166.2587 C36.4779,166.0397 36.5559,165.9397 36.7799,165.9597 C36.8739,165.9677 36.9709,165.9617 37.0669,165.9617 L44.5239,165.9617 C44.6389,165.9617 44.7539,165.9657 44.8679,165.9597 C45.0369,165.9527 45.1109,166.0267 45.1089,166.1967 C45.1049,166.5027 45.1049,166.8087 45.1119,167.1137 C45.1169,167.3507 45.2179,167.5257 45.4769,167.5437 C46.0489,167.5847 46.6219,167.5817 47.1959,167.5477 C47.4279,167.5347 47.5339,167.3947 47.5439,167.1747 C47.5499,167.0607 47.5489625,166.9447 47.5489625,166.8317 L47.5489625,159.0337 C47.5489625,158.9377 47.5479,158.8427 47.5459,158.7477" id="Fill-118" fill="#050101"></path>
        </g>
    </g>
</svg>