<?xml version="1.0" encoding="UTF-8"?>
<svg width="300px" height="250px" viewBox="0 0 300 250" version="1.1" xmlns="http://www.w3.org/2000/svg" xmlns:xlink="http://www.w3.org/1999/xlink">
    <!-- Generator: Sketch 63 (92445) - https://sketch.com -->
    <title>logo_5</title>
    <desc>Created with Sketch.</desc>
    <defs>
        <polygon id="path-1" points="0 113 273 113 273 0 0 0"></polygon>
    </defs>
    <g id="Page-1" stroke="none" stroke-width="1" fill="none" fill-rule="evenodd">
        <g id="logo_5">
            <g id="Group-52" transform="translate(13.000000, 69.000000)">
                <path d="M104.067597,48.3660092 L109.675101,34.5086639 L114.489705,48.3660092 L104.067597,48.3660092 Z M133.416861,61.8468832 L133.205333,61.8108381 C133.120189,61.778798 133.019081,61.7520979 132.894026,61.7374128 C131.558336,61.5611922 130.552577,61.3569366 130.121538,60.575959 L116.368186,19.9023812 C116.100782,19.1360887 115.383713,18 114.574849,18 L111.107908,18 C110.305696,18 109.221445,19.1374237 108.955372,19.8970412 C108.847612,20.1827321 108.741182,20.4684231 108.636083,20.752779 C108.334089,21.5698017 108.024113,22.3801493 107.718129,23.194502 C107.269794,24.3839908 106.832103,25.5788197 106.385099,26.7696436 C105.823684,28.2688535 105.255616,29.7653934 104.696861,31.2672733 C104.075579,32.9373638 103.455627,34.6074542 102.825032,36.2748747 C102.170491,38.0050403 101.525262,39.739211 100.882694,41.4747167 C100.242787,43.2075523 99.5776024,44.9310429 98.9283824,46.6598736 C98.3576543,48.1777735 97.8188549,49.7103585 97.2401445,51.2269235 C96.7412563,52.5325578 96.206448,53.826177 95.7607745,55.1518363 C95.3590032,56.3439952 94.8960348,57.4894289 94.3665481,58.6295227 C94.200252,58.9873038 94.037947,59.634781 93.7638911,59.9124619 C92.959018,60.7268145 92.0636798,61.2434612 90.9514916,61.5117971 C90.3568168,61.6559776 89.7794367,61.8655732 89.1980656,62.0551439 C88.3439689,62.7453411 87.7772318,64.1324106 88.084547,65.2231092 C88.2268964,65.7210658 88.3679155,66.2670826 88.7949639,66.6035037 C89.2459589,66.9626199 89.8858662,67 90.4419604,67 L103.737665,67 C104.239214,67 105.868916,66.0187718 105.974015,64.5796371 C106.041864,63.617099 105.786433,62.701286 104.976239,62.3261497 C104.976239,62.3261497 100.341234,61.0632356 100.534137,60.0366173 L102.431243,53.8782422 L115.945129,53.8782422 L117.67993,59.8323616 C117.900771,60.8349499 118.044451,61.3302365 116.179274,61.5772123 C116.051558,61.5959024 115.958432,61.6212674 115.866637,61.6466325 L114.356669,61.8348681 C113.408116,61.9496785 112.901245,63.0430471 112.854682,64.0376253 C112.770869,65.8372112 113.582394,66.3538579 113.990817,66.6435538 C114.489705,67 116.734037,67 117.232926,67 L133.101564,67 C133.601782,67 134.090028,66.7970793 134.445236,66.4419682 C134.797784,66.086857 135,65.5955754 135,65.0589037 C135,64.1284056 134.332155,62.0004087 133.416861,61.8468832 L133.416861,61.8468832 Z" id="Fill-1" fill="#050101"></path>
                <path d="M239,50.8879533 C238.957023,49.8661942 238.113593,49.0645269 237.084823,49.0645269 L237.048561,49.0645269 C236.117833,49.0645269 235.317381,49.7341392 235.160245,50.6451855 L233.619777,55.0830346 C232.838126,57.7241351 231.256024,61.2002501 228.140168,61.6150896 L216.474511,61.6150896 C215.859398,61.6150896 215.451114,60.9481451 215.445742,59.8156732 C215.385305,55.0030013 215.445742,49.7808253 215.445742,45.9685702 L215.445742,42.6845352 C215.445742,38.0252605 215.383962,31.1597332 215.445742,26.1909962 C215.533039,24.9051271 216.192473,23.1577324 216.776696,23.0323468 L219.542018,22.8202584 C221.454508,22.765569 220.968327,19.9110463 220.611078,19.5575657 C220.253829,19.2027511 219.760933,19 219.25595,19 L200.767643,19 C200.264003,19 199.771107,19.2027511 199.413858,19.5575657 C199.057952,19.9110463 198.31525,22.7935807 200.503064,22.8229262 L202.614325,23.1150479 C203.162286,23.295123 203.839179,23.7179658 204.000344,24.6263443 C204.06481,29.5924135 204.06481,37.8892038 204.06481,42.6845352 L204.06481,45.9819091 C204.06481,50.7212172 204.06481,55.029679 203.999001,60.0637766 C203.863353,60.8187578 203.375829,61.2362651 202.895021,61.4523551 C202.895021,61.4523551 198.98677,62.3100459 199.283583,65.0605252 L199.283583,65.0965402 C199.283583,65.5967486 199.487725,66.0889537 199.844974,66.4424343 C200.20088,66.7972489 200.695119,67 201.198759,67 L237.082137,67 C237.601894,67 238.106878,66.7879116 238.466813,66.4157566 C238.825405,66.0436015 239.020146,65.532722 238.997314,65.0178408 L239,50.8879533 Z" id="Fill-3" fill="#050101"></path>
                <path d="M188.317377,62.332722 L185.94034,61.9512297 C185.42053,61.7177991 184.884766,61.2509379 184.808988,60.3612338 C184.746505,55.3778241 184.743846,50.6598583 184.743846,45.9819091 L184.743846,42.6845352 C184.743846,37.9518966 184.746505,31.0756982 184.806329,26.157649 C184.910026,24.906461 185.932364,24.4956232 186.508011,24.3689037 L187.93051,24.1541476 C188.859788,24.0127553 189.545778,23.2124218 189.545778,22.27203 L189.545778,20.9021259 C189.545778,20.4005836 189.342374,19.9110463 188.990073,19.5575657 C188.636442,19.2027511 188.148538,19 187.64734,19 L169.773038,19 C169.274499,19 168.786595,19.2027511 168.432964,19.5575657 C168.079334,19.9110463 167.877259,20.4005836 167.877259,20.9021259 L167.877259,22.27203 C167.877259,23.2124218 168.563249,24.0127553 169.489868,24.1541476 L170.896414,24.3662359 C171.476049,24.4916215 172.592778,24.9051271 172.675203,26.1963318 C172.727051,30.3767403 172.675203,35.541559 172.675203,39.6325969 L157.83601,39.6325969 C157.837339,35.4281784 157.782832,30.1793247 157.83601,25.9842434 C158.015484,24.8917882 158.960715,24.5036265 159.513761,24.376907 L160.990767,24.1541476 C161.918715,24.0127553 162.603376,23.2124218 162.603376,22.27203 L162.603376,20.9021259 C162.603376,20.4005836 162.401302,19.9110463 162.047671,19.5575657 C161.69537,19.2027511 161.206136,19 160.707597,19 L144.162734,19 C143.662865,19 143.174961,19.2027511 142.820001,19.5575657 C142.4677,19.9110463 142.264296,20.4005836 142.264296,20.9021259 L142.264296,22.27203 C142.264296,23.2124218 142.951616,24.0127553 143.879564,24.1541476 C143.879564,24.1541476 144.893925,24.3075448 144.893925,24.3088787 C144.893925,24.3088787 146.244635,24.9011255 146.244635,26.3457274 C146.244635,26.3670696 146.247294,26.3804085 146.247294,26.4017507 C146.307119,31.3157982 146.308448,38.0906211 146.308448,42.6845352 L146.308448,45.9819091 C146.308448,50.6358483 146.307119,55.2377657 146.249953,60.0931221 C146.248623,60.1224677 146.244635,60.1371405 146.244635,60.1651521 C146.244635,61.2042518 145.635752,61.7044602 145.07207,61.9552313 L142.673763,62.332722 C141.719226,62.4461025 141,64.0961234 141,65.0605252 L141,65.0965402 C141,65.5967486 141.203404,66.0876198 141.555705,66.4424343 C141.909336,66.7972489 142.39724,67 142.898438,67 L160.707597,67 C161.206136,67 161.69537,66.7972489 162.047671,66.4424343 C162.401302,66.0876198 162.603376,65.5967486 162.603376,65.0965402 L162.603376,65.0605252 C162.603376,64.1187995 161.918715,62.4807837 160.990767,62.3393914 L159.360876,62.091288 C158.803841,61.935223 158.039414,61.5270529 157.870575,60.539975 C157.816068,56.1741559 157.805433,51.3774906 157.805433,46.5528137 L172.675203,46.5528137 C172.675203,51.3374739 172.665897,56.0434348 172.612719,60.3132138 C172.538271,61.4963735 171.650206,61.9432263 171.053288,62.1019591 L169.489868,62.3393914 C168.563249,62.4807837 167.877259,64.1187995 167.877259,65.0605252 L167.877259,65.0965402 C167.877259,65.5967486 168.079334,66.0876198 168.432964,66.4424343 C168.786595,66.7972489 169.274499,67 169.773038,67 L188.094031,67 C188.5939,67 189.081804,66.7972489 189.435434,66.4424343 C189.787736,66.0876198 189.99114,65.5967486 189.99114,65.0965402 L189.99114,65.0605252 C190.094836,63.2050855 189.273243,62.4461025 188.317377,62.332722" id="Fill-5" fill="#050101"></path>
                <path d="M91.7091393,25.3076881 L94.7564829,24.1357318 C95.5057647,23.8476974 96,23.1315753 96,22.3295714 L96,20.9356437 C96,20.4269592 95.7938484,19.9275235 95.4304401,19.5668199 C95.0683533,19.2061163 94.5688321,19 94.0560961,19 L77.8480867,19 C77.3340292,19 76.834508,19.2061163 76.4724212,19.5668199 C76.1103344,19.9275235 75.9028613,20.4269592 75.9028613,20.9356437 L75.9028613,22.3295714 C75.9028613,23.0879738 76.3468801,23.7763495 77.0393381,24.0921303 L78.898667,24.9364144 C79.3836519,25.2574802 80.2294021,26.0396653 79.84485,27.4441631 C79.7985981,27.6106416 79.7867047,27.7189848 79.7880262,27.7982603 L75.7865707,43.1393928 L71.0252614,26.9460486 C70.7292489,25.60365 71.6450377,24.9060255 72.0071245,24.6959454 L73.2559275,24.0458862 C73.8968476,23.7089653 74.295936,23.0522998 74.295936,22.3295714 L74.295936,20.9356437 C74.295936,20.4269592 74.0884629,19.9275235 73.7263761,19.5668199 C73.3642893,19.2061163 72.8634466,19 72.3533535,19 L54.6903896,19 C54.1802965,19 53.6794538,19.2061163 53.317367,19.5668199 C52.9552802,19.9275235 52.7478071,20.4269592 52.7478071,20.9356437 L52.7478071,22.3295714 C52.7478071,22.8475047 52.9592446,23.3509042 53.3305818,23.7129291 L54.7419275,25.0923229 C55.6497874,26.273528 57.838166,29.2397534 57.7958785,30.3086515 C57.7641629,31.082909 57.6491937,31.6933304 57.5553683,32.0791379 L53.1733252,44.4791489 L46.2817827,27.1310248 C45.9051595,25.8480828 46.6161183,25.1161056 47.0588156,24.8056098 L48.6749914,24.1079854 C49.3846286,23.7988109 49.8431838,23.1011864 49.8431838,22.3295714 L49.8431838,20.9356437 C49.8431838,20.4269592 49.6370322,19.9275235 49.2762669,19.5668199 C48.9115371,19.2061163 48.4120159,19 47.9006014,19 L28.9439039,19 C28.4311679,19 27.9303252,19.2061163 27.5695599,19.5668199 C27.2074731,19.9275235 27,20.4269592 27,20.9356437 L27,22.3295714 C27,23.0826888 27.4426974,23.7710644 28.1285479,24.0868452 L29.8980159,24.9007405 C30.5931168,25.2680503 31.7018424,25.9709598 32.1352894,26.9592612 C32.1736124,27.0464643 32.207971,27.1125272 32.2383652,27.16802 L48.2402229,65.487159 C48.2957253,65.7289493 48.3855862,65.9641333 48.532271,66.1755347 C48.8983223,66.6947893 49.4877044,67 50.1246601,67 L50.1643046,67 C50.8091891,67 51.4157506,66.6789342 51.7751944,66.146467 C51.9245222,65.9311019 52.0117401,65.6840265 52.0593136,65.4277024 L61.5951469,40.6699606 L70.5230973,65.6840265 C70.7887157,66.4701753 71.5300686,67 72.3639254,67 L73.6840886,67 C74.5073735,67 75.2434405,66.4794242 75.5169878,65.7078092 L88.9617727,29.1181976 C89.2524993,28.5236313 90.4616578,26.1546148 91.7091393,25.3076881" id="Fill-7" fill="#050101"></path>
                <path d="M19.7940289,106.555296 L23.0794029,106.555296 C23.6345879,106.555296 24.1084643,106.501286 24.4984913,106.394552 C24.8897888,106.287819 25.2086708,106.129647 25.4564078,105.922609 C25.7041448,105.715572 25.8858186,105.458382 25.9976179,105.153612 C26.1106876,104.848843 26.1665873,104.495207 26.1665873,104.093991 C26.1665873,103.605331 26.0814674,103.209259 25.912498,102.908347 C25.7447991,102.607435 25.5161188,102.374679 25.2277275,102.210077 C24.9406066,102.045476 24.6077497,101.937456 24.2304272,101.883446 C23.8531047,101.829437 23.4567254,101.803718 23.0400191,101.803718 L19.7940289,101.803718 L19.7940289,106.555296 Z M19,101 L22.9498174,101 C23.4795935,101 23.9903128,101.043722 24.4794347,101.129881 C24.9685565,101.217325 25.4005082,101.376783 25.7740194,101.606968 C26.148801,101.838438 26.4460854,102.150924 26.6671431,102.546996 C26.8894712,102.941782 27,103.444587 27,104.054127 C27,105.133037 26.6646022,105.952186 25.9925361,106.515431 C25.3217405,107.077391 24.3396856,107.359013 23.0501826,107.359013 L19.7940289,107.359013 L19.7940289,112 L19,112 L19,101 Z" id="Fill-9" fill="#231916"></path>
                <path d="M19.7940289,106.555296 L23.0794029,106.555296 C23.6345879,106.555296 24.1084643,106.501286 24.4984913,106.394552 C24.8897888,106.287819 25.2086708,106.129647 25.4564078,105.922609 C25.7041448,105.715572 25.8858186,105.458382 25.9976179,105.153612 C26.1106876,104.848843 26.1665873,104.495207 26.1665873,104.093991 C26.1665873,103.605331 26.0814674,103.209259 25.912498,102.908347 C25.7447991,102.607435 25.5161188,102.374679 25.2277275,102.210077 C24.9406066,102.045476 24.6077497,101.937456 24.2304272,101.883446 C23.8531047,101.829437 23.4567254,101.803718 23.0400191,101.803718 L19.7940289,101.803718 L19.7940289,106.555296 Z M19,101 L22.9498174,101 C23.4795935,101 23.9903128,101.043722 24.4794347,101.129881 C24.9685565,101.217325 25.4005082,101.376783 25.7740194,101.606968 C26.148801,101.838438 26.4460854,102.150924 26.6671431,102.546996 C26.8894712,102.941782 27,103.444587 27,104.054127 C27,105.133037 26.6646022,105.952186 25.9925361,106.515431 C25.3217405,107.077391 24.3396856,107.359013 23.0501826,107.359013 L19.7940289,107.359013 L19.7940289,112 L19,112 L19,101 Z" id="Stroke-11" stroke="#231916" stroke-width="0.25"></path>
                <path d="M39.819135,106.233809 L43.7103539,106.233809 C44.2634338,106.233809 44.7378768,106.193944 45.1336828,106.11293 C45.5281782,106.033201 45.8545216,105.900748 46.1114024,105.716858 C46.3669725,105.531681 46.5570118,105.293781 46.6788991,104.998013 C46.802097,104.703531 46.8636959,104.340893 46.8636959,103.912672 C46.8636959,103.155249 46.6186107,102.616437 46.1310616,102.291092 C45.6435125,101.965747 44.91481,101.803718 43.9449541,101.803718 L39.819135,101.803718 L39.819135,106.233809 Z M48,112 L47.0996068,112 L45.982962,109.07704 C45.8741809,108.795417 45.7522936,108.530512 45.6199214,108.28361 C45.4862385,108.035422 45.3315858,107.819383 45.1533421,107.635492 C44.9764089,107.450316 44.7732634,107.305004 44.5439056,107.19827 C44.3158585,107.091536 44.0484928,107.037526 43.740498,107.037526 L39.819135,107.037526 L39.819135,112 L39,112 L39,101 L44.0484928,101 C44.5190039,101 44.9750983,101.04115 45.4154653,101.124737 C45.8545216,101.20961 46.2477064,101.357494 46.5923984,101.572247 C46.9370904,101.787 47.2123198,102.082768 47.4167759,102.460837 C47.621232,102.838906 47.72346,103.323708 47.72346,103.912672 C47.72346,104.280454 47.6775885,104.625088 47.5858453,104.942717 C47.4927916,105.260346 47.3538663,105.545827 47.1651376,105.796586 C46.9777195,106.047346 46.7391874,106.2621 46.4495413,106.43956 C46.1585845,106.617021 45.819135,106.745616 45.429882,106.826631 C45.6408912,106.987374 45.8152031,107.141688 45.9528178,107.288286 C46.0891219,107.43617 46.2070773,107.594342 46.3053735,107.760229 C46.4036697,107.927402 46.4941022,108.112579 46.5714286,108.313187 C46.6500655,108.513795 46.740498,108.745265 46.8427261,109.006313 L48,112 Z" id="Fill-13" fill="#231916"></path>
                <path d="M39.819135,106.233809 L43.7103539,106.233809 C44.2634338,106.233809 44.7378768,106.193944 45.1336828,106.11293 C45.5281782,106.033201 45.8545216,105.900748 46.1114024,105.716858 C46.3669725,105.531681 46.5570118,105.293781 46.6788991,104.998013 C46.802097,104.703531 46.8636959,104.340893 46.8636959,103.912672 C46.8636959,103.155249 46.6186107,102.616437 46.1310616,102.291092 C45.6435125,101.965747 44.91481,101.803718 43.9449541,101.803718 L39.819135,101.803718 L39.819135,106.233809 Z M48,112 L47.0996068,112 L45.982962,109.07704 C45.8741809,108.795417 45.7522936,108.530512 45.6199214,108.28361 C45.4862385,108.035422 45.3315858,107.819383 45.1533421,107.635492 C44.9764089,107.450316 44.7732634,107.305004 44.5439056,107.19827 C44.3158585,107.091536 44.0484928,107.037526 43.740498,107.037526 L39.819135,107.037526 L39.819135,112 L39,112 L39,101 L44.0484928,101 C44.5190039,101 44.9750983,101.04115 45.4154653,101.124737 C45.8545216,101.20961 46.2477064,101.357494 46.5923984,101.572247 C46.9370904,101.787 47.2123198,102.082768 47.4167759,102.460837 C47.621232,102.838906 47.72346,103.323708 47.72346,103.912672 C47.72346,104.280454 47.6775885,104.625088 47.5858453,104.942717 C47.4927916,105.260346 47.3538663,105.545827 47.1651376,105.796586 C46.9777195,106.047346 46.7391874,106.2621 46.4495413,106.43956 C46.1585845,106.617021 45.819135,106.745616 45.429882,106.826631 C45.6408912,106.987374 45.8152031,107.141688 45.9528178,107.288286 C46.0891219,107.43617 46.2070773,107.594342 46.3053735,107.760229 C46.4036697,107.927402 46.4941022,108.112579 46.5714286,108.313187 C46.6500655,108.513795 46.740498,108.745265 46.8427261,109.006313 L48,112 Z" id="Stroke-15" stroke="#231916" stroke-width="0.25"></path>
                <path d="M65.4945477,112.154167 C66.1597274,112.154167 66.7771995,112.039134 67.3415118,111.810421 C67.9071871,111.581707 68.3938042,111.244728 68.8068154,110.800835 C69.2157373,110.356941 69.5360595,109.812902 69.7650558,109.167362 C69.9913259,108.521822 70.105824,107.786963 70.105824,106.962783 C70.105824,106.131837 69.9885998,105.398331 69.7596035,104.763618 C69.527881,104.128905 69.2089219,103.595692 68.8013631,103.161272 C68.3910781,102.728206 67.9085502,102.400699 67.3524164,102.178753 C66.7935564,101.956806 66.1869888,101.845833 65.5258984,101.845833 C64.8498141,101.845833 64.232342,101.958159 63.6680297,102.184166 C63.1037175,102.410173 62.6143742,102.739032 62.2040892,103.172099 C61.7910781,103.606519 61.4693928,104.139732 61.2403965,104.774445 C61.0086741,105.409158 60.894176,106.138604 60.894176,106.962783 C60.894176,107.786963 61.005948,108.521822 61.2349442,109.167362 C61.4612144,109.812902 61.7774473,110.356941 62.1877323,110.800835 C62.5952912,111.244728 63.0819083,111.581707 63.6475836,111.810421 C64.2118959,112.039134 64.8266419,112.154167 65.4945477,112.154167 M65.5054523,101 C66.2987608,101 67.0334572,101.140747 67.7095415,101.42224 C68.3828996,101.703733 68.9635688,102.105673 69.4501859,102.628059 C69.9354399,103.150445 70.3157373,103.777038 70.589715,104.510545 C70.8623296,105.244051 71,106.060111 71,106.962783 C71,107.857336 70.8636927,108.676102 70.5951673,109.416375 C70.3239157,110.155295 69.9463445,110.791361 69.4610905,111.324574 C68.9744734,111.856434 68.3965304,112.2692 67.7258984,112.56152 C67.0552664,112.85384 66.3151177,113 65.5054523,113 C64.6957869,113 63.952912,112.85384 63.2795539,112.56152 C62.6034696,112.2692 62.0228005,111.857787 61.5389095,111.329988 C61.0509294,110.800835 60.6733581,110.166122 60.4048327,109.425849 C60.1322181,108.685576 60,107.865456 60,106.962783 C60,106.053344 60.1349442,105.233224 60.410285,104.499718 C60.6815366,103.766212 61.0645601,103.140972 61.5539033,102.622646 C62.0446097,102.104319 62.6252788,101.703733 63.2959108,101.42224 C63.9665428,101.140747 64.7012392,101 65.5054523,101" id="Fill-17" fill="#231916"></path>
                <path d="M65.4945477,112.154167 C66.1597274,112.154167 66.7771995,112.039134 67.3415118,111.810421 C67.9071871,111.581707 68.3938042,111.244728 68.8068154,110.800835 C69.2157373,110.356941 69.5360595,109.812902 69.7650558,109.167362 C69.9913259,108.521822 70.105824,107.786963 70.105824,106.962783 C70.105824,106.131837 69.9885998,105.398331 69.7596035,104.763618 C69.527881,104.128905 69.2089219,103.595692 68.8013631,103.161272 C68.3910781,102.728206 67.9085502,102.400699 67.3524164,102.178753 C66.7935564,101.956806 66.1869888,101.845833 65.5258984,101.845833 C64.8498141,101.845833 64.232342,101.958159 63.6680297,102.184166 C63.1037175,102.410173 62.6143742,102.739032 62.2040892,103.172099 C61.7910781,103.606519 61.4693928,104.139732 61.2403965,104.774445 C61.0086741,105.409158 60.894176,106.138604 60.894176,106.962783 C60.894176,107.786963 61.005948,108.521822 61.2349442,109.167362 C61.4612144,109.812902 61.7774473,110.356941 62.1877323,110.800835 C62.5952912,111.244728 63.0819083,111.581707 63.6475836,111.810421 C64.2118959,112.039134 64.8266419,112.154167 65.4945477,112.154167 Z M65.5054523,101 C66.2987608,101 67.0334572,101.140747 67.7095415,101.42224 C68.3828996,101.703733 68.9635688,102.105673 69.4501859,102.628059 C69.9354399,103.150445 70.3157373,103.777038 70.589715,104.510545 C70.8623296,105.244051 71,106.060111 71,106.962783 C71,107.857336 70.8636927,108.676102 70.5951673,109.416375 C70.3239157,110.155295 69.9463445,110.791361 69.4610905,111.324574 C68.9744734,111.856434 68.3965304,112.2692 67.7258984,112.56152 C67.0552664,112.85384 66.3151177,113 65.5054523,113 C64.6957869,113 63.952912,112.85384 63.2795539,112.56152 C62.6034696,112.2692 62.0228005,111.857787 61.5389095,111.329988 C61.0509294,110.800835 60.6733581,110.166122 60.4048327,109.425849 C60.1322181,108.685576 60,107.865456 60,106.962783 C60,106.053344 60.1349442,105.233224 60.410285,104.499718 C60.6815366,103.766212 61.0645601,103.140972 61.5539033,102.622646 C62.0446097,102.104319 62.6252788,101.703733 63.2959108,101.42224 C63.9665428,101.140747 64.7012392,101 65.5054523,101 Z" id="Stroke-19" stroke="#231916" stroke-width="0.25"></path>
                <polygon id="Fill-21" fill="#231916" points="91 101.803624 84.7898538 101.803624 84.7898538 105.93232 90.189926 105.93232 90.189926 106.735944 84.7898538 106.735944 84.7898538 112 84 112 84 101 91 101"></polygon>
                <polygon id="Stroke-23" stroke="#231916" stroke-width="0.25" points="91 101.803624 84.7898538 101.803624 84.7898538 105.93232 90.189926 105.93232 90.189926 106.735944 84.7898538 106.735944 84.7898538 112 84 112 84 101 91 101"></polygon>
                <polygon id="Fill-25" fill="#231916" points="112 112 104 112 104 101 111.726861 101 111.726861 101.803624 104.809061 101.803624 104.809061 105.871888 111.291909 105.871888 111.291909 106.675511 104.809061 106.675511 104.809061 111.196376 112 111.196376"></polygon>
                <polygon id="Stroke-27" stroke="#231916" stroke-width="0.25" points="112 112 104 112 104 101 111.726861 101 111.726861 101.803624 104.809061 101.803624 104.809061 105.871888 111.291909 105.871888 111.291909 106.675511 104.809061 106.675511 104.809061 111.196376 112 111.196376"></polygon>
                <path d="M128.823609,113 C128.039349,113 127.354138,112.916093 126.766621,112.750987 C126.180461,112.58588 125.686567,112.3504 125.289009,112.043194 C124.890095,111.735987 124.583446,111.366528 124.371777,110.933461 C124.158752,110.499041 124.036635,110.011842 124,109.469155 L124.837178,109.469155 C124.922659,109.990188 125.081411,110.424608 125.31479,110.769708 C125.548168,111.113454 125.835821,111.389534 126.179104,111.593887 C126.522388,111.798241 126.911805,111.943047 127.350068,112.026954 C127.788331,112.112214 128.255088,112.154167 128.748982,112.154167 C129.264586,112.154167 129.729986,112.100034 130.143826,111.990414 C130.556309,111.880794 130.910448,111.722454 131.203528,111.514041 C131.496608,111.306981 131.721845,111.055261 131.876526,110.764295 C132.031208,110.471975 132.109905,110.141762 132.109905,109.775008 C132.109905,109.387955 132.042062,109.061802 131.907734,108.797902 C131.774763,108.532649 131.548168,108.301229 131.229308,108.104996 C130.911805,107.907409 130.492537,107.730123 129.97422,107.575843 C129.454545,107.421563 128.808684,107.263223 128.039349,107.100823 C127.402985,106.958723 126.857531,106.797677 126.401628,106.613624 C125.945726,106.430924 125.569878,106.217097 125.272727,105.974851 C124.975577,105.731251 124.757123,105.452464 124.614654,105.138491 C124.473541,104.825871 124.402985,104.460471 124.402985,104.044998 C124.402985,103.594339 124.497965,103.181572 124.689281,102.808052 C124.880597,102.433179 125.150611,102.113793 125.500678,101.845833 C125.850746,101.577873 126.270014,101.36946 126.761194,101.221947 C127.253731,101.07308 127.795115,101 128.389417,101 C128.982361,101 129.527815,101.06902 130.02171,101.205707 C130.515604,101.343746 130.94844,101.542686 131.320217,101.80388 C131.690638,102.063719 131.991859,102.380399 132.221167,102.755272 C132.450475,103.128792 132.597015,103.552385 132.660787,104.023345 L131.845319,104.023345 C131.766621,103.713432 131.639077,103.425172 131.462687,103.157212 C131.286296,102.887899 131.058345,102.657832 130.778833,102.464306 C130.499322,102.269426 130.16825,102.119206 129.782904,102.009586 C129.397558,101.899966 128.957938,101.845833 128.462687,101.845833 C127.424695,101.845833 126.639077,102.035299 126.104478,102.416939 C125.571235,102.797226 125.303935,103.319612 125.303935,103.981392 C125.303935,104.284538 125.352782,104.548438 125.453189,104.774445 C125.552239,105.000451 125.719132,105.202098 125.956581,105.382091 C126.19403,105.562084 126.506106,105.720424 126.894166,105.858464 C127.282225,105.995151 127.767978,106.123717 128.345997,106.244164 C128.68521,106.314537 129.035278,106.387617 129.396201,106.46611 C129.755767,106.54325 130.107191,106.635277 130.450475,106.740837 C130.793758,106.846397 131.119403,106.97767 131.431479,107.13195 C131.742198,107.28623 132.013569,107.47705 132.242877,107.703056 C132.470828,107.929063 132.65536,108.198376 132.793758,108.512349 C132.930801,108.824969 133,109.197135 133,109.627495 C133,110.120108 132.895522,110.573475 132.687924,110.986241 C132.478969,111.397654 132.188602,111.753581 131.818182,112.054021 C131.447761,112.353107 131.005427,112.58588 130.492537,112.750987 C129.981004,112.916093 129.423338,113 128.823609,113" id="Fill-29" fill="#231916"></path>
                <path d="M128.823609,113 C128.039349,113 127.354138,112.916093 126.766621,112.750987 C126.180461,112.58588 125.686567,112.3504 125.289009,112.043194 C124.890095,111.735987 124.583446,111.366528 124.371777,110.933461 C124.158752,110.499041 124.036635,110.011842 124,109.469155 L124.837178,109.469155 C124.922659,109.990188 125.081411,110.424608 125.31479,110.769708 C125.548168,111.113454 125.835821,111.389534 126.179104,111.593887 C126.522388,111.798241 126.911805,111.943047 127.350068,112.026954 C127.788331,112.112214 128.255088,112.154167 128.748982,112.154167 C129.264586,112.154167 129.729986,112.100034 130.143826,111.990414 C130.556309,111.880794 130.910448,111.722454 131.203528,111.514041 C131.496608,111.306981 131.721845,111.055261 131.876526,110.764295 C132.031208,110.471975 132.109905,110.141762 132.109905,109.775008 C132.109905,109.387955 132.042062,109.061802 131.907734,108.797902 C131.774763,108.532649 131.548168,108.301229 131.229308,108.104996 C130.911805,107.907409 130.492537,107.730123 129.97422,107.575843 C129.454545,107.421563 128.808684,107.263223 128.039349,107.100823 C127.402985,106.958723 126.857531,106.797677 126.401628,106.613624 C125.945726,106.430924 125.569878,106.217097 125.272727,105.974851 C124.975577,105.731251 124.757123,105.452464 124.614654,105.138491 C124.473541,104.825871 124.402985,104.460471 124.402985,104.044998 C124.402985,103.594339 124.497965,103.181572 124.689281,102.808052 C124.880597,102.433179 125.150611,102.113793 125.500678,101.845833 C125.850746,101.577873 126.270014,101.36946 126.761194,101.221947 C127.253731,101.07308 127.795115,101 128.389417,101 C128.982361,101 129.527815,101.06902 130.02171,101.205707 C130.515604,101.343746 130.94844,101.542686 131.320217,101.80388 C131.690638,102.063719 131.991859,102.380399 132.221167,102.755272 C132.450475,103.128792 132.597015,103.552385 132.660787,104.023345 L131.845319,104.023345 C131.766621,103.713432 131.639077,103.425172 131.462687,103.157212 C131.286296,102.887899 131.058345,102.657832 130.778833,102.464306 C130.499322,102.269426 130.16825,102.119206 129.782904,102.009586 C129.397558,101.899966 128.957938,101.845833 128.462687,101.845833 C127.424695,101.845833 126.639077,102.035299 126.104478,102.416939 C125.571235,102.797226 125.303935,103.319612 125.303935,103.981392 C125.303935,104.284538 125.352782,104.548438 125.453189,104.774445 C125.552239,105.000451 125.719132,105.202098 125.956581,105.382091 C126.19403,105.562084 126.506106,105.720424 126.894166,105.858464 C127.282225,105.995151 127.767978,106.123717 128.345997,106.244164 C128.68521,106.314537 129.035278,106.387617 129.396201,106.46611 C129.755767,106.54325 130.107191,106.635277 130.450475,106.740837 C130.793758,106.846397 131.119403,106.97767 131.431479,107.13195 C131.742198,107.28623 132.013569,107.47705 132.242877,107.703056 C132.470828,107.929063 132.65536,108.198376 132.793758,108.512349 C132.930801,108.824969 133,109.197135 133,109.627495 C133,110.120108 132.895522,110.573475 132.687924,110.986241 C132.478969,111.397654 132.188602,111.753581 131.818182,112.054021 C131.447761,112.353107 131.005427,112.58588 130.492537,112.750987 C129.981004,112.916093 129.423338,113 128.823609,113 Z" id="Stroke-31" stroke="#231916" stroke-width="0.25"></path>
                <path d="M148.823609,113 C148.039349,113 147.352782,112.916093 146.766621,112.750987 C146.179104,112.58588 145.68521,112.3504 145.289009,112.043194 C144.888738,111.735987 144.583446,111.366528 144.371777,110.933461 C144.158752,110.499041 144.035278,110.011842 144,109.469155 L144.837178,109.469155 C144.922659,109.990188 145.081411,110.424608 145.31479,110.769708 C145.548168,111.113454 145.834464,111.389534 146.179104,111.593887 C146.521031,111.798241 146.910448,111.943047 147.350068,112.026954 C147.786974,112.112214 148.253731,112.154167 148.748982,112.154167 C149.263229,112.154167 149.729986,112.100034 150.143826,111.990414 C150.556309,111.880794 150.909091,111.722454 151.203528,111.514041 C151.495251,111.306981 151.720488,111.055261 151.876526,110.764295 C152.029851,110.471975 152.109905,110.141762 152.109905,109.775008 C152.109905,109.387955 152.040706,109.061802 151.907734,108.797902 C151.773406,108.532649 151.548168,108.301229 151.229308,108.104996 C150.911805,107.907409 150.492537,107.730123 149.97422,107.575843 C149.454545,107.421563 148.807327,107.263223 148.039349,107.100823 C147.402985,106.958723 146.857531,106.797677 146.401628,106.613624 C145.945726,106.430924 145.569878,106.217097 145.272727,105.974851 C144.975577,105.731251 144.755767,105.452464 144.614654,105.138491 C144.472185,104.825871 144.402985,104.460471 144.402985,104.044998 C144.402985,103.594339 144.497965,103.181572 144.689281,102.808052 C144.880597,102.433179 145.150611,102.113793 145.500678,101.845833 C145.850746,101.577873 146.268657,101.36946 146.761194,101.221947 C147.252374,101.07308 147.795115,101 148.389417,101 C148.982361,101 149.526459,101.06902 150.02171,101.205707 C150.514247,101.343746 150.94844,101.542686 151.320217,101.80388 C151.690638,102.063719 151.990502,102.380399 152.221167,102.755272 C152.449118,103.128792 152.597015,103.552385 152.660787,104.023345 L151.845319,104.023345 C151.765265,103.713432 151.63772,103.425172 151.462687,103.157212 C151.284939,102.887899 151.056988,102.657832 150.778833,102.464306 C150.497965,102.269426 150.166893,102.119206 149.782904,102.009586 C149.396201,101.899966 148.956581,101.845833 148.462687,101.845833 C147.424695,101.845833 146.63772,102.035299 146.104478,102.416939 C145.569878,102.797226 145.303935,103.319612 145.303935,103.981392 C145.303935,104.284538 145.351425,104.548438 145.453189,104.774445 C145.550882,105.000451 145.717775,105.202098 145.956581,105.382091 C146.192673,105.562084 146.504749,105.720424 146.894166,105.858464 C147.280868,105.995151 147.766621,106.123717 148.345997,106.244164 C148.68521,106.314537 149.035278,106.387617 149.396201,106.46611 C149.755767,106.54325 150.105834,106.635277 150.450475,106.740837 C150.792402,106.846397 151.118046,106.97767 151.431479,107.13195 C151.740841,107.28623 152.012212,107.47705 152.242877,107.703056 C152.470828,107.929063 152.65536,108.198376 152.793758,108.512349 C152.930801,108.824969 153,109.197135 153,109.627495 C153,110.120108 152.894166,110.573475 152.687924,110.986241 C152.477612,111.397654 152.188602,111.753581 151.818182,112.054021 C151.447761,112.353107 151.004071,112.58588 150.492537,112.750987 C149.979647,112.916093 149.421981,113 148.823609,113" id="Fill-33" fill="#231916"></path>
                <path d="M148.823609,113 C148.039349,113 147.352782,112.916093 146.766621,112.750987 C146.179104,112.58588 145.68521,112.3504 145.289009,112.043194 C144.888738,111.735987 144.583446,111.366528 144.371777,110.933461 C144.158752,110.499041 144.035278,110.011842 144,109.469155 L144.837178,109.469155 C144.922659,109.990188 145.081411,110.424608 145.31479,110.769708 C145.548168,111.113454 145.834464,111.389534 146.179104,111.593887 C146.521031,111.798241 146.910448,111.943047 147.350068,112.026954 C147.786974,112.112214 148.253731,112.154167 148.748982,112.154167 C149.263229,112.154167 149.729986,112.100034 150.143826,111.990414 C150.556309,111.880794 150.909091,111.722454 151.203528,111.514041 C151.495251,111.306981 151.720488,111.055261 151.876526,110.764295 C152.029851,110.471975 152.109905,110.141762 152.109905,109.775008 C152.109905,109.387955 152.040706,109.061802 151.907734,108.797902 C151.773406,108.532649 151.548168,108.301229 151.229308,108.104996 C150.911805,107.907409 150.492537,107.730123 149.97422,107.575843 C149.454545,107.421563 148.807327,107.263223 148.039349,107.100823 C147.402985,106.958723 146.857531,106.797677 146.401628,106.613624 C145.945726,106.430924 145.569878,106.217097 145.272727,105.974851 C144.975577,105.731251 144.755767,105.452464 144.614654,105.138491 C144.472185,104.825871 144.402985,104.460471 144.402985,104.044998 C144.402985,103.594339 144.497965,103.181572 144.689281,102.808052 C144.880597,102.433179 145.150611,102.113793 145.500678,101.845833 C145.850746,101.577873 146.268657,101.36946 146.761194,101.221947 C147.252374,101.07308 147.795115,101 148.389417,101 C148.982361,101 149.526459,101.06902 150.02171,101.205707 C150.514247,101.343746 150.94844,101.542686 151.320217,101.80388 C151.690638,102.063719 151.990502,102.380399 152.221167,102.755272 C152.449118,103.128792 152.597015,103.552385 152.660787,104.023345 L151.845319,104.023345 C151.765265,103.713432 151.63772,103.425172 151.462687,103.157212 C151.284939,102.887899 151.056988,102.657832 150.778833,102.464306 C150.497965,102.269426 150.166893,102.119206 149.782904,102.009586 C149.396201,101.899966 148.956581,101.845833 148.462687,101.845833 C147.424695,101.845833 146.63772,102.035299 146.104478,102.416939 C145.569878,102.797226 145.303935,103.319612 145.303935,103.981392 C145.303935,104.284538 145.351425,104.548438 145.453189,104.774445 C145.550882,105.000451 145.717775,105.202098 145.956581,105.382091 C146.192673,105.562084 146.504749,105.720424 146.894166,105.858464 C147.280868,105.995151 147.766621,106.123717 148.345997,106.244164 C148.68521,106.314537 149.035278,106.387617 149.396201,106.46611 C149.755767,106.54325 150.105834,106.635277 150.450475,106.740837 C150.792402,106.846397 151.118046,106.97767 151.431479,107.13195 C151.740841,107.28623 152.012212,107.47705 152.242877,107.703056 C152.470828,107.929063 152.65536,108.198376 152.793758,108.512349 C152.930801,108.824969 153,109.197135 153,109.627495 C153,110.120108 152.894166,110.573475 152.687924,110.986241 C152.477612,111.397654 152.188602,111.753581 151.818182,112.054021 C151.447761,112.353107 151.004071,112.58588 150.492537,112.750987 C149.979647,112.916093 149.421981,113 148.823609,113 Z" id="Stroke-35" stroke="#231916" stroke-width="0.25"></path>
                <mask id="mask-2" fill="white">
                    <use xlink:href="#path-1"></use>
                </mask>
                <g id="Clip-38"></g>
                <polygon id="Fill-37" fill="#231916" mask="url(#mask-2)" points="166.1875 112 166.8125 112 166.8125 101 166.1875 101"></polygon>
                <polygon id="Stroke-39" stroke="#231916" stroke-width="0.25" mask="url(#mask-2)" points="166.1875 112 166.8125 112 166.8125 101 166.1875 101"></polygon>
                <path d="M185.494548,112.154167 C186.162454,112.154167 186.7772,112.039134 187.341512,111.810421 C187.907187,111.581707 188.395167,111.244728 188.806815,110.800835 C189.218463,110.356941 189.538786,109.812902 189.765056,109.167362 C189.992689,108.521822 190.105824,107.786963 190.105824,106.962783 C190.105824,106.131837 189.991326,105.398331 189.759603,104.763618 C189.529244,104.128905 189.210285,103.595692 188.801363,103.161272 C188.393804,102.728206 187.909913,102.400699 187.352416,102.178753 C186.796283,101.956806 186.186989,101.845833 185.525898,101.845833 C184.85254,101.845833 184.232342,101.958159 183.66803,102.184166 C183.103717,102.410173 182.6171,102.739032 182.204089,103.172099 C181.792441,103.606519 181.472119,104.139732 181.240397,104.774445 C181.010037,105.409158 180.894176,106.138604 180.894176,106.962783 C180.894176,107.786963 181.008674,108.521822 181.234944,109.167362 C181.462577,109.812902 181.780173,110.356941 182.187732,110.800835 C182.596654,111.244728 183.081908,111.581707 183.647584,111.810421 C184.211896,112.039134 184.828005,112.154167 185.494548,112.154167 M185.505452,101 C186.301487,101 187.036183,101.140747 187.709542,101.42224 C188.384263,101.703733 188.964932,102.105673 189.450186,102.628059 C189.938166,103.150445 190.3171,103.777038 190.589715,104.510545 C190.863693,105.244051 191,106.060111 191,106.962783 C191,107.857336 190.865056,108.676102 190.595167,109.416375 C190.326642,110.155295 189.949071,110.791361 189.46109,111.324574 C188.975836,111.856434 188.39653,112.2692 187.725898,112.56152 C187.055266,112.85384 186.315118,113 185.505452,113 C184.695787,113 183.954275,112.85384 183.279554,112.56152 C182.606196,112.2692 182.025527,111.857787 181.53891,111.329988 C181.052292,110.800835 180.674721,110.166122 180.404833,109.425849 C180.134944,108.685576 180,107.865456 180,106.962783 C180,106.053344 180.136307,105.233224 180.410285,104.499718 C180.684263,103.766212 181.06456,103.140972 181.553903,102.622646 C182.04461,102.104319 182.625279,101.703733 183.295911,101.42224 C183.966543,101.140747 184.703965,101 185.505452,101" id="Fill-40" fill="#231916" mask="url(#mask-2)"></path>
                <path d="M185.494548,112.154167 C186.162454,112.154167 186.7772,112.039134 187.341512,111.810421 C187.907187,111.581707 188.395167,111.244728 188.806815,110.800835 C189.218463,110.356941 189.538786,109.812902 189.765056,109.167362 C189.992689,108.521822 190.105824,107.786963 190.105824,106.962783 C190.105824,106.131837 189.991326,105.398331 189.759603,104.763618 C189.529244,104.128905 189.210285,103.595692 188.801363,103.161272 C188.393804,102.728206 187.909913,102.400699 187.352416,102.178753 C186.796283,101.956806 186.186989,101.845833 185.525898,101.845833 C184.85254,101.845833 184.232342,101.958159 183.66803,102.184166 C183.103717,102.410173 182.6171,102.739032 182.204089,103.172099 C181.792441,103.606519 181.472119,104.139732 181.240397,104.774445 C181.010037,105.409158 180.894176,106.138604 180.894176,106.962783 C180.894176,107.786963 181.008674,108.521822 181.234944,109.167362 C181.462577,109.812902 181.780173,110.356941 182.187732,110.800835 C182.596654,111.244728 183.081908,111.581707 183.647584,111.810421 C184.211896,112.039134 184.828005,112.154167 185.494548,112.154167 Z M185.505452,101 C186.301487,101 187.036183,101.140747 187.709542,101.42224 C188.384263,101.703733 188.964932,102.105673 189.450186,102.628059 C189.938166,103.150445 190.3171,103.777038 190.589715,104.510545 C190.863693,105.244051 191,106.060111 191,106.962783 C191,107.857336 190.865056,108.676102 190.595167,109.416375 C190.326642,110.155295 189.949071,110.791361 189.46109,111.324574 C188.975836,111.856434 188.39653,112.2692 187.725898,112.56152 C187.055266,112.85384 186.315118,113 185.505452,113 C184.695787,113 183.954275,112.85384 183.279554,112.56152 C182.606196,112.2692 182.025527,111.857787 181.53891,111.329988 C181.052292,110.800835 180.674721,110.166122 180.404833,109.425849 C180.134944,108.685576 180,107.865456 180,106.962783 C180,106.053344 180.136307,105.233224 180.410285,104.499718 C180.684263,103.766212 181.06456,103.140972 181.553903,102.622646 C182.04461,102.104319 182.625279,101.703733 183.295911,101.42224 C183.966543,101.140747 184.703965,101 185.505452,101 Z" id="Stroke-41" stroke="#231916" stroke-width="0.25" mask="url(#mask-2)"></path>
                <polygon id="Fill-42" fill="#231916" mask="url(#mask-2)" points="212 112 210.892557 112 203.844088 101.955348 203.844088 112 203 112 203 101 204.160114 101 211.155912 111.025365 211.155912 101 212 101"></polygon>
                <polygon id="Stroke-43" stroke="#231916" stroke-width="0.25" mask="url(#mask-2)" points="212 112 210.892557 112 203.844088 101.955348 203.844088 112 203 112 203 101 204.160114 101 211.155912 111.025365 211.155912 101 212 101"></polygon>
                <path d="M230.423097,107.834852 L227.83707,101.722028 L225.38269,107.834852 L230.423097,107.834852 Z M233,112 L232.022419,112 L230.657716,108.466947 L225.168926,108.466947 C224.969499,109.023242 224.755735,109.610371 224.527633,110.228335 C224.29562,110.847582 224.074035,111.438566 223.865485,112 L223,112 C223.366267,111.050572 223.72732,110.119131 224.084463,109.20953 C224.440302,108.29993 224.794838,107.394184 225.148071,106.494861 C225.5,105.595538 225.855839,104.689792 226.212982,103.780192 C226.568822,102.870591 226.929875,101.943004 227.297445,101 L228.44708,101 L233,112 Z" id="Fill-44" fill="#231916" mask="url(#mask-2)"></path>
                <path d="M230.423097,107.834852 L227.83707,101.722028 L225.38269,107.834852 L230.423097,107.834852 Z M233,112 L232.022419,112 L230.657716,108.466947 L225.168926,108.466947 C224.969499,109.023242 224.755735,109.610371 224.527633,110.228335 C224.29562,110.847582 224.074035,111.438566 223.865485,112 L223,112 C223.366267,111.050572 223.72732,110.119131 224.084463,109.20953 C224.440302,108.29993 224.794838,107.394184 225.148071,106.494861 C225.5,105.595538 225.855839,104.689792 226.212982,103.780192 C226.568822,102.870591 226.929875,101.943004 227.297445,101 L228.44708,101 L233,112 Z" id="Stroke-45" stroke="#231916" stroke-width="0.25" mask="url(#mask-2)"></path>
                <polygon id="Fill-46" fill="#231916" mask="url(#mask-2)" points="252 112 245 112 245 101 245.868228 101 245.868228 111.196376 252 111.196376"></polygon>
                <polygon id="Stroke-47" stroke="#231916" stroke-width="0.25" mask="url(#mask-2)" points="252 112 245 112 245 101 245.868228 101 245.868228 111.196376 252 111.196376"></polygon>
                <path d="M236.006084,33.9253064 L235.914144,33.9253064 C232.246,33.8929502 229.17682,30.9679421 229.183569,27.6003002 L229.187636,27.3828659 C229.309322,24.0100469 232.473147,21.0759791 236.000676,21.0708021 L236.030421,21.0708021 C237.862465,21.0708021 239.559303,21.8124082 240.799144,22.9953539 C242.038984,24.1782996 242.813716,25.797408 242.813716,27.5433531 L242.813716,27.5938289 C242.778562,31.2034959 239.864869,33.9188352 236.006084,33.9253064 M236.033126,19 L235.995268,19 C231.300909,19.0271793 227.189289,22.841338 227.005408,27.3336844 L227,27.6261852 C227.00676,32.1185316 231.038609,35.9430443 235.887103,36 L235.991212,36 C241.051979,36.0064626 244.966198,32.3838531 245,27.6197139 L245,27.5537071 C244.994592,22.9151103 240.897844,19.005177 236.033126,19" id="Fill-48" fill="#231916" mask="url(#mask-2)"></path>
                <path d="M237.212449,27.0584505 C236.97023,27.1108354 236.653586,27.1411635 236.265223,27.1411635 L233.976996,27.1411635 L233.976996,25.0126827 L236.443843,25.0126827 C237.106901,25.0099256 237.537212,25.1408878 237.729364,25.2801213 L237.909337,25.5020678 C237.953992,25.6068376 237.991881,25.7667494 237.991881,25.9942101 C237.991881,26.2657844 237.951286,26.4670527 237.899865,26.5938792 L237.695535,26.864075 C237.598106,26.9371381 237.44249,27.0102013 237.213802,27.0584505 L237.212449,27.0584505 Z M239.686062,24.5219189 C239.481732,24.1276537 239.189445,23.7926661 238.82138,23.5583127 L238.824087,23.5583127 C238.485792,23.3405018 238.102842,23.1916184 237.692828,23.110284 L237.695535,23.1116625 C237.311231,23.0330852 236.918809,23 236.522327,23 L232,23 L232,33 L233.300406,33 L233.976996,33 L233.976996,29.1538462 L236.288227,29.1538462 C236.443843,29.1538462 236.541272,29.1800386 236.604871,29.2131238 L236.608931,29.2158809 L236.874154,29.4102564 C236.959405,29.5026192 237.043302,29.6239316 237.120433,29.772815 L237.121786,29.7741935 C237.198917,29.9230769 237.269283,30.0857458 237.332882,30.2553074 L237.594046,33 L238.895805,33 L239.648173,33 L239.566982,32.2362834 L239.315291,29.8582851 L239.284168,29.7741935 C239.20433,29.5674111 239.135318,29.3854425 239.078484,29.2310449 C239.006766,29.0394265 238.924222,28.8602151 238.829499,28.6934105 L238.826793,28.6892749 C238.799729,28.6424042 238.76184,28.6038048 238.733424,28.5583127 C239.010825,28.3791012 239.251691,28.1557761 239.44249,27.8938517 L239.445196,27.8910946 C239.635995,27.6236559 239.778078,27.3217535 239.867388,26.9964158 C239.958051,26.6765922 240,26.3416046 240,25.9942101 C240,25.4496829 239.912043,24.953405 239.686062,24.5219189 L239.686062,24.5219189 Z" id="Fill-49" fill="#231916" mask="url(#mask-2)"></path>
                <polygon id="Fill-50" fill="#231916" mask="url(#mask-2)" points="239.5 26.499 239.5 26.5 239.5 26.501"></polygon>
                <path d="M263.652406,62.2152625 C263.652406,63.3784738 263.636452,64.5443317 263.562001,65.7048963 C262.816161,76.9241288 257.427767,82.0189678 246.127163,82.0269078 C209.878813,82.0520512 173.629133,82.0374945 137.379453,82.0374945 L136.499335,82.0374945 L135.621877,82.0374945 C99.3735262,82.0374945 63.1238464,82.0520512 26.8728372,82.0269078 C15.5735623,82.0189678 10.1864977,76.9241288 9.44065783,65.7048963 C9.36221834,64.5443317 9.35025299,63.3784738 9.35025299,62.2152625 C9.34493506,56.4772828 9.33961713,50.739303 9.33695816,45.0013233 C9.33961713,39.2633436 9.34493506,33.5253639 9.35025299,27.7873842 C9.35025299,26.6241729 9.36221834,25.4596383 9.44065783,24.2990737 C10.1864977,13.0758712 15.5735623,7.98500221 26.8728372,7.9770622 C63.1238464,7.9505955 99.3735262,7.96647552 135.621877,7.96647552 L136.499335,7.96647552 L137.379453,7.96647552 C173.629133,7.96647552 209.878813,7.9505955 246.127163,7.9770622 C257.427767,7.98500221 262.816161,13.0758712 263.562001,24.2990737 C263.636452,25.4596383 263.652406,26.6241729 263.652406,27.7873842 C263.655065,33.5253639 263.663042,39.2633436 263.663042,45.0013233 C263.663042,50.739303 263.655065,56.4772828 263.652406,62.2152625 M251.939662,0 L136.499335,0 L21.0603381,0 C8.2015798,0 0,9.93295104 0,20.1861491 L0,45.0013233 L0,69.8138509 C0,80.0696956 8.2015798,90 21.0603381,90 L136.499335,90 L251.939662,90 C264.79975,90 273,80.0696956 273,69.8138509 L273,45.0013233 L273,20.1861491 C273,9.93295104 264.79975,0 251.939662,0" id="Fill-51" fill="#050101" mask="url(#mask-2)"></path>
            </g>
        </g>
    </g>
</svg>