<?xml version="1.0" encoding="UTF-8"?>
<svg width="300px" height="250px" viewBox="0 0 300 250" version="1.1" xmlns="http://www.w3.org/2000/svg" xmlns:xlink="http://www.w3.org/1999/xlink">
    <!-- Generator: Sketch 63 (92445) - https://sketch.com -->
    <title>logo_7</title>
    <desc>Created with Sketch.</desc>
    <g id="Page-1" stroke="none" stroke-width="1" fill="none" fill-rule="evenodd">
        <g id="logo_7" fill="#191919">
            <g id="Group" transform="translate(10.731100, 103.000000)">
                <path d="M73.2689,9 L73.2689,30.1393207 C73.2689,36.6551978 67.9510658,42 61.3916695,42 L61.1453148,42 C54.5867342,42 49.2689,36.6551978 49.2689,30.1393207 L49.2689,9 L55.2825637,9 L55.2825637,30.53157 C55.2825637,33.7830251 57.9353627,36.4185515 61.2073113,36.4185515 L61.3304887,36.4185515 C64.6016215,36.4185515 67.2544205,33.7830251 67.2544205,30.53157 L67.2544205,9 L73.2689,9 Z" id="Fill-120"></path>
                <path d="M108.87256,20.5856649 C108.87256,21.9758811 106.113662,25.7848475 104.024782,25.7848475 L96.2998672,25.7848475 L96.2998672,15.2774933 L104.024782,15.2774933 C106.943744,15.2774933 108.87256,19.1696142 108.87256,20.4774832 L108.87256,20.5856649 Z M103.670066,10 L96.2998672,10 L93.7066639,10 L90.2689,10 L90.2689,42 L96.2998672,42 L96.2998672,31.0631481 L103.670066,31.0631481 C109.524078,31.0631481 114.2689,26.3959936 114.2689,20.6397558 L114.2689,20.422585 C114.2689,14.6663471 109.524078,10 103.670066,10 L103.670066,10 Z" id="Fill-122"></path>
                <path d="M136.282127,24.5776347 L136.282127,20.6585998 C136.282127,17.3362937 138.93481,14.6416519 142.206371,14.6416519 L142.330628,14.6416519 C145.601387,14.6416519 148.254871,17.3362937 148.254871,20.6585998 L148.254871,24.5776347 L136.282127,24.5776347 Z M142.392355,9 L142.144643,9 C135.586289,9 130.2689,14.3998668 130.2689,21.0615749 L130.2689,42 L136.282127,42 L136.282127,30.0703079 L148.254871,30.0703079 L148.254871,42 L154.2689,42 L154.2689,21.0615749 C154.2689,14.3998668 148.950709,9 142.392355,9 L142.392355,9 Z" id="Fill-124"></path>
                <path d="M55.2689,3.5 C55.2689,5.43324148 53.9252126,7 52.2689,7 C50.6118359,7 49.2689,5.43324148 49.2689,3.5 C49.2689,1.56763527 50.6118359,0 52.2689,0 C53.9252126,0 55.2689,1.56763527 55.2689,3.5" id="Fill-126"></path>
                <path d="M73.2689,2.99962345 C73.2689,4.65645789 71.9255265,6 70.2689,6 C68.6115205,6 67.2689,4.65645789 67.2689,2.99962345 C67.2689,1.342789 68.6115205,0 70.2689,0 C71.9255265,0 73.2689,1.342789 73.2689,2.99962345" id="Fill-128"></path>
                <path d="M15.9269386,36.6505246 L33.2689,36.6505246 L33.2689,43 L15.9269386,43 L12.9375002,43 C10.9112806,43 9.2689,41.2580066 9.2689,39.1870249 L9.2689,13.7825437 C9.2689,11.7123844 10.9112806,10 12.9375002,10 L15.7305932,10 L33.2689,10 L33.2689,16.3190439 L15.9269386,16.3190439 L15.9269386,23.2171074 L33.2689,23.2171074 L33.2689,29.7524612 L15.9269386,29.7524612 L15.9269386,36.6505246 Z" id="Fill-130"></path>
                <polygon id="Fill-134" points="40.2689 42 41.2689 42 41.2689 0 40.2689 0"></polygon>
                <polygon id="Fill-135" points="81.2689 42 82.2689 42 82.2689 0 81.2689 0"></polygon>
                <polygon id="Fill-136" points="121.2689 42 122.2689 42 122.2689 0 121.2689 0"></polygon>
                <polygon id="Fill-137" points="161.2689 42 162.2689 42 162.2689 0 161.2689 0"></polygon>
                <path d="M181.142994,39.4750131 C180.712437,39.7260331 180.518151,40.1534234 180.309047,40.5717901 C180.237424,40.8277321 180.06125,40.9901568 179.823332,41.0951587 C179.300571,41.5652059 178.81074,42.0811915 178.245994,42.4946363 C177.109093,43.3239867 175.539987,43.1041391 174.630302,42.0434565 C173.958534,41.2608647 174.249139,39.4184106 175.287251,38.3716735 C176.98149,36.6653937 178.16367,34.6646165 178.884833,32.3898501 C179.248707,31.2430332 179.532726,30.0707861 179.852969,28.9092033 C179.998683,28.3456387 180.579071,25.9437217 180.402897,25.0241353 C180.657279,24.5754165 180.466286,24.0725562 180.574132,23.6049699 C180.808756,18.3868708 180.630112,13.1663107 180.667982,7.94739124 C180.676214,6.8309264 180.299168,5.7341494 180.881202,4.61440324 C181.448418,3.52336853 182.081493,3 183.429146,3 C184.650842,3 185.720237,3.95732144 185.720237,5.38633081 C185.720237,6.6447122 185.842901,7.49621147 185.857719,8.5511518 C185.874184,9.64546782 185.861012,10.7406042 185.861012,12.193403 C186.325322,11.4977659 186.648034,11.1696351 186.87031,10.6930252 C187.393894,9.56425547 188.721789,9.14588877 189.690748,9.70617201 C190.844938,10.3722774 191.262323,11.6150726 190.527989,12.7307171 C189.265131,14.6494616 187.915832,16.5140646 186.542659,18.3565187 C186.065177,18.9980143 185.892295,19.6337676 185.835491,20.4196407 C185.671666,22.7075323 185.786097,25.0216743 185.203239,27.2710106 C185.002367,28.0437585 185.186774,28.6672069 185.684014,29.3439765 C187.43588,31.7303073 189.096365,34.1822643 190.791427,36.6096114 C190.839999,36.997626 191.400629,37.168254 191.240096,37.6481452 C190.85811,38.4438623 190.700047,39.3601674 189.745083,39.7982219 C188.358738,40.4315142 187.237478,40.0886176 186.488325,38.7646101 C185.749051,37.4553684 184.943094,36.1838618 184.200526,34.8770811 C183.730453,34.0493713 183.54934,34.5054731 183.348468,35.02474 C183.492536,35.3676366 183.301543,35.5981484 183.08009,35.820457 C182.875102,36.3093718 182.66929,36.7974663 182.465126,37.2847404 C182.232147,38.139521 181.67481,38.8007045 181.142994,39.4750131" id="Fill-138"></path>
                <path d="M175.274292,11.6720257 C175.274292,11.6720257 176.676055,21.7508039 176.588786,23.2877814 C176.500737,24.8247588 177.639913,26 178.516502,26 C179.392311,26 180.2689,24.5860129 180.2689,23.6205788 C180.2689,22.6551447 179.204526,12.3078778 179.08609,11.6720257 C178.888954,10.6205788 177.771596,10 176.983056,10 C176.194515,10 175.186244,10.5192926 175.274292,11.6720257" id="Fill-139"></path>
                <path d="M210.908479,8.42216443 C209.604758,8.42216443 208.548057,9.50164933 208.548057,10.8334813 L208.548057,35.6212256 C208.429391,35.9766557 207.976519,37.1080944 207.019111,37.1080944 C206.887528,37.1080944 206.818104,37.1353083 206.789043,37.1773662 L205.34163,37.1773662 L205.34163,5.41131692 C205.34163,4.07866024 204.284123,3 202.981209,3 C201.677488,3 200.620787,4.07866024 200.620787,5.41131692 L200.620787,37.1773662 L198.785084,37.1773662 C198.756022,37.1353083 198.686598,37.1080944 198.555015,37.1080944 C197.420818,37.1080944 196.989743,35.5082466 196.989743,35.5082466 L196.989743,10.8334813 C196.989743,9.50164933 195.933042,8.42216443 194.629321,8.42216443 C193.3256,8.42216443 192.2689,9.50164933 192.2689,10.8334813 L192.2689,37.6828851 C192.2689,37.7604035 192.283431,37.8329739 192.290696,37.9096676 C192.283431,37.974816 192.2689,38.0275945 192.2689,38.1051129 L192.2689,39.5886831 C192.2689,40.9205151 194.777857,42 196.081578,42 L209.456222,42 C210.891526,42 213.2689,40.7852702 213.2689,39.5886831 L213.2689,37.6828851 L213.2689,37.3637402 L213.2689,10.8334813 C213.2689,9.50164933 212.2122,8.42216443 210.908479,8.42216443" id="Fill-140"></path>
                <path d="M259.221707,15.1514221 L259.221707,17.9130346 L255.306557,17.9130346 L255.306557,13.5717209 C256.212031,13.5692654 258.283292,13.5643544 258.386132,13.5643544 C258.940504,13.5643544 259.150201,13.9474115 259.221707,14.3378351 L259.221707,15.1514221 Z M259.221707,25.0708001 C259.103602,25.4235727 259.375163,26.5465521 258.422287,26.5465521 C258.291326,26.5465521 255.306557,26.5375486 255.306557,26.5375486 L255.306557,22.774913 L259.221707,22.774913 L259.221707,25.0708001 Z M250.187054,17.9130346 L246.271101,17.9130346 L246.271101,15.0392879 C246.389206,14.6873337 246.116841,13.5643544 247.071324,13.5643544 C247.201481,13.5643544 250.187054,13.5725394 250.187054,13.5725394 L250.187054,17.9130346 Z M250.187054,26.5383671 C249.279973,26.5408226 247.209516,26.5465521 247.106676,26.5465521 C246.552304,26.5465521 246.342607,26.1626765 246.271101,25.7730714 L246.271101,24.9586658 L246.271101,22.774913 L250.187054,22.774913 L250.187054,26.5383671 Z M260.847864,8.70984244 L260.217969,8.70984244 L260.217969,8.70902394 L255.306557,8.70902394 L255.306557,5.39328832 C255.306557,4.07223245 254.254857,3 252.957306,3 C251.659755,3 250.608055,4.07223245 250.608055,5.39328832 L250.608055,8.70902394 L246.484012,8.70902394 L246.484012,8.70984244 L244.63932,8.70984244 C243.143319,8.70984244 241.2689,9.68221813 241.2689,11.1031308 L241.274524,29.0085942 C241.274524,30.4278699 243.149747,31.823409 244.644944,31.823409 L250.187054,31.823409 L250.187054,40.6075302 C250.187054,41.928586 251.23795,43 252.536305,43 C253.833053,43 254.885556,41.928586 254.885556,40.6075302 L254.885556,31.823409 L260.791623,31.823409 C262.28682,31.823409 264.2689,30.4008594 264.2689,28.9807653 L264.2689,11.1031308 C264.2689,9.68221813 262.343864,8.70984244 260.847864,8.70984244 L260.847864,8.70984244 Z" id="Fill-143"></path>
                <path d="M241.152068,30.8552154 C240.727551,29.4880585 239.294903,28.7322254 237.950996,29.1616945 L237.550463,29.2899669 C237.061188,29.4068735 236.515151,29.5968466 235.887568,29.9094092 C235.886769,26.3202164 235.887568,22.9258678 235.887568,19.5315193 C235.887568,17.9370442 235.887568,17.9370442 237.482508,17.7641199 C237.854261,17.7235274 238.179644,17.6358475 238.476247,17.5230002 C239.584311,17.3322152 240.430148,16.3579942 240.430148,15.1783748 C240.430148,13.9451733 239.504364,12.9425375 238.32115,12.8175125 C238.309158,12.8150769 238.300364,12.809394 238.287573,12.8077703 C237.821482,12.7217141 237.342601,12.7152193 236.885305,12.7769199 C235.94433,12.9043805 235.771645,12.4676047 235.785236,11.6102902 C235.81002,10.0028254 235.844397,8.39373699 235.791632,6.78627224 L235.791632,6.41931564 C235.791632,6.3405661 235.775642,6.26668767 235.768447,6.19037369 C235.76365,6.08239752 235.762051,5.9752332 235.756455,5.86888074 L235.722877,5.86888074 C235.476641,4.79804942 234.536466,4 233.407617,4 C232.277967,4 231.338592,4.79804942 231.092356,5.86888074 L231.080364,5.86888074 C231.079564,5.8826822 231.079564,5.89729552 231.078765,5.91109698 C231.044387,6.07590271 231.023601,6.24557955 231.023601,6.41931564 L231.023601,7.33021233 C231.023601,7.36431007 231.032395,7.3967841 231.033994,7.43006999 C231.021203,9.06919693 230.998018,10.707512 230.976433,12.3458271 C230.897285,12.8280665 230.531129,12.7558118 230.201748,12.7647422 C229.450247,12.7858503 228.697947,12.71116 227.948046,12.8085821 C227.923262,12.8126414 227.89688,12.8240073 227.872096,12.8313139 C226.754439,13.0139804 225.897409,13.9922607 225.897409,15.1783748 C225.897409,16.4960088 226.950309,17.5644046 228.246248,17.5644046 L229.13046,17.5644046 C229.16084,17.5644046 229.18962,17.5554742 229.218401,17.5546624 C229.505411,17.5465439 229.793219,17.5392372 230.077031,17.5441083 C231.01081,17.5644046 231.077166,17.7478829 231.065973,18.5499916 C231.020403,22.0036052 231.045986,25.4572189 231.045986,28.9100207 C231.045986,31.4356888 231.045986,31.4373125 228.656375,31.9236112 C228.36217,31.9836882 228.068766,32.0372703 227.774561,32.0916643 C227.552309,32.131445 227.358837,32.1874627 227.178158,32.251599 C225.943778,32.4927187 225.104336,33.6788328 225.296209,34.9493795 C225.469693,36.0973366 226.424259,36.9270482 227.525926,36.9692645 C227.732189,36.9976792 227.952043,37.0106689 228.201477,36.9895607 C231.663176,36.6794337 234.984968,35.697906 238.234008,34.4939311 C238.289172,34.4744467 238.33714,34.4573978 238.389905,34.4371015 C238.450664,34.4233001 238.509825,34.418429 238.569785,34.3989446 L239.485976,34.1058664 C239.831346,33.9946428 240.135944,33.8144119 240.393373,33.5862818 C240.559662,33.465316 240.684379,33.3281132 240.77392,33.1560008 C241.233614,32.5138268 241.404701,31.6695019 241.152068,30.8552154" id="Fill-144"></path>
                <polygon id="Fill-132" points="0.2689 42 1.2689 42 1.2689 0 0.2689 0"></polygon>
                <path d="M275.732604,42.3905273 C274.143428,42.3722514 272.821976,41.0119966 272.879467,39.4454845 C272.935243,37.9233568 274.265277,36.6161894 275.768644,36.6100824 C277.340658,36.6048757 278.67155,37.9546871 278.658678,39.5420861 C278.645807,41.1764804 277.38013,42.4088033 275.732604,42.3905273 M275.768644,36 C273.948643,36.0096011 272.338015,37.5900378 272.271084,39.4350411 C272.201579,41.3287802 273.800194,42.9779694 275.724881,42.9997265 C277.719932,43.0232242 279.253332,41.5298159 279.268778,39.5490483 C279.285081,37.6292006 277.671021,35.9921954 275.768644,36" id="Fill-141"></path>
                <path d="M274.810913,37.460814 L276.476656,37.460814 C276.682566,37.460814 276.863545,37.5011773 277.017746,37.5827447 C277.17287,37.6643121 277.291984,37.7786747 277.375087,37.9283552 C277.460959,38.0755129 277.50251,38.2487386 277.50251,38.4429869 C277.501587,38.638076 277.457266,38.8096199 277.372316,38.9609822 C277.288291,39.107299 277.168254,39.2225025 277.014052,39.3032291 C276.859851,39.3847965 276.679796,39.4260007 276.476656,39.4260007 L274.810913,39.4260007 L274.810913,37.460814 Z M278.2689,42 L277.001125,39.8111335 C277.099002,39.7842247 277.192261,39.7514295 277.27998,39.7068618 C277.521901,39.5882947 277.70842,39.4201144 277.83769,39.2023209 C277.973424,38.9836865 278.038983,38.7305752 278.038983,38.4429869 C278.038983,38.1587622 277.973424,37.9031282 277.83769,37.6870165 C277.70842,37.4675412 277.521901,37.2993609 277.281827,37.1807938 C277.041753,37.0588631 276.761051,37 276.446185,37 L274.810913,37 L274.605003,37 L274.2689,37 L274.2689,42 L274.810913,42 L274.810913,39.8868147 L276.446185,39.8868147 L276.449879,39.8868147 L277.619777,42 L278.2689,42 Z" id="Fill-142"></path>
            </g>
        </g>
    </g>
</svg>