<?xml version="1.0" encoding="UTF-8"?>
<svg width="300px" height="250px" viewBox="0 0 300 250" version="1.1" xmlns="http://www.w3.org/2000/svg" xmlns:xlink="http://www.w3.org/1999/xlink">
    <!-- Generator: Sketch 63 (92445) - https://sketch.com -->
    <title>logo_4</title>
    <desc>Created with Sketch.</desc>
    <g id="Page-1" stroke="none" stroke-width="1" fill="none" fill-rule="evenodd">
        <g id="logo_4">
            <path d="M279.906425,121.1315 C279.925302,127.574699 279.917529,134.332399 279.91975,140.775598 C279.91975,142.408447 278.762677,143.927566 277.395731,144.502023 C275.490225,145.30046 273.543632,145.204137 271.534855,144.946502 C269.788141,144.724842 268.112495,144.265277 266.417971,143.852133 C266.044865,143.761612 265.908281,143.608424 265.920496,143.202242 C265.947147,142.228567 265.934932,141.253731 265.923827,140.280056 C265.921607,139.904048 265.947147,139.81933 266.380216,139.942345 C268.112495,140.442529 269.854767,140.943873 271.62258,141.2723 C272.932893,141.514848 274.310943,141.710976 275.582391,140.989133 C276.063209,140.717572 276.353033,140.277735 276.353033,139.696316 C276.359695,133.561814 276.350812,127.266001 276.369689,121.1315" id="Fill-207" fill="#231916"></path>
            <path d="M252.173789,128.572525 C251.508418,129.335387 250.847453,130.104266 250.171065,130.856299 C249.906679,131.14869 249.624667,131.333991 249.244612,130.974218 C248.562717,130.326868 247.880821,129.666282 247.136134,129.111582 C246.794635,128.857696 246.913609,128.759029 247.108594,128.591777 C248.029538,127.795223 248.838119,126.866312 249.645598,125.94462 C251.55799,123.761919 253.205996,121.363835 254.541145,118.707052 C254.950944,117.89245 255.217533,117.258335 255.600893,116.432904 C255.759524,116.089977 255.90053,116.092383 256.09221,116.18383 C256.998834,116.613392 257.892238,117.075441 258.793354,117.519441 C259.043419,117.64458 258.855044,117.756482 258.79776,117.876808 C258.255769,119.013882 257.823939,119.951216 257.258813,121.075054 C256.840202,121.905299 256.369815,122.705462 255.918156,123.515252 C255.798081,123.731837 255.860872,123.961659 255.859771,124.183057 C255.856466,131.255779 255.847653,138.328501 255.87299,145.402427 C255.875193,146.040151 255.703342,146.15807 255.180078,146.124379 C254.425477,146.076248 253.664265,146.069029 252.910765,146.126785 C252.381993,146.167696 252.312592,145.942687 252.313693,145.439727 C252.330217,139.859039 252.324709,134.279555 252.324709,128.697663 C252.274035,128.656753 252.224463,128.614639 252.173789,128.572525" id="Fill-208" fill="#231916"></path>
            <path d="M257.918676,106.673002 C257.733398,107.085268 257.626606,107.364584 257.398869,107.807343 C256.602433,109.350292 255.851029,110.921295 254.892474,112.383742 C253.147776,115.46354 250.535876,118.185961 250.18076,118.528703 C249.357304,119.33128 249.308411,119.302007 248.34857,118.621402 C247.634479,118.113997 246.952554,117.556584 246.138104,117.17725 C245.997859,117.113825 245.748249,117.040641 246.096931,116.755226 C247.927835,115.262286 249.503982,113.196077 250.809932,111.285992 C252.103016,109.394202 253.257141,107.621946 253.957079,105.431324 C254.032992,105.1886 254.15265,105.050771 254.496186,105.182501 C255.544806,105.58135 256.608866,105.954585 257.680646,106.292448 C257.919963,106.368071 257.923823,106.463209 257.918676,106.673002" id="Fill-209" fill="#231916"></path>
            <path d="M119.070336,125.960666 L119.070336,128.153785 C119.070336,132.272625 119.095869,136.390293 119.055248,140.507961 C119.043642,141.807413 118.487708,142.885208 117.532523,143.826959 C116.50422,144.843768 115.296021,145.068944 113.96828,145.114683 C111.474122,145.199124 109.018264,144.97043 106.600706,144.318358 C106.192171,144.209289 106.103964,144.059172 106.016918,143.646349 C105.804526,142.663551 106.055218,141.660815 105.790598,140.685053 C105.678019,140.273403 105.77551,140.043536 106.340729,140.210073 C108.551697,140.858626 110.756863,141.510697 113.105944,141.509525 C114.193439,141.508352 114.856149,140.527899 115.070862,139.771449 C115.262363,139.090058 115.219421,138.371137 115.21826,137.662771 C115.214778,131.05996 115.207815,124.458321 115.225224,117.85551 C115.227545,117.055667 115.023277,116.889131 114.283966,116.892649 C109.034513,116.913759 103.783898,116.896167 98.5356046,116.914932 C98.0400227,116.917278 97.8961067,116.80469 97.9228008,116.296871 C97.9680647,115.427833 97.9599404,114.551759 97.9239614,113.680375 C97.9077128,113.239406 98.0365409,113.130337 98.468289,113.1315 C102.920402,113.149101 107.372514,113.142064 111.824627,113.142064 C113.773297,113.142064 115.723127,113.140892 117.671797,113.142064 C118.761613,113.143237 119.133009,113.461063 119.055248,114.545895 C118.949632,116.021265 119.521814,117.303126 119.984899,118.636589 C120.57333,120.323062 121.260413,121.967314 121.999724,123.586938 C123.173104,126.162386 124.599497,128.592408 126.36363,130.804292 C127.596201,132.347684 128.933228,133.779661 130.361943,135.148308 C132.043671,136.75855 133.791555,138.265586 135.6555,139.643615 C135.982793,139.88521 136.025735,140.097485 135.672909,140.357844 C134.819858,140.984114 133.967968,141.611557 133.133487,142.261283 C132.857261,142.477077 132.652993,142.47825 132.386052,142.254247 C130.247042,140.449322 128.21945,138.518908 126.369433,136.414922 C124.575125,134.373094 122.923572,132.215159 121.441469,129.92118 C120.634842,128.667467 119.950081,127.342214 119.070336,125.960666" id="Fill-210" fill="#231916"></path>
            <path d="M104.140933,121.144451 C106.402641,121.144451 108.664348,121.16186 110.926056,121.134005 C111.534419,121.12472 111.969828,121.216409 112.345973,121.759579 C112.726955,122.310872 113.049884,122.742622 112.867254,123.494703 C112.402818,125.396956 111.726724,127.194754 110.780919,128.929878 C109.255779,131.73045 107.0872,134.011064 104.734783,136.157047 C103.075391,137.668172 101.217646,138.951816 99.3550636,140.21689 C98.9861755,140.467583 98.5713275,140.699707 98.196392,140.957364 C97.806943,141.224306 97.5650491,141.184845 97.2626818,140.835499 C96.6107779,140.079937 95.9092857,139.364996 95.250125,138.614076 C95.0033933,138.332046 94.6187821,138.052337 95.3166458,137.734328 C97.0885182,136.930019 98.7720994,135.970188 100.385531,134.897777 C102.528711,133.476019 104.380408,131.780356 105.999888,129.808466 C107.003747,128.586335 107.812882,127.269033 108.612341,125.933162 C109.02598,125.242594 108.838512,124.919942 107.960437,124.872357 C107.36175,124.838699 106.760644,124.866554 106.160747,124.866554 C103.091114,124.866554 100.021481,124.854947 96.9530577,124.87816 C96.4765268,124.87932 96.3180863,124.782989 96.3446946,124.304814 C96.389445,123.443636 96.3858166,122.577814 96.3459041,121.715475 C96.3229242,121.25587 96.4462901,121.125881 96.9421725,121.1315 C99.3417594,121.159539 101.741346,121.144451 104.140933,121.144451" id="Fill-211" fill="#231916"></path>
            <path d="M128.91975,107.807118 C128.710472,109.008111 128.485283,110.203701 128.300482,111.406045 C128.209917,112.005867 127.935774,112.25309 127.421757,112.074765 C125.082978,111.260143 122.646292,110.969689 120.258559,110.423906 C118.432574,110.006463 116.553964,109.859209 114.696158,109.61874 C112.282725,109.306671 109.882754,108.904088 107.44362,108.810873 C106.114518,108.76359 104.785416,108.510962 103.447748,108.539332 C102.985132,108.548789 102.878657,108.296161 102.932507,107.865209 C103.068354,106.772291 103.217664,105.679373 103.340049,104.585105 C103.385331,104.19333 103.411032,104.096061 103.876095,104.141994 C104.972666,104.254122 106.07046,104.351391 107.164582,104.505399 C108.797199,104.73506 110.438382,104.845838 112.073447,105.087658 C113.11372,105.243017 114.17847,105.248421 115.222414,105.434852 C116.910104,105.737464 118.613704,105.904982 120.30629,106.15896 C121.976846,106.407535 123.630268,106.765536 125.300824,107.006005 C126.530794,107.180278 127.738734,107.538279 128.91975,107.807118" id="Fill-212" fill="#231916"></path>
            <path d="M136.91975,114.801041 C135.502013,116.794611 133.794368,118.447476 132.102625,120.106673 C130.727701,121.45683 129.250025,122.696795 127.820056,123.987423 C127.465316,124.30533 127.247579,124.034286 127.066539,123.77844 C126.421891,122.866514 125.537487,122.176238 124.91975,121.161721 C126.041463,120.195333 127.241463,119.211213 128.343603,118.115636 C129.506906,116.961797 130.802319,115.956146 131.827395,114.64272 C132.462258,113.829587 133.247579,113.149442 133.862869,112.302112 C134.131982,111.932275 134.404765,112.24385 134.638404,112.48323 C135.396814,113.2647 136.16501,114.036036 136.91975,114.801041" id="Fill-213" fill="#231916"></path>
            <path d="M199.107692,115.1315 C198.035874,114.351847 196.966349,113.797648 195.91975,113.036875 C196.843692,112.593739 198.151653,111.627502 199.048083,111.094405 C200.719431,109.936031 201.936833,108.61995 204.329223,106.247671 C205.153434,104.863841 204.970021,105.201469 205.489308,105.16815 C206.159911,105.127058 207.095316,105.139274 208.084598,105.1315 C208.367741,105.182588 208.18089,105.353624 208.185475,105.484676 C208.201523,105.947804 208.429643,106.17437 208.742591,106.382055 C209.875164,107.229456 211.100591,108.365618 212.307676,109.291873 C212.769646,109.638386 213.241934,110.105956 213.723392,110.475791 C213.854074,110.575747 214.017999,110.596849 213.844903,110.773437 C213.098643,111.544205 212.24692,112.150603 211.50066,112.921371 C211.35049,113.077968 211.25993,112.999114 211.123517,112.892495 C209.613801,111.698581 208.038745,110.028213 206.837391,108.697693 C206.664296,108.5311 206.534761,108.410043 206.321543,108.658821 C204.347564,111.413153 199.143228,115.083743 199.107692,115.1315" id="Fill-214" fill="#231916"></path>
            <path d="M201.906476,137.108818 C201.949474,137.346438 201.895095,137.414705 201.638375,137.501351 C200.565971,137.86369 199.776843,138.001537 198.900456,138.115752 C198.422427,138.176142 198.221351,138.078993 198.137886,137.539423 C197.819199,135.512426 197.479014,133.883213 196.89855,131.91398 C196.622861,130.984501 196.244738,130.330716 196.001929,129.394674 C195.957667,129.227945 195.800853,129.199063 196.090453,129.084848 C197.043982,128.706755 198.043038,128.265647 199.061064,128.138303 C199.451834,128.089728 199.589678,128.307657 199.655439,128.588601 C200.119557,130.574901 200.84166,132.485057 201.267839,134.484486 C201.441093,135.29581 201.868537,136.888263 201.906476,137.108818" id="Fill-215" fill="#231916"></path>
            <path d="M210.765197,129.152163 C211.406593,129.502764 212.038431,129.895902 212.787842,130.16272 C212.950342,130.222012 212.925489,130.377978 212.90446,130.503009 C212.496298,132.910815 211.921813,134.520746 211.444828,136.906639 C211.401814,137.125765 211.395123,137.181191 211.211593,137.088385 C210.520491,136.746806 209.939315,136.397494 209.115345,135.934752 C208.856301,135.832923 208.907919,135.704025 208.971007,135.475876 C209.49483,133.599128 209.944094,132.396514 210.256668,130.448872 C210.305418,130.144674 210.3838,129.791495 210.42777,129.447338 C210.462182,129.195988 210.487991,129.081269 210.765197,129.152163" id="Fill-216" fill="#231916"></path>
            <path d="M219.540556,123 C219.174453,123.001174 218.986738,122.973384 219.000729,122.498548 C219.036873,121.16224 219.029877,119.824725 219.003061,118.489625 C218.996065,118.086075 219.123152,117.999082 219.488089,118.002707 C221.290623,118.022039 223.09199,118.011164 224.893358,118.011164 C226.672572,118.011164 228.676812,118.026871 230.454861,118.00029 C230.895584,117.993041 231.009846,118.119906 230.999352,118.568161 C230.967872,119.789686 230.976034,121.011211 230.993523,122.232736 C231.001684,122.795774 230.773161,123.001174 230.240329,122.998757 C226.748358,122.987883 223.032527,122.987883 219.540556,123 M219.014122,111.354988 C219.018786,110.334332 219.344088,110 220.319992,110 C223.433092,110 226.76889,110 229.880825,110.001177 C230.722644,110.002354 230.983818,110.261344 230.98615,111.092466 C230.989648,112.214363 230.962831,113.337438 230.998976,114.45698 C231.014133,114.917276 230.862559,115.004391 230.445147,114.999682 C228.665899,114.976137 226.663954,114.989087 224.885873,114.989087 C223.107791,114.989087 221.328543,114.97496 219.550462,114.999682 C219.120224,115.006745 218.984973,114.89844 219.001297,114.452271 C219.036276,113.421021 219.009459,112.388593 219.014122,111.354988 M236.800814,143.016604 C236.351131,142.652468 235.613834,142.150008 235.149314,141.807153 C233.988585,140.950016 232.997913,140.070415 232.012948,139.02057 C231.048527,137.995551 230.787163,137.796932 229.868395,136.656052 C229.543117,136.25172 229.823883,136.185513 230.080682,135.993987 C231.871423,134.663946 234.259079,132.373911 236.045256,130.609981 C236.248412,130.410179 236.273521,130.330968 236.150258,130.1489 C235.630954,129.378067 234.794361,128.608417 234.236253,127.930983 C234.006846,127.649605 233.962334,127.685073 233.787711,127.876599 C232.398716,129.401713 229.930026,131.604261 228.58212,132.852726 C227.96352,133.424939 227.890475,133.154202 227.562915,132.416472 C227.535523,132.356177 227.226223,131.340617 227.205679,131.279139 C226.730887,129.764666 226.682952,128.413344 226.430718,126.859856 C226.35425,126.394046 226.439849,126.156412 227.013936,126.168235 C228.996421,126.214343 231.196899,126.188333 233.180525,126.185969 C233.992009,126.183604 234.354951,125.810011 234.356092,124.989523 L234.356092,116.122583 L234.356092,107.39042 C234.356092,106.189245 234.184893,106.010724 233.020739,106.010724 C227.814007,106.010724 222.390422,106.026093 217.18483,106 C216.122255,105.99299 215.828934,106.438701 215.828934,107.393966 C215.841488,118.697542 215.836923,129.762301 215.836923,141.065877 C215.836923,141.2243 215.832358,141.380358 215.836923,141.539963 C215.841488,141.696021 215.796977,141.753952 215.622354,141.78942 C214.676194,141.986857 214.352057,142.053063 213.289482,142.298973 C213.056651,142.352175 212.966486,142.397101 213.010998,142.615818 C213.223285,143.63729 213.596498,144.74152 213.803079,145.764173 C213.843025,145.960428 213.805361,146.043186 214.098682,145.978162 C215.7479,145.604568 217.092383,145.145852 218.735893,144.756889 C221.228551,144.166942 223.617348,143.29207 225.997014,142.301338 C226.30289,142.174836 226.391913,142.080255 226.282346,141.731489 C226.014134,140.887356 225.688856,139.872978 225.435481,139.021752 C225.370426,138.797123 225.338469,138.585498 224.928732,138.732098 C223.209894,139.343326 221.58921,140.088149 219.861241,140.67455 C219.309981,140.861346 219.219816,140.847159 219.224381,140.23002 C219.248349,136.981173 219.234653,133.731144 219.234653,130.483479 C219.234653,129.129793 219.234653,128.016105 219.236936,126.661237 C219.236936,126.425967 219.159325,126.168235 219.563355,126.178875 C220.607669,126.20252 221.654266,126.194245 222.69858,126.182422 C222.955378,126.178875 223.024999,126.262816 223.032989,126.525277 C223.072935,127.960539 223.272667,129.136887 223.540879,130.546139 C224.003116,132.973316 224.790632,135.289361 225.975329,137.412698 C226.986545,139.2251 228.368691,140.834154 229.868395,142.298973 C231.065647,143.467045 232.488881,144.482605 233.728362,145.589199 C233.900702,145.744075 233.985161,145.729888 234.155218,145.586835 C234.946158,144.922405 235.933405,144.111376 236.776846,143.524975 C237.138647,143.274336 236.995981,143.177391 236.800814,143.016604" id="Fill-217" fill="#231916"></path>
            <path d="M203.323931,140.032814 C203.325093,140.322775 202.902328,140.473847 202.551573,140.518925 C201.845418,140.666342 199.135778,141.1622 197.572479,141.382717 C197.291411,141.422921 197.172944,141.556937 197.195011,141.833496 C197.280958,142.880036 197.372712,143.926576 197.462143,144.973116 C197.473757,145.109568 197.519053,145.146118 197.671202,145.126625 C198.368066,145.03525 198.63752,144.906108 199.342514,144.791586 C200.743211,144.566196 202.156684,144.125163 203.551573,143.853477 C205.326254,143.508691 211.09745,142.086908 212.487694,141.803038 C212.931364,141.712882 212.975499,141.571557 212.87097,141.142707 C212.652619,140.246021 212.427299,139.170241 212.348321,138.249189 C212.320447,137.940953 212.228693,138.012834 211.978983,138.078623 C210.32277,138.520875 208.830319,139.024042 207.174105,139.467512 C206.728112,139.586908 206.775731,139.621021 206.778054,139.022824 L206.7827,138.561079 L206.7827,126.828624 L212.91975,126.828624 L212.91975,123.207767 L206.7827,123.207767 L206.7827,118.752357 L211.527183,118.752357 L211.527183,115.1315 L198.721144,115.1315 L198.721144,118.752357 L203.329738,118.752357 L203.329738,123.207767 L196.91975,123.207767 L196.91975,126.828624 L203.329738,126.828624 L203.329738,139.709958 L203.323931,140.032814 Z" id="Fill-218" fill="#231916"></path>
            <polygon id="Fill-219" fill="#231916" points="145.91975 129.1315 185.91975 129.1315 185.91975 127.1315 145.91975 127.1315"></polygon>
            <polygon id="Fill-220" fill="#231916" points="260.91975 121.1315 286.91975 121.1315 286.91975 117.1315 260.91975 117.1315"></polygon>
            <polygon id="Fill-221" fill="#231916" points="261.91975 111.1315 285.91975 111.1315 285.91975 107.1315 261.91975 107.1315"></polygon>
            <path d="M160.197046,141.505721 L159.101814,139.476126 C158.867791,139.011137 159.063201,139.003815 159.423597,139.006255 C161.430351,139.009917 163.764739,139.007476 165.772663,139.007476 C167.733782,139.007476 169.697242,139.017239 171.659532,139.000153 C172.13577,138.995271 172.045671,139.105111 171.794095,139.606713 L170.927037,141.571625 C170.814706,141.848665 170.653229,141.967048 170.394633,142 L160.706048,142 C160.43458,141.965828 160.294166,141.841343 160.197046,141.505721 L160.197046,141.505721 Z M152.857891,135.984573 C152.195534,135.985692 151.977574,135.838048 152.001792,135.237404 C152.05386,134.012629 152.016323,134.000325 153.405214,134.000325 C157.403573,134.000325 173.903165,134.021577 178.15339,134.000325 C178.663174,133.998088 179.009489,133.994732 179,134.461154 L179,135.839166 C179,136.091951 177.992341,135.971151 177.189521,135.971151 C169.080189,135.971151 160.969645,135.965559 152.857891,135.984573 L152.857891,135.984573 Z M186.158239,141.971792 C186.101559,141.966931 186.038849,141.964501 185.968903,141.964501 C185.502197,141.968147 185.019812,141.969362 184.544664,141.971792 L175.019984,141.971792 L176.358601,139.411425 C176.512964,139.082114 176.681799,138.977609 177.053235,138.98247 C178.733138,139.004343 180.104316,138.963027 181.784219,139.005558 C182.412525,139.023785 182.564476,138.783181 182.560858,138.248506 C182.547592,136.141398 182.537945,133.775459 182.566888,131.668351 C182.575329,131.120309 182.372728,131.003652 181.845723,131.004867 C171.051167,131.018234 160.805323,131.019449 150.011973,131 C149.459643,130.998791 149.388492,131.1677 149.393316,131.630681 C149.419847,133.737788 149.428288,136.104943 149.39211,138.210836 C149.381256,138.809915 149.525971,139.025001 150.190456,139.007988 C151.91498,138.960597 153.063055,138.990976 154.788785,138.992191 C155.032389,138.992191 155.315789,138.921711 155.444827,139.212137 L156.95469,141.971792 L147.679645,141.971792 C147.069429,141.969362 146.459213,141.970577 145.848996,141.966931 C145.826083,141.966931 145.816436,141.971792 145.795934,141.971792 L145,141.971792 L145,145 L187,145 L187,141.971792 L186.158239,141.971792 Z" id="Fill-222" fill="#231916"></path>
            <path d="M181.537235,105.901074 L181.532534,119.51356 C181.532534,120.047953 181.543111,120.580019 181.529008,121.114412 C181.509028,121.946856 181.386796,122.072595 180.571138,122.072595 L176.354159,122.072595 L176.354159,119.978098 L179.7402,119.978098 L179.7402,117.29798 L176.354159,117.29798 L176.354159,115.255874 L179.734324,115.255874 L179.734324,112.575756 L176.354159,112.575756 L176.354159,110.35319 L179.847152,110.35319 L179.847152,107.674236 L176.354159,107.674236 L176.354159,105.1315 L173.217281,105.1315 L173.217281,107.674236 L169.122534,107.674236 L169.122534,110.35319 L173.217281,110.35319 L173.217281,112.575756 L169.122534,112.575756 L169.122534,115.255874 L173.217281,115.255874 L173.217281,117.29798 L169.127235,117.29798 L169.127235,119.978098 L173.217281,119.978098 L173.217281,122.072595 L167.294941,122.072595 L167.294941,105.385308 L163.911251,105.385308 L163.911251,122.072595 L158.697617,122.072595 L158.697617,120.073567 L162.078957,120.073567 L162.078957,117.395777 L158.697617,117.395777 L158.697617,115.069593 L162.078957,115.069593 L162.078957,112.390639 L158.697617,112.390639 L158.697617,110.35319 L162.078957,110.35319 L162.078957,107.674236 L158.697617,107.674236 L158.697617,105.385308 L155.561915,105.385308 L155.561915,107.674236 L151.748064,107.674236 L151.748064,110.35319 L155.561915,110.35319 L155.561915,112.390639 L151.748064,112.390639 L151.748064,115.069593 L155.561915,115.069593 L155.561915,117.395777 L151.748064,117.395777 L151.748064,120.073567 L155.561915,120.073567 L155.561915,122.072595 L151.195673,122.072595 C150.302445,122.071431 150.302445,122.058624 150.302445,121.202896 L150.302445,105.901074 L146.91975,105.901074 L146.91975,123.385877 C146.910527,124.590882 147.267818,125.12644 148.686406,125.12644 L165.846971,125.12644 L182.940544,125.12644 C183.099209,125.12644 183.2567,125.139247 183.411839,125.124111 C184.219271,125.048435 184.91975,124.639781 184.91975,124.073952 L184.91975,105.901074 L181.537235,105.901074 Z" id="Fill-223" fill="#231916"></path>
            <path d="M73.91975,125.130907 C73.91975,142.252886 60.0399498,156.1315 42.9203432,156.1315 C25.7983639,156.1315 11.91975,142.252886 11.91975,125.130907 C11.91975,108.010114 25.7983639,94.1315 42.9203432,94.1315 C60.0399498,94.1315 73.91975,108.010114 73.91975,125.130907" id="Fill-224" fill="#D3171A"></path>
            <polygon id="Fill-225" fill="#FEFEFE" points="20.91975 113.1315 20.91975 120.354786 39.7963 120.354786 39.7963 141.1315 46.91975 141.1315 46.91975 120.354786 46.91975 114.763922 46.91975 113.1315"></polygon>
            <polygon id="Fill-226" fill="#FEFEFE" points="46.91975 113.1315 54.91975 113.1315 54.91975 105.1315 46.91975 105.1315"></polygon>
            <polygon id="Fill-227" fill="#FEFEFE" points="18.91975 127.1315 18.91975 134.326061 25.7405385 134.326061 25.7405385 141.1315 32.91975 141.1315 32.91975 134.326061 32.91975 128.869976 32.91975 127.1315"></polygon>
            <polygon id="Fill-228" fill="#FEFEFE" points="69.91975 120.1315 53.91975 120.1315 53.91975 121.787144 53.91975 126.983267 53.91975 140.1315 61.2758326 140.1315 61.2758326 126.983267 69.91975 126.983267"></polygon>
        </g>
    </g>
</svg>