<?xml version="1.0" encoding="UTF-8"?>
<svg width="300px" height="250px" viewBox="0 0 300 250" version="1.1" xmlns="http://www.w3.org/2000/svg" xmlns:xlink="http://www.w3.org/1999/xlink">
    <!-- Generator: Sketch 63 (92445) - https://sketch.com -->
    <title>logo_9</title>
    <desc>Created with Sketch.</desc>
    <g id="Page-1" stroke="none" stroke-width="1" fill="none" fill-rule="evenodd">
        <g id="logo_9" fill="#1C287F">
            <path d="M117.0532,143.110335 C117.0532,143.796335 116.4982,144.349335 115.8142,144.349335 L110.5652,144.349335 C109.8802,144.349335 109.3252,143.796335 109.3252,143.110335 L109.3252,105.953335 C109.3252,105.268335 109.8802,104.714335 110.5652,104.714335 L115.8142,104.714335 C116.4982,104.714335 117.0532,105.268335 117.0532,105.953335 L117.0532,143.110335 Z" id="Fill-145"></path>
            <path d="M256.8837,122.696235 C256.8837,122.012235 256.3287,121.457235 255.6447,121.457235 L238.9627,121.457235 C238.2787,121.457235 237.7237,122.012235 237.7237,122.696235 L237.7237,127.946235 C237.7237,128.631235 238.2787,129.185235 238.9627,129.185235 L249.0157,129.185235 C249.0017,130.766235 248.3917,132.924235 247.6487,134.122235 C246.8257,135.447235 245.6527,136.398235 244.1877,137.032235 C237.0397,140.120235 230.0417,136.642235 228.4407,129.091235 C227.6597,125.410235 227.8917,121.745235 229.4707,118.287235 C232.5347,111.575235 242.8587,110.093235 247.6007,115.640235 C249.5137,117.880235 250.7027,117.695235 254.0637,114.926235 C256.1417,113.213235 254.5037,111.907235 253.5637,110.825235 C248.3427,104.822235 241.4917,103.811235 234.2477,105.435235 C224.9097,107.529235 219.2987,116.704235 220.1377,127.678235 C221.2277,141.900235 235.6877,150.080235 248.4817,143.708235 C251.6407,142.134235 253.8487,139.667235 255.1347,136.403235 C256.1517,133.824235 256.6017,131.151235 256.7797,128.439235 C256.8457,128.288235 256.8837,128.121235 256.8837,127.946235 L256.8837,122.696235 Z" id="Fill-146"></path>
            <path d="M291.184,112.470735 C291.868,112.470735 292.422,111.914735 292.422,111.231735 L292.422,105.981735 C292.422,105.297735 291.868,104.742735 291.184,104.742735 L270.388,104.742735 L268.389,104.742735 L265.139,104.742735 C264.454,104.742735 263.9,105.297735 263.9,105.981735 L263.9,143.638735 C263.9,144.323735 264.454,144.877735 265.139,144.877735 L268.389,144.877735 L270.388,144.877735 L291.184,144.877735 C291.868,144.877735 292.422,144.323735 292.422,143.638735 L292.422,138.388735 C292.422,137.704735 291.868,137.150735 291.184,137.150735 L271.627,137.150735 L271.627,128.673735 L289.258,128.673735 C289.943,128.673735 290.497,128.118735 290.497,127.435735 L290.497,122.185735 C290.497,121.500735 289.943,120.946735 289.258,120.946735 L271.627,120.946735 L271.627,112.470735 L291.184,112.470735 Z" id="Fill-147"></path>
            <path d="M171.2382,104.713835 L165.9882,104.713835 C165.9692,104.713835 165.9502,104.718835 165.9302,104.719835 L165.9262,104.713835 C164.1602,104.660835 162.5222,105.327835 162.1642,106.111835 L151.5362,129.860835 L140.9082,106.111835 C140.5632,105.358835 139.0342,104.719835 137.3472,104.717835 C137.3342,104.717835 137.3222,104.713835 137.3082,104.713835 L132.0592,104.713835 C131.3742,104.713835 130.8202,105.268835 130.8202,105.952835 L130.8202,143.109835 C130.8202,143.795835 131.3742,144.349835 132.0592,144.349835 L137.3082,144.349835 C137.9922,144.349835 138.5482,143.795835 138.5482,143.109835 L138.5482,119.755835 L146.1322,136.702835 C146.1682,136.784835 146.2142,136.859835 146.2652,136.929835 L146.2642,136.929835 C146.7422,137.805835 147.8502,138.259835 148.0752,138.259835 L154.2062,138.259835 C154.8872,138.259835 156.0472,137.719835 156.6402,137.112835 C156.6912,137.067835 156.7362,137.016835 156.7792,136.961835 C156.7872,136.950835 156.8002,136.940835 156.8082,136.929835 L156.8072,136.929835 C156.8582,136.859835 156.9042,136.784835 156.9402,136.702835 L164.7502,119.252835 L164.7502,143.109835 C164.7502,143.795835 165.3042,144.349835 165.9882,144.349835 L171.2382,144.349835 C171.9232,144.349835 172.4772,143.795835 172.4772,143.109835 L172.4772,105.952835 C172.4772,105.268835 171.9232,104.713835 171.2382,104.713835" id="Fill-148"></path>
            <path d="M192.4941,127.871035 L197.9391,114.231035 L203.3851,127.871035 L192.4941,127.871035 Z M217.5981,142.737035 L203.0891,106.285035 C202.7761,105.523035 201.2901,104.832035 199.6191,104.757035 L199.6231,104.750035 L199.5071,104.750035 C199.4651,104.749035 199.4261,104.743035 199.3841,104.743035 L199.3761,104.750035 L196.5031,104.750035 L196.4961,104.743035 C196.4541,104.743035 196.4131,104.749035 196.3721,104.750035 L196.2551,104.750035 L196.2601,104.757035 C194.5891,104.832035 193.1041,105.523035 192.7911,106.285035 L178.2801,142.737035 C178.0251,143.373035 178.1711,144.164035 178.8071,144.421035 L184.4521,144.421035 C185.3161,144.421035 185.9701,144.208035 186.2251,143.574035 L189.4091,135.599035 L206.4711,135.599035 L209.6541,143.574035 C209.9101,144.208035 210.5621,144.421035 211.4271,144.421035 L217.0731,144.421035 C217.7071,144.164035 217.8541,143.373035 217.5981,142.737035 L217.5981,142.737035 Z" id="Fill-149"></path>
            <path d="M45.456,143.621035 L43.449,142.463035 C42.722,142.035035 41.889,141.550035 40.921,141.003035 L32.521,136.153035 C31.022,135.107035 30.601,134.252035 30.508,132.369035 L30.508,129.172035 C30.526,127.957035 30.542,126.496035 30.508,124.697035 C30.531,123.188035 30.521,121.914035 30.508,120.824035 L30.508,117.118035 C30.59,115.486035 30.907,114.627035 31.907,113.791035 L38.616,109.918035 C38.864,109.777035 39.115,109.637035 39.378,109.486035 C40.106,109.071035 40.766,108.685035 41.373,108.325035 L46.657,105.274035 C47.979,104.683035 48.883,104.673035 50.183,105.233035 L65.161,113.881035 C65.884,114.516035 66.227,115.182035 66.374,116.201035 L66.369,116.201035 L66.369,124.367035 C66.368,124.488035 66.367,124.600035 66.367,124.725035 C66.367,124.844035 66.368,124.951035 66.369,125.067035 L66.369,133.335035 C66.224,134.379035 65.888,135.057035 65.177,135.689035 L50.476,144.178035 C48.634,145.024035 47.631,144.822035 45.456,143.621035 L45.456,143.621035 Z M88.039,107.034035 C87.728,104.625035 86.479,102.805035 84.205,101.520035 C79.852,99.0640351 75.492,96.6170351 71.194,94.0650351 C68.729,92.6010351 66.472,92.6730351 64.023,94.1410351 C59.737,96.7120351 55.319,99.0600351 51.034,101.633035 C49.228,102.716035 47.68,102.682035 45.905,101.631035 C41.603,99.0870351 37.195,96.7210351 32.915,94.1420351 C30.463,92.6640351 28.233,92.5970351 25.759,94.0790351 C21.474,96.6500351 17.105,99.0840351 12.747,101.530035 C10.251,102.931035 8.987,104.879035 9.012,107.818035 L9,107.818035 L9,141.709035 L9.013,141.709035 C9.016,144.701035 10.311,146.674035 12.9,148.104035 C17.275,150.522035 21.632,152.976035 25.919,155.544035 C28.295,156.968035 30.425,156.886035 32.773,155.478035 L39.888,151.394035 C41.254,150.625035 42.613,149.846035 43.966,149.055035 L45.933,147.925035 C47.843,146.923035 49.547,147.020035 51.475,148.179035 C55.757,150.754035 60.15,153.144035 64.466,155.664035 C64.823,155.873035 65.177,156.035035 65.53,156.176035 L65.547,156.185035 L65.548,156.183035 C67.025,156.767035 68.475,156.763035 69.963,156.121035 L69.96,156.124035 L69.969,156.119035 C70.245,156.000035 70.522,155.861035 70.801,155.698035 C72.3,154.824035 73.801,153.955035 75.303,153.086035 L80.417,150.178035 C81.641,149.488035 82.859,148.788035 84.093,148.117035 C84.293,148.009035 84.466,147.887035 84.65,147.770035 L84.885,147.637035 L84.862,147.638035 C87.067,146.155035 88.045,144.079035 88.106,141.396035 L88.123,141.396035 L88.123,107.034035 L88.039,107.034035 Z" id="Fill-150"></path>
        </g>
    </g>
</svg>