<?xml version="1.0" encoding="UTF-8"?>
<svg width="300px" height="250px" viewBox="0 0 300 250" version="1.1" xmlns="http://www.w3.org/2000/svg" xmlns:xlink="http://www.w3.org/1999/xlink">
    <!-- Generator: Sketch 63 (92445) - https://sketch.com -->
    <title>logo_3</title>
    <desc>Created with Sketch.</desc>
    <g id="Page-1" stroke="none" stroke-width="1" fill="none" fill-rule="evenodd">
        <g id="logo_3">
            <path d="M37.562,158.976629 C28.937,158.976629 20.312,158.987629 11.688,158.972629 C6.516,158.963629 4.006,156.462629 4.004,151.328629 C3.999,134.091629 3.998,116.853629 4.005,99.6166291 C4.008,94.4816291 6.504,92.0116291 11.721,92.0086291 C28.97,91.9976291 46.22,91.9966291 63.469,92.0086291 C68.683,92.0116291 71.251,94.6206291 71.255,99.9176291 C71.268,116.977629 71.269,134.036629 71.254,151.096629 C71.25,156.379629 68.676,158.964629 63.436,158.973629 C54.812,158.987629 46.187,158.976629 37.562,158.976629" id="Fill-63" fill="#F4E82A"></path>
            <path d="M225.4584,128.665629 C225.1584,120.221629 219.8844,115.408629 212.2244,116.212629 C208.3934,116.615629 205.4554,118.520629 203.2944,121.739629 C198.6144,114.637629 188.8544,113.870629 183.2724,121.704629 C182.6034,120.894629 181.9894,120.044629 181.2704,119.298629 C176.6504,114.511629 175.9264,117.780629 173.1094,121.734629 C172.7254,122.274629 172.7554,122.669629 173.3144,123.057629 C175.6054,124.645629 175.6814,127.103629 175.7124,129.505629 C175.7744,134.127629 175.7304,138.751629 175.7304,143.374629 L175.7304,148.974629 L183.8304,148.974629 L183.8944,146.561629 C183.7764,141.408629 183.8614,136.249629 183.8504,131.093629 C183.8434,128.789629 184.4624,126.728629 186.0094,124.967629 C187.8184,122.909629 190.1424,122.585629 192.5894,123.202629 C194.9494,123.796629 196.0054,125.707629 196.2714,127.951629 C196.8994,133.262629 196.4734,138.603629 196.5424,143.932629 L196.5424,148.974629 L204.3634,148.974629 C204.7134,142.463629 204.3134,136.300629 204.7714,129.577629 C205.0174,125.988629 207.4194,123.541629 210.1724,123.061629 C214.4814,122.311629 217.1194,124.765629 217.3384,130.069629 C217.5154,134.330629 217.3814,138.603629 217.3824,142.870629 L217.3824,148.974629 L225.5624,148.974629 C225.5624,148.974629 225.6764,134.791629 225.4584,128.665629" id="Fill-65" fill="#4C4948"></path>
            <path d="M20.2182,125.483029 C20.2182,129.570029 20.2532,133.658029 20.2062,137.745029 C20.1732,140.679029 18.7942,142.301029 16.4892,142.288107 C14.1862,142.275029 12.6892,140.647029 12.6652,137.755029 C12.6022,129.581029 12.6032,121.406029 12.6652,113.232029 C12.6882,110.339029 14.1862,108.700029 16.4732,108.692999 C18.7952,108.685029 20.1722,110.290029 20.2062,113.221029 C20.2532,117.308029 20.2182,121.396029 20.2182,125.483029" id="Fill-67" fill="#4C4948"></path>
            <path d="M62.2846,125.734429 C62.2846,129.909429 62.2356,134.084429 62.3046,138.258429 C62.3436,140.649429 61.1736,141.942429 58.9306,142.251429 C56.8636,142.535429 54.9276,140.936429 54.8966,138.567429 C54.7846,129.864429 54.7866,121.158429 54.9066,112.455429 C54.9396,110.041429 56.8056,108.545429 58.8936,108.701429 C61.0896,108.865429 62.2656,110.305429 62.2786,112.943429 C62.3016,117.206429 62.2846,121.470429 62.2846,125.734429" id="Fill-69" fill="#4C4948"></path>
            <path d="M37.0522,132.835529 C33.8222,132.919529 30.8082,131.736529 28.0742,129.798529 C26.1642,128.444529 25.6522,126.195529 26.7352,124.461529 C27.8302,122.705529 29.9762,122.235529 32.0672,123.568529 C35.7522,125.917529 39.3092,125.947529 43.0092,123.609529 C45.1652,122.246529 47.1672,122.644529 48.3632,124.397529 C49.5812,126.186529 49.0312,128.471529 46.9612,129.898529 C44.0402,131.911529 40.8232,133.014529 37.0522,132.835529" id="Fill-71" fill="#4C4948"></path>
            <path d="M156.8012,142.388229 C153.6762,143.987229 150.3052,144.295229 147.0832,142.788229 C144.3052,141.488229 144.4002,138.192229 147.0902,136.381229 C148.7972,135.232229 150.7712,134.881229 155.9012,134.581229 C156.7722,134.550229 158.3152,134.209229 158.8082,135.111229 C159.8752,137.063229 158.5582,141.489229 156.8012,142.388229 L156.8012,142.388229 Z M166.3352,127.129229 C165.8852,121.913229 162.6602,118.017229 157.7552,116.797229 C152.6672,115.531229 147.6992,116.038229 142.9762,118.365229 C138.4092,120.614229 138.4092,120.848229 141.6722,124.716229 C142.5652,125.774229 143.1202,126.112229 144.3802,125.100229 C146.8882,123.083229 149.8552,122.162229 153.0952,122.616229 C155.6732,122.976229 157.9182,123.974229 158.7232,126.766229 C159.1172,128.134229 159.0012,128.993229 157.0752,129.040229 C152.6492,129.150229 148.2102,129.378229 143.9822,130.993229 C138.9602,132.912229 136.7372,136.011229 137.0802,140.785229 C137.3872,145.039229 140.5192,148.271229 145.3162,149.302229 C148.8302,150.058229 152.3972,150.097229 155.9202,149.643229 C163.2082,148.706229 166.4582,144.893229 166.5562,137.506229 C166.5732,136.175229 166.5592,134.843229 166.5592,133.511229 L166.3352,127.129229 Z" id="Fill-73" fill="#4C4948"></path>
            <path d="M275.8276,129.424429 C276.4316,124.106429 282.8466,120.858429 287.5566,123.523429 C290.2416,125.043429 290.2866,128.213429 287.6166,129.954429 C284.7256,131.838429 281.3816,131.644429 277.5806,132.028429 C275.9066,132.448429 275.6206,131.247429 275.8276,129.424429 M290.3176,140.958429 C289.1176,142.011429 287.6296,142.668429 286.0816,143.116429 C282.3776,144.190429 278.1356,143.142429 276.5806,140.754429 C275.9896,139.844429 275.5336,138.788429 275.9596,137.754429 C276.2356,137.084429 277.4246,137.405429 278.1836,137.405429 C282.5726,137.406429 286.8296,136.843429 290.8886,135.019429 C299.1816,131.290429 297.5056,122.917429 292.7646,119.058429 C284.8846,112.643429 271.4306,116.887429 268.7106,126.678429 C267.8636,129.730429 268.1266,132.842429 268.1256,135.935429 C268.1236,145.151429 272.8366,149.818429 282.0926,149.848599 C285.7446,149.860429 288.5146,149.238429 291.5986,147.713429 C296.2436,145.416429 296.2796,145.056429 292.8526,141.199429 C291.9556,140.190429 291.3796,140.028429 290.3176,140.958429" id="Fill-75" fill="#4C4948"></path>
            <path d="M240.8276,129.294029 C241.8306,124.005029 247.2796,121.105029 252.2156,123.365029 C253.5046,123.955029 254.3726,124.842029 254.4796,126.359029 C254.5936,127.944029 253.9286,129.065029 252.6506,129.931029 C250.8596,131.145029 247.5666,131.864029 242.8996,131.946029 C240.8776,132.378029 240.4266,131.409029 240.8276,129.294029 M243.4496,137.418029 C247.5806,137.401029 251.6356,136.926029 255.4186,135.214029 C258.5846,133.782029 261.3066,131.842029 261.5846,127.892029 C261.8756,123.764029 260.1456,120.641029 256.7876,118.407029 C247.6746,112.344029 234.7176,118.103029 233.2236,128.897029 C232.9946,130.552029 233.1916,132.267029 233.1916,133.954029 L233.0906,133.954029 C233.0906,135.199029 233.0506,136.445029 233.0976,137.688029 C233.3086,143.287029 236.4736,147.791029 241.4626,149.122029 C247.0856,150.622029 252.5706,150.067029 257.6916,147.147029 C261.1306,145.187029 261.0446,145.200029 258.6256,142.126029 C257.3786,140.540029 256.4066,139.625029 254.5336,141.442029 C253.6366,142.312029 252.2236,142.825029 250.9586,143.111029 C247.7446,143.836029 244.5566,143.856029 241.9826,141.313029 C241.0596,140.403029 240.4886,139.066029 240.8526,137.907029 C241.1966,136.821029 242.5616,137.422029 243.4496,137.418029" id="Fill-77" fill="#4C4948"></path>
            <path d="M90.8715,102.102629 L99.9135,102.102629 L99.9135,120.645629 L121.6615,120.645629 L121.6615,102.102629 L129.9025,102.102629 L129.9025,148.574629 L121.4335,148.574629 L121.4335,127.856629 L102.3175,127.856629 C102.3175,127.856629 99.8005,128.199629 99.8005,130.946629 L99.8005,148.574629 L90.8715,148.574629 L90.8715,102.102629 Z" id="Fill-79" fill="#4C4948"></path>
        </g>
    </g>
</svg>