<?xml version="1.0" encoding="UTF-8"?>
<svg width="300px" height="250px" viewBox="0 0 300 250" version="1.1" xmlns="http://www.w3.org/2000/svg" xmlns:xlink="http://www.w3.org/1999/xlink">
    <!-- Generator: Sketch 63 (92445) - https://sketch.com -->
    <title>logo_6</title>
    <desc>Created with Sketch.</desc>
    <g id="Page-1" stroke="none" stroke-width="1" fill="none" fill-rule="evenodd">
        <g id="logo_6">
            <polygon id="Fill-229" fill="#0064AB" points="29 159.897 51.518 159.897 51.518 89 29 89"></polygon>
            <path d="M51.5184,119.2378 C51.5184,119.2378 66.8314,142.6638 99.3834,146.7808 L99.3834,139.6968 C61.5554,136.3518 51.5184,104.9558 51.5184,104.9558 L51.5184,119.2378 Z" id="Fill-230" fill="#00A6D3"></path>
            <path d="M51.5184,141.5942 C51.5184,141.5942 72.8474,160.3152 99.3834,160.3152 L99.3834,153.7532 C69.6624,150.8582 51.5184,132.3292 51.5184,132.3292 L51.5184,141.5942 Z" id="Fill-231" fill="#00A6D3"></path>
            <path d="M70.5624,123.4834 C70.5624,123.4834 63.7424,96.9784 99.3834,95.8194 L99.3834,89.5544 C99.3834,89.5544 98.6204,89.8644 97.3174,89.7564 C88.1244,89.0004 56.6964,96.4244 70.5624,123.4834" id="Fill-232" fill="#768892"></path>
            <path d="M83.2333,131.1757 C83.2333,131.1757 68.5673,112.1367 97.9053,106.5187 L97.9053,101.480649 C97.9053,101.480649 98.3133,101.4847 96.5533,101.480649 C78.5943,101.4467 67.0833,118.5297 83.2333,131.1757" id="Fill-233" fill="#768892"></path>
            <path d="M115.7411,116.5776 L115.8481,116.5756 C115.9211,116.5216 115.9871,116.4606 116.0591,116.4066 C116.1671,116.3396 116.2731,116.2726 116.3851,116.1886 L116.3661,116.1596 C118.5871,114.3476 120.0901,111.7716 120.8561,108.4086 L124.1911,108.4086 C124.4991,108.4086 124.7061,108.5146 124.8131,108.7286 C124.9181,108.9416 124.9591,109.3316 124.9361,109.8986 C124.7461,111.8146 124.4871,112.9736 124.1571,113.3766 C123.9201,113.5886 123.5651,113.6956 123.0921,113.6956 L122.4171,113.6956 C121.7551,113.6726 121.3111,113.7906 121.0881,114.0506 C120.8621,114.3106 120.8441,114.6886 121.0341,115.1856 C121.0341,115.2096 121.0451,115.2506 121.0691,115.3096 C121.0941,115.3696 121.1041,115.4106 121.1041,115.4336 C121.2931,116.5456 122.0511,117.1256 123.3751,117.1726 C124.4641,117.1726 125.2921,117.0896 125.8591,116.9236 C126.4271,116.7596 126.9461,116.4036 127.4201,115.8596 C128.0821,115.1026 128.5541,112.8436 128.8401,109.0826 C128.9331,107.5226 128.7921,106.4276 128.4141,105.8016 C128.0351,105.1746 127.4431,104.8616 126.6391,104.8616 L121.4251,104.8616 C121.4461,104.6476 121.4771,104.3406 121.5121,103.9386 C121.5481,103.5366 121.5781,103.2286 121.6011,103.0156 L128.6271,103.0156 C129.7841,103.0156 130.3651,102.4246 130.3651,101.2426 C130.3651,100.0826 129.7841,99.5036 128.6271,99.5036 L124.3541,99.5036 L123.5521,98.6166 C122.0941,97.0336 121.2741,96.5936 119.9271,96.5936 C118.5791,96.5936 118.2911,97.4756 118.5461,97.9346 L119.5071,99.5036 L116.0311,99.5036 C114.8721,99.5036 114.2921,100.0826 114.2921,101.2426 C114.2921,102.4246 114.8721,103.0156 116.0311,103.0156 L117.7341,103.0156 C117.5921,105.4056 117.2721,107.3976 116.7761,108.9946 C116.2791,110.5916 115.3911,111.9456 114.1141,113.0576 C113.8371,113.2466 113.6461,113.4566 113.5211,113.6816 C112.9171,114.4756 112.9361,115.2756 113.5821,116.0816 C114.1701,116.8246 114.8921,116.9826 115.7411,116.5776" id="Fill-234" fill="#768892"></path>
            <path d="M144.5927,123.6831 L132.2097,123.6831 L132.2097,121.4691 L141.9657,121.4691 C143.1967,121.4691 143.8107,120.8431 143.8107,119.5891 C143.8107,118.3591 143.1967,117.7441 141.9657,117.7441 L132.2097,117.7441 L132.2097,117.0691 C132.2097,116.8821 132.1557,116.7071 132.0677,116.5421 C134.5577,114.7201 136.2137,112.0101 137.0347,108.4091 L140.3697,108.4091 C140.6767,108.4091 140.8837,108.5151 140.9907,108.7281 C141.0967,108.9411 141.1377,109.3311 141.1147,109.8991 C140.9247,111.8151 140.6657,112.9741 140.3347,113.3761 C140.0987,113.5891 139.7427,113.6951 139.2707,113.6951 L138.5957,113.6951 C137.9337,113.6721 137.4887,113.7901 137.2657,114.0501 C137.0397,114.3111 137.0227,114.6891 137.2127,115.1861 C137.2127,115.2091 137.2237,115.2511 137.2467,115.3101 C137.2717,115.3691 137.2817,115.4111 137.2817,115.4341 C137.4717,116.5461 138.2297,117.1251 139.5527,117.1731 C140.6417,117.1731 141.4697,117.0891 142.0377,116.9241 C142.6057,116.7591 143.1247,116.4041 143.5977,115.8601 C144.2597,115.1031 144.7337,112.8441 145.0177,109.0821 C145.1127,107.5221 144.9697,106.4281 144.5927,105.8011 C144.2137,105.1741 143.6217,104.8611 142.8177,104.8611 L137.6027,104.8611 C137.6247,104.6471 137.6557,104.3411 137.6917,103.9381 C137.7267,103.5371 137.7557,103.2281 137.7807,103.0161 L144.8047,103.0161 C145.9637,103.0161 146.5427,102.4241 146.5427,101.2421 C146.5427,100.0831 145.9637,99.5031 144.8047,99.5031 L140.5327,99.5031 L139.7307,98.6161 C138.2717,97.0341 137.4527,96.5941 136.1057,96.5941 C134.7567,96.5941 134.4687,97.4751 134.7237,97.9351 L135.6857,99.5031 L132.2097,99.5031 C131.0507,99.5031 130.4697,100.0831 130.4697,101.2421 C130.4697,102.4241 131.0507,103.0161 132.2097,103.0161 L133.9117,103.0161 C133.7707,105.4061 133.4497,107.3971 132.9547,108.9951 C132.4577,110.5911 131.5707,111.9451 130.2927,113.0581 C129.8437,113.3641 129.5957,113.7191 129.5477,114.1211 C129.5007,114.5231 129.6547,114.8781 130.0097,115.1861 C130.1207,115.3291 130.2227,115.4621 130.3187,115.5881 C130.2457,115.5831 130.1747,115.5731 130.0987,115.5731 C128.9337,115.5731 127.9887,116.2431 127.9887,117.0691 L127.9887,117.7441 L119.0097,117.7441 C117.7567,117.7441 117.1297,118.3591 117.1297,119.5891 C117.1297,120.8431 117.7567,121.4691 119.0097,121.4691 L128.0227,121.4691 L128.0227,123.6831 L115.9247,123.6831 C114.6467,123.6831 114.0067,124.3101 114.0067,125.5641 C114.0067,126.8411 114.6467,127.4791 115.9247,127.4791 L144.5927,127.4791 C145.8457,127.4791 146.4727,126.8411 146.4727,125.5641 C146.4727,124.3101 145.8457,123.6831 144.5927,123.6831" id="Fill-235" fill="#768892"></path>
            <path d="M157.9901,112.9213 L161.8801,112.9213 L161.8801,111.9573 C161.8801,110.6963 162.5341,110.0643 163.8421,110.0643 C165.1021,110.0643 165.7341,110.6963 165.7341,111.9573 L165.7341,112.9213 L168.7981,112.9213 C169.8971,112.9213 170.4491,113.4713 170.4491,114.5733 C170.4491,115.6983 169.8971,116.2593 168.7981,116.2593 L165.7341,116.2593 L165.7341,116.6043 C166.7661,117.2693 168.0401,118.2213 169.5531,119.4603 C169.9441,119.8283 170.1351,120.1313 170.1231,120.3733 C170.1101,120.6143 169.9321,120.9863 169.5891,121.4913 C169.1771,122.0423 168.7921,122.3343 168.4351,122.3683 C168.0811,122.4033 167.6611,122.1683 167.1801,121.6633 L165.7341,120.1133 L165.7341,125.5863 C165.7341,126.8493 165.1021,127.4793 163.8421,127.4793 C162.5341,127.4793 161.8801,126.8493 161.8801,125.5863 L161.8801,120.4593 C160.7561,122.1333 159.4141,123.7733 158.6341,124.5993 C158.1751,125.0343 157.7791,125.2473 157.4461,125.2353 C157.1141,125.2243 156.7291,124.9893 156.2931,124.5303 C155.8351,124.0253 155.6161,123.5783 155.6401,123.1883 C155.6631,122.7973 155.9271,122.3853 156.4311,121.9483 C157.9221,120.5033 159.6301,118.3483 160.7781,116.2593 L157.9901,116.2593 C156.8901,116.2593 156.3381,115.6983 156.3381,114.5733 C156.3381,113.4713 156.8901,112.9213 157.9901,112.9213" id="Fill-236" fill="#768892"></path>
            <path d="M159.8739,96.5595 L182.6909,96.5595 C183.6789,96.5595 184.1719,97.0535 184.1719,98.0395 C184.1719,99.0265 183.6789,99.5185 182.6909,99.5185 L173.2609,99.5185 L173.2609,100.7235 L184.4119,100.7235 C185.1019,100.7235 185.6509,100.9355 186.0649,101.3605 C186.4779,101.7855 186.6849,102.3425 186.6849,103.0295 L186.6849,105.5085 C186.6849,106.7695 186.0519,107.4005 184.7909,107.4005 C183.5069,107.4005 182.8629,106.7695 182.8629,105.5085 L182.8629,104.2005 C182.8629,103.6265 182.5759,103.3395 182.0029,103.3395 L173.2609,103.3395 L173.2609,108.9155 C173.2609,110.2465 172.5949,110.9115 171.2659,110.9115 C169.9109,110.9115 169.2339,110.2465 169.2339,108.9155 L169.2339,103.3395 L160.5609,103.3395 C159.9889,103.3395 159.7019,103.6265 159.7019,104.2005 L159.7019,105.5765 C159.7019,106.7925 159.0919,107.4005 157.8779,107.4005 C156.6609,107.4005 156.0529,106.7925 156.0529,105.5765 L156.0529,103.0295 C156.0529,102.3425 156.2599,101.7855 156.6719,101.3605 C157.0859,100.9355 157.6369,100.7235 158.3249,100.7235 L169.2339,100.7235 L169.2339,99.5185 L159.8739,99.5185 C158.8869,99.5185 158.3939,99.0265 158.3939,98.0395 C158.3939,97.0535 158.8869,96.5595 159.8739,96.5595" id="Fill-237" fill="#768892"></path>
            <path d="M166.997,109.7314 L161.318,109.7314 C160.561,109.7314 160.183,109.3524 160.183,108.5954 C160.183,107.8384 160.561,107.4594 161.318,107.4594 L166.997,107.4594 C167.755,107.4594 168.134,107.8384 168.134,108.5954 C168.134,109.3524 167.755,109.7314 166.997,109.7314" id="Fill-238" fill="#768892"></path>
            <path d="M166.9637,106.7465 L161.2297,106.7465 C160.4727,106.7465 160.0937,106.3795 160.0937,105.6455 C160.0937,104.8875 160.4727,104.5095 161.2297,104.5095 L166.9637,104.5095 C167.7197,104.5095 168.0987,104.8875 168.0987,105.6455 C168.0987,106.3795 167.7197,106.7465 166.9637,106.7465" id="Fill-239" fill="#768892"></path>
            <path d="M180.3173,112.9213 L184.9983,112.9213 C186.0983,112.9213 186.6493,113.4713 186.6493,114.5733 C186.6493,115.6753 186.0983,116.2253 184.9983,116.2253 L181.8663,116.2253 C183.0123,118.1753 184.3663,119.7703 185.9263,121.0093 C186.6163,121.4913 187.0053,121.9453 187.0963,122.3683 C187.1893,122.7943 186.9703,123.3153 186.4443,123.9353 C186.0073,124.4173 185.5933,124.6693 185.2033,124.6923 C184.8133,124.7143 184.3663,124.5203 183.8613,124.1073 C182.5763,122.9603 181.3953,121.5373 180.3173,119.8393 L180.3173,125.5533 C180.3173,126.8383 179.6733,127.4793 178.3883,127.4793 C177.0573,127.4793 176.3923,126.8383 176.3923,125.5533 L176.3923,119.7013 C175.2923,121.4683 174.1223,122.9713 172.8833,124.2103 C172.3773,124.6693 171.5463,125.2753 171.1703,125.2533 C170.7913,125.2303 170.3813,124.9653 169.9483,124.4613 C169.4653,123.8883 169.2533,123.4123 169.3093,123.0333 C169.3673,122.6543 169.6833,122.2243 170.2563,121.7423 C171.7703,120.3433 173.4903,118.2453 174.6373,116.2253 L172.5733,116.2253 C171.4713,116.2253 170.9203,115.6753 170.9203,114.5733 C170.9203,113.4713 171.4713,112.9213 172.5733,112.9213 L176.3923,112.9213 L176.3923,112.0263 C176.3923,110.7183 177.0573,110.0643 178.3883,110.0643 C179.6733,110.0643 180.3173,110.7183 180.3173,112.0263 L180.3173,112.9213 Z" id="Fill-240" fill="#768892"></path>
            <path d="M181.3007,106.7465 L175.4997,106.7465 C174.7407,106.7465 174.3627,106.3795 174.3627,105.6455 C174.3627,104.8875 174.7407,104.5095 175.4997,104.5095 L181.3007,104.5095 C182.0587,104.5095 182.4377,104.8875 182.4377,105.6455 C182.4377,106.3795 182.0587,106.7465 181.3007,106.7465" id="Fill-241" fill="#768892"></path>
            <path d="M181.245,109.7314 L175.5,109.7314 C174.741,109.7314 174.362,109.3524 174.362,108.5954 C174.362,107.8384 174.741,107.4594 175.5,107.4594 L181.245,107.4594 C182.003,107.4594 182.382,107.8384 182.382,108.5954 C182.382,109.3524 182.003,109.7314 181.245,109.7314" id="Fill-242" fill="#768892"></path>
            <path d="M240.872,109.7426 C239.81,109.7426 239.276,110.2746 239.276,111.3396 C239.276,112.4276 239.81,112.9716 240.872,112.9716 L247.626,112.9716 C248.688,112.9716 249.222,112.4276 249.222,111.3396 C249.222,110.2746 248.688,109.7426 247.626,109.7426 L240.872,109.7426 Z" id="Fill-243" fill="#768892"></path>
            <path d="M248.371,104.3462 C249.506,104.3462 250.073,104.1792 250.073,103.0442 C250.073,101.9082 249.506,100.9402 248.371,100.9402 L245.949,100.9402 C246.019,100.6352 245.984,100.2812 245.829,99.8742 L245.1,97.4022 C244.716,96.3852 243.379,96.4532 242.996,96.4532 C241.884,96.4532 241.629,97.5502 242.013,98.5692 L242.704,100.9402 L239.926,100.9402 C238.791,100.9402 238.223,101.5072 238.223,102.6432 C238.223,103.7792 238.791,104.3462 239.926,104.3462 L248.371,104.3462 Z" id="Fill-244" fill="#768892"></path>
            <path d="M247.5887,105.1762 L240.9087,105.1762 C239.8197,105.1762 239.2757,105.7202 239.2757,106.8082 C239.2757,107.9212 239.8197,108.4762 240.9087,108.4762 L247.5887,108.4762 C248.6777,108.4762 249.2217,107.9212 249.2217,106.8082 C249.2217,105.7202 248.6777,105.1762 247.5887,105.1762" id="Fill-245" fill="#768892"></path>
            <path d="M245.8807,122.9433 L243.6987,122.9433 C243.0477,122.9433 242.7247,122.6193 242.7247,121.9703 L242.7247,119.2833 C242.7247,118.6603 243.0477,118.3473 243.6987,118.3473 L244.9057,118.3473 C245.5557,118.3473 245.8807,118.6603 245.8807,119.2833 L245.8807,122.9433 Z M270.1537,97.0563 C269.7297,96.6383 269.1607,96.4293 268.4507,96.4293 L253.8337,96.4293 C253.1237,96.4293 252.5567,96.6383 252.1307,97.0563 C251.7057,97.4743 251.4907,98.0313 251.4907,98.7303 L251.4907,109.2733 C251.4907,115.7943 250.8657,120.7513 249.6177,124.1533 L249.6177,117.2173 C249.6177,116.4393 249.3857,115.8163 248.9177,115.3493 C248.4497,114.8813 247.8267,114.6473 247.0487,114.6473 L241.6727,114.6473 C240.8947,114.6473 240.2717,114.8813 239.8037,115.3493 C239.3357,115.8163 239.1017,116.4393 239.1017,117.2173 L239.1017,124.0353 C239.1017,124.8133 239.3357,125.4433 239.8037,125.9243 C240.2717,126.4043 240.8947,126.6443 241.6727,126.6443 L249.3757,126.6443 L249.4497,126.2923 C249.6357,126.3843 249.7847,126.4633 249.8957,126.5263 C250.5817,127.0593 251.2257,127.2573 251.8297,127.1173 C252.4327,126.9793 252.8877,126.5603 253.1957,125.8633 C254.6377,121.9373 255.3597,116.4063 255.3597,109.2733 L255.3597,100.8903 C255.3597,100.3093 255.6537,100.0193 256.2457,100.0193 L265.9687,100.0193 C266.5587,100.0193 266.8547,100.3093 266.8547,100.8903 L266.8547,123.2493 C266.8547,123.5053 266.8077,123.6803 266.7137,123.7723 C266.6177,123.8663 265.9797,123.5113 265.7187,123.5113 C264.7017,123.4873 263.9687,123.6673 263.5197,124.0513 C263.0697,124.4343 262.9647,125.0563 263.2007,125.9163 C263.5077,127.0543 264.0437,127.0333 265.9607,127.3513 C267.2917,127.5733 268.3557,127.5133 269.0177,127.1183 C269.6097,126.7923 270.2317,126.4613 270.4557,125.8463 C270.6817,125.2303 270.7937,124.3763 270.7937,123.2843 L270.7937,98.7303 C270.7937,98.0313 270.5807,97.4743 270.1537,97.0563 L270.1537,97.0563 Z" id="Fill-246" fill="#768892"></path>
            <path d="M264.9335,111.0415 C265.9745,111.0415 266.4955,110.5085 266.4955,109.4445 C266.4955,108.3805 265.9745,107.8485 264.9335,107.8485 L262.6685,107.8485 L262.6685,105.3995 L263.9465,105.3995 C264.9875,105.3995 265.5065,105.2805 265.5065,104.2395 C265.5065,103.1995 264.9875,102.6785 263.9465,102.6785 L262.6685,102.6785 L262.6685,101.9685 C262.6685,100.8575 262.1125,100.3015 261.0005,100.3015 C259.8885,100.3015 259.3335,100.8575 259.3335,101.9685 L259.3335,102.6785 L258.1255,102.6785 C257.0855,102.6785 256.5665,103.1995 256.5665,104.2395 C256.5665,105.2805 257.0855,105.3995 258.1255,105.3995 L259.3335,105.3995 L259.3335,107.8485 L257.2765,107.8485 C256.2355,107.8485 255.7135,108.3805 255.7135,109.4445 C255.7135,110.5085 256.2355,111.0415 257.2765,111.0415 L264.9335,111.0415 Z" id="Fill-247" fill="#768892"></path>
            <path d="M262.3837,118.1616 C262.3837,118.7306 262.0877,119.0146 261.4967,119.0146 L260.5387,119.0146 C259.9467,119.0146 259.6537,118.7306 259.6537,118.1616 L259.6537,116.4586 C259.6537,115.8916 259.9467,115.6076 260.5387,115.6076 L261.6387,115.6076 C262.1367,115.6076 262.3837,115.8446 262.3837,116.3166 L262.3837,118.1616 Z M264.8157,121.4616 C265.2507,121.0366 265.4717,120.4686 265.4717,119.7596 L265.4717,114.5786 C265.4717,113.9396 265.2807,113.4316 264.9047,113.0526 C264.5247,112.6746 264.0167,112.4856 263.3787,112.4856 L259.0137,112.4856 C258.3037,112.4856 257.7307,112.6986 257.2927,113.1236 C256.8547,113.5506 256.6367,114.1176 256.6367,114.8276 L256.6367,119.7596 C256.6367,120.4686 256.8547,121.0366 257.2927,121.4616 C257.7307,121.8876 258.3037,122.1006 259.0137,122.1006 L263.0937,122.1006 C263.8037,122.1006 264.3767,121.8876 264.8157,121.4616 L264.8157,121.4616 Z" id="Fill-248" fill="#768892"></path>
            <path d="M227.1141,126.5327 L198.4901,126.5327 C197.1381,126.5327 196.4641,125.8507 196.4641,124.4887 C196.4641,123.1237 197.1381,122.4427 198.4901,122.4427 L210.3881,122.4427 L210.3881,116.3327 L202.3571,116.3327 C201.0321,116.3327 200.3681,115.6507 200.3681,114.2867 C200.3681,112.9477 201.0321,112.2787 202.3571,112.2787 L223.9471,112.2787 C225.2721,112.2787 225.9341,112.9477 225.9341,114.2867 C225.9341,115.6507 225.2721,116.3327 223.9471,116.3327 L214.9201,116.3327 L214.9201,122.4427 L227.1141,122.4427 C228.4661,122.4427 229.1401,123.1237 229.1401,124.4887 C229.1401,125.8507 228.4661,126.5327 227.1141,126.5327" id="Fill-249" fill="#768892"></path>
            <path d="M228.1454,100.0175 C227.7044,99.5705 227.1144,99.3475 226.3774,99.3475 L214.9194,99.3475 L214.9194,98.1955 C214.7274,97.5675 211.5124,95.3985 210.4464,95.8265 C209.4574,96.2225 209.1244,97.0335 210.0304,98.2975 L210.9394,99.3475 L199.2994,99.3475 C198.5624,99.3475 197.9744,99.5705 197.5314,100.0175 C197.0884,100.4635 196.8694,101.0585 196.8694,101.8025 L196.8694,105.6695 C196.8694,107.1325 197.5914,107.8645 199.0424,107.8645 C200.5164,107.8645 201.2514,107.1325 201.2514,105.6695 L201.2514,104.3685 C201.2514,103.7485 201.5454,103.4385 202.1354,103.4385 L204.6524,103.4385 L206.4104,103.4385 L210.9414,103.4385 L214.5884,103.4385 L218.9354,103.4385 L220.4014,103.4385 L223.3204,103.4385 C223.9104,103.4385 224.2044,103.7485 224.2044,104.3685 L224.2044,104.8895 C224.2044,106.4515 224.9764,107.2315 226.5244,107.2315 C228.0474,107.2315 228.8094,106.4515 228.8094,104.8895 L228.8094,101.8025 C228.8094,101.0585 228.5874,100.4635 228.1454,100.0175" id="Fill-250" fill="#768892"></path>
            <path d="M207.0809,104.7309 C207.0809,104.7309 204.6869,106.7269 200.5249,108.2499 C196.3619,109.7729 197.1959,111.5059 197.4549,112.2409 C197.7159,112.9759 199.3819,113.2399 200.9409,112.6609 C202.5019,112.0839 207.2879,110.4039 210.7239,107.8289 C211.4519,107.1989 211.6589,105.9389 210.7239,104.9929 C209.7859,104.0479 208.6419,104.2579 207.0809,104.7309" id="Fill-251" fill="#768892"></path>
            <path d="M216.0643,105.2031 C216.0643,105.2031 214.8163,107.6201 216.4803,108.4071 C218.1453,109.1941 223.2963,112.0311 223.5573,112.1361 C223.8163,112.2411 226.5223,113.9231 228.3953,113.4491 C229.7823,113.1001 229.7493,111.1391 228.3953,110.2451 C227.0423,109.3521 219.9663,104.9401 219.0293,104.7311 C218.0933,104.5201 216.4393,104.1241 216.0643,105.2031" id="Fill-252" fill="#768892"></path>
            <polygon id="Fill-253" fill="#768892" points="113.0829 155.687 113.0829 139.555 116.4569 139.555 116.4569 146.557 116.5229 146.557 122.0979 139.555 125.8059 139.555 120.6549 145.897 126.7159 155.687 123.0089 155.687 118.6549 148.451 116.4569 151.154 116.4569 155.687"></polygon>
            <path d="M135.1307,155.9858 C130.7637,155.9858 128.5807,153.4678 128.5807,148.4298 L128.5807,139.5548 L131.9557,139.5548 L131.9557,148.7078 C131.9557,150.3238 132.2267,151.4768 132.7667,152.1658 C133.3057,152.8538 134.0957,153.1978 135.1307,153.1978 C136.1967,153.1978 137.0067,152.8498 137.5637,152.1538 C138.1177,151.4588 138.3957,150.3098 138.3957,148.7078 L138.3957,139.5548 L141.6367,139.5548 L141.6367,148.4298 C141.6367,153.4678 139.4677,155.9858 135.1307,155.9858" id="Fill-254" fill="#768892"></path>
            <polygon id="Fill-255" fill="#768892" points="145.6552 155.687 145.6552 139.555 155.9802 139.555 155.9802 142.237 149.0312 142.237 149.0312 145.961 154.9382 145.961 154.9382 148.664 149.0312 148.664 149.0312 152.984 156.2242 152.984 156.2242 155.687"></polygon>
            <path d="M159.6229,155.687 L159.6229,139.555 L163.0629,139.555 L167.9489,148.154 L169.6379,151.643 L169.7479,151.643 C169.4499,148.835 169.3029,146.947 169.3029,145.982 L169.3029,139.555 L172.5009,139.555 L172.5009,155.687 L169.0809,155.687 L164.2189,147.046 L162.5089,143.599 L162.3969,143.599 C162.4119,143.797 162.4679,144.348 162.5639,145.249 C162.6599,146.149 162.7269,146.897 162.7639,147.493 C162.8009,148.09 162.8189,148.664 162.8189,149.218 L162.8189,155.687 L159.6229,155.687 Z" id="Fill-256" fill="#768892"></path>
            <polygon id="Fill-257" fill="#768892" points="176.6307 155.687 176.6307 139.555 180.0067 139.555 180.0067 152.984 186.8227 152.984 186.8227 155.687"></polygon>
            <polygon id="Fill-258" fill="#768892" points="189.731 155.687 193.106 155.687 193.106 139.555 189.731 139.555"></polygon>
            <path d="M197.2147,155.687 L197.2147,139.555 L200.6547,139.555 L205.5407,148.154 L207.2277,151.643 L207.3397,151.643 C207.0417,148.835 206.8947,146.947 206.8947,145.982 L206.8947,139.555 L210.0927,139.555 L210.0927,155.687 L206.6727,155.687 L201.8107,147.046 L200.1007,143.599 L199.9887,143.599 C200.0047,143.797 200.0597,144.348 200.1557,145.249 C200.2517,146.149 200.3187,146.897 200.3557,147.493 C200.3927,148.09 200.4107,148.664 200.4107,149.218 L200.4107,155.687 L197.2147,155.687 Z" id="Fill-259" fill="#768892"></path>
            <path d="M221.4608,155.9858 C219.0778,155.9858 217.1348,155.2558 215.6318,153.7938 C214.1308,152.3318 213.3778,150.2958 213.3778,147.6848 C213.3778,145.1028 214.1458,143.0518 215.6778,141.5338 C217.2088,140.0158 219.1368,139.2568 221.4608,139.2568 C223.5188,139.2568 225.2508,139.9448 226.6568,141.3208 L224.8578,143.3648 C223.8958,142.4708 222.8008,142.0238 221.5708,142.0238 C220.1508,142.0238 219.0038,142.5208 218.1308,143.5138 C217.2568,144.5068 216.8198,145.8618 216.8198,147.5788 C216.8198,149.3658 217.2418,150.7498 218.0868,151.7288 C218.9298,152.7078 220.1648,153.1978 221.7938,153.1978 C222.6968,153.1978 223.3998,152.9988 223.9028,152.6008 L223.9028,149.4088 L220.9288,149.4088 L220.9288,146.7698 L226.9238,146.7698 L226.9238,154.0488 C226.3148,154.6168 225.5308,155.0808 224.5698,155.4428 C223.6068,155.8048 222.5708,155.9858 221.4608,155.9858" id="Fill-260" fill="#768892"></path>
            <path d="M238.8475,149.0473 L242.8425,149.0473 L242.3325,147.2803 C242.1405,146.6573 241.8815,145.7383 241.5565,144.5233 C241.2315,143.3113 240.9995,142.4703 240.8675,142.0023 L240.7785,142.0023 C240.3935,143.6483 239.9125,145.4073 239.3355,147.2803 L238.8475,149.0473 Z M244.7525,155.6873 L243.5765,151.5363 L238.1145,151.5363 L236.9385,155.6873 L233.5185,155.6873 L238.9145,139.5553 L242.8655,139.5553 L248.2615,155.6873 L244.7525,155.6873 Z" id="Fill-261" fill="#768892"></path>
            <polygon id="Fill-262" fill="#768892" points="250.238 155.687 253.612 155.687 253.612 139.555 250.238 139.555"></polygon>
            <path d="M261.0956,142.1084 L261.0956,147.0254 L263.2716,147.0254 C265.5066,147.0254 266.6246,146.1674 266.6246,144.4504 C266.6246,143.6134 266.3476,143.0134 265.7906,142.6514 C265.2366,142.2894 264.3956,142.1084 263.2716,142.1084 L261.0956,142.1084 Z M270.6446,155.6874 L266.8916,155.6874 L263.4266,149.5794 L261.0956,149.5794 L261.0956,155.6874 L257.7196,155.6874 L257.7196,139.5554 L263.5816,139.5554 C267.8006,139.5554 269.9096,141.1864 269.9096,144.4504 C269.9096,146.7474 268.8456,148.2954 266.7136,149.0894 L270.6446,155.6874 Z" id="Fill-263" fill="#768892"></path>
        </g>
    </g>
</svg>